SplineFontDB: 3.2
FontName: AtkinsonHyperPro-Italic
FullName: Atkinson Hyperlegible Pro Italic
FamilyName: Atkinson Hyperlegible Pro
Weight: Regular
Copyright: Copyright 2020 Braille Institute of America, Inc.
UComments: "Update by Jacob Perez+AAoA-https://jacobxperez.github.io/atkinson-hyperlegible-pro/"
Version: 1.3.2
ItalicAngle: -12
UnderlinePosition: -106
UnderlineWidth: 57
Ascent: 800
Descent: 200
InvalidEm: 0
sfntRevision: 0x00010000
LayerCount: 2
Layer: 0 0 "Back" 1
Layer: 1 0 "Fore" 0
XUID: [1021 466 782043844 3810]
StyleMap: 0x0001
FSType: 0
OS2Version: 4
OS2_WeightWidthSlopeOnly: 0
OS2_UseTypoMetrics: 1
CreationTime: 1618935638
ModificationTime: 1697772996
PfmFamily: 81
TTFWeight: 400
TTFWidth: 5
LineGap: 0
VLineGap: 0
Panose: 0 0 0 0 0 0 0 0 0 0
OS2TypoAscent: 950
OS2TypoAOffset: 0
OS2TypoDescent: -290
OS2TypoDOffset: 0
OS2TypoLinegap: 0
OS2WinAscent: 950
OS2WinAOffset: 0
OS2WinDescent: 290
OS2WinDOffset: 0
HheadAscent: 950
HheadAOffset: 0
HheadDescent: -290
HheadDOffset: 0
OS2SubXSize: 650
OS2SubYSize: 699
OS2SubXOff: 0
OS2SubYOff: 140
OS2SupXSize: 650
OS2SupYSize: 699
OS2SupXOff: 0
OS2SupYOff: 479
OS2StrikeYSize: 49
OS2StrikeYPos: 258
OS2CapHeight: 668
OS2XHeight: 496
OS2Vendor: 'NONE'
OS2CodePages: 20000003.00000000
OS2UnicodeRanges: 800000ef.0000204b.00000000.00000000
Lookup: 4 0 1 "'liga' Standard Ligatures lookup 0" { "'liga' Standard Ligatures lookup 0-1"  } ['liga' ('DFLT' <'dflt' > 'grek' <'dflt' > 'latn' <'MOL ' 'dflt' > ) ]
Lookup: 1 0 0 "'zero' Slashed Zero lookup 0" { "'zero' Slashed Zero lookup 0-1"  } ['zero' ('DFLT' <'dflt' > 'grek' <'dflt' > 'latn' <'MOL ' 'dflt' > ) ]
Lookup: 1 0 0 "'aalt' Access All Alternates lookup 0" { "'aalt' Access All Alternates lookup 0 subtable"  } ['aalt' ('DFLT' <'dflt' > 'grek' <'dflt' > 'latn' <'dflt' > ) ]
Lookup: 3 0 0 "'aalt' Access All Alternates lookup 1" { "'aalt' Access All Alternates lookup 1 subtable"  } ['aalt' ('DFLT' <'dflt' > 'grek' <'dflt' > 'latn' <'dflt' > ) ]

StartChar: .notdef
Encoding: 256 -1 0
Width: 523
GlyphClass: 1
Flags: W
HStem: 0 21<77 447> 680 20<76 447>
VStem: 48 21<49 650> 455 20<47 652>
DStem2: 76 680 69 650 0.513698 -0.857971<22.1432 360.147 396.696 737.787> 69 49 77 21 0.513896 0.857853<0 339.381 374.897 715.649>
LayerCount: 2
Fore
SplineSet
77 21 m 1
 447 21 l 1
 262 329 l 1
 77 21 l 1
69 49 m 1
 249 350 l 1
 69 650 l 1
 69 49 l 1
455 47 m 1
 455 652 l 1
 274 350 l 1
 455 47 l 1
261 371 m 1
 447 680 l 1
 76 680 l 1
 261 371 l 1
48 0 m 1
 48 700 l 1
 475 700 l 1
 475 0 l 1
 48 0 l 1
EndSplineSet
EndChar

StartChar: zero
Encoding: 48 48 5
Width: 654
GlyphClass: 1
Flags: W
HStem: -12 75<223.237 386.279> 605 75<285.735 449.669>
VStem: 66 92<138.591 419.207> 514 92<249.488 526.9>
DStem2: 270 574 211 503 0.437417 -0.899259<38.0398 446.798>
LayerCount: 2
Fore
SplineSet
158 257 m 0
 158 128.82437682 206.859331248 63 302 63 c 0
 343.333333333 63 378.666666667 74.6666666669 408 98 c 1
 211 503 l 1
 179.938046642 447.778749586 158 345.953099134 158 257 c 0
465 172 m 1
 495.020148334 233.916555942 514 326.491750801 514 411 c 0
 514 486.782003311 495.263911211 543.160597757 459 576.5 c 0
 438.333333333 595.5 408.333333333 605 369 605 c 0
 330.999999999 605 298 594.666666667 270 574 c 1
 465 172 l 1
606 417 m 0
 606 156.886547556 482.779745023 -12 293 -12 c 0
 145.665910342 -12 66 80.30015163 66 251 c 0
 66 511.249494633 188.727640267 680 378 680 c 0
 526.847775155 680 606 588.697214324 606 417 c 0
EndSplineSet
Substitution2: "'zero' Slashed Zero lookup 0-1" zero.alt1
Substitution2: "'aalt' Access All Alternates lookup 0 subtable" zero.alt1
Substitution2: "'tnum' Tabular Numbers lookup 14 subtable" zero.tf
EndChar

StartChar: one
Encoding: 49 49 6
Width: 403
GlyphClass: 1
Flags: W
HStem: 0 21G<158 247.251> 503 68<101 245.236> 648 20G<310.623 385>
VStem: 158 85<0 85> 327 58<636.396 668>
DStem2: 158 0 243 0 0.207912 0.978148<17.6725 514.255>
LayerCount: 2
Fore
SplineSet
101 571 m 1
 226.326222589 571 294.245379084 600.15114239 327 668 c 1
 385 668 l 1
 243 0 l 1
 158 0 l 1
 265 503 l 1
 87 503 l 1
 101 571 l 1
EndSplineSet
Substitution2: "'tnum' Tabular Numbers lookup 14 subtable" one.tf
Substitution2: "'sups' Superscript lookup 9 subtable" uni00B9
AlternateSubs2: "'aalt' Access All Alternates lookup 1 subtable" uni00B9 one.tf
EndChar

StartChar: two
Encoding: 50 50 7
Width: 565
GlyphClass: 1
Flags: W
HStem: 0 77<131 463> 498 21G<109 183> 610 70<252.613 410.228>
VStem: 455 93<419.954 566.235>
LayerCount: 2
Fore
SplineSet
548 510 m 0
 548 368.233466476 424.625717612 240.125398673 131 77 c 1
 479 77 l 1
 463 0 l 1
 -18 0 l 1
 -2 76 l 1
 323.73136626 259.223893522 455 381.300850501 455 501 c 0
 455 565.072109994 408.011197608 610 341 610 c 0
 310.333333332 610 279.333333332 602.166666667 248 586.5 c 0
 216.666666667 570.833333333 192 541.333333333 174 498 c 1
 96 522 l 1
 143.333333333 627.333333333 226 680 344 680 c 0
 469.712912091 680 548 614.760760076 548 510 c 0
EndSplineSet
Substitution2: "'tnum' Tabular Numbers lookup 14 subtable" two.tf
Substitution2: "'sups' Superscript lookup 9 subtable" uni00B2
AlternateSubs2: "'aalt' Access All Alternates lookup 1 subtable" uni00B2 two.tf
EndChar

StartChar: three
Encoding: 51 51 8
Width: 580
GlyphClass: 1
Flags: W
HStem: -12 70<178.701 348.35> 315 75<230 352.652> 498 21G<106.6 181.496> 610 70<235.85 402.37>
VStem: 32 86<120.167 159.872> 416 89<120.633 262.535> 446 92<439.495 568.056>
LayerCount: 2
Fore
SplineSet
505 198 m 0xfc
 505 73.425374268 404.930275857 -12 259 -12 c 0
 191.666666667 -12 139.166666667 4.16666666667 101.5 36.5 c 0
 63.8333333332 68.8333333334 40.6666666667 109.333333333 32 158 c 1
 118 181 l 1
 129.478870554 102.082764944 180.729564757 58 261 58 c 0
 349.839925305 58 416 113.062255714 416 187 c 0xfc
 416 278.57472832 358.51636813 315 214 315 c 1
 230 390 l 1
 386.363057378 390 446 422.027246964 446 506 c 0
 446 569.367899675 395.991261139 610 318 610 c 0
 243.249561555 610 193.99119136 572.973574082 169 498 c 1
 91 523 l 1
 120.584963414 621.616544714 206.858604345 680 323 680 c 0
 455.136630642 680 538 618.334236757 538 520 c 0xfa
 538 437.080156982 490.454521933 376.151507311 403 347 c 1
 471.470932701 324.569866875 505 275.591131311 505 198 c 0xfc
EndSplineSet
Substitution2: "'tnum' Tabular Numbers lookup 14 subtable" three.tf
Substitution2: "'sups' Superscript lookup 9 subtable" uni00B3
AlternateSubs2: "'aalt' Access All Alternates lookup 1 subtable" uni00B3 three.tf
EndChar

StartChar: four
Encoding: 52 52 9
Width: 636
GlyphClass: 1
Flags: W
HStem: 0 21G<320 411.242> 165 79<127 356 459 566> 648 20G<441.811 549>
VStem: 320 87<0 87>
DStem2: 34 244 127 244 0.710419 0.703779<66.0689 503.773> 320 0 407 0 0.207912 0.978148<18.0883 168.879 267.568 564.471>
LayerCount: 2
Fore
SplineSet
127 244 m 1
 372 244 l 1
 438 552 l 1
 127 244 l 1
320 0 m 1
 356 165 l 1
 17 165 l 1
 34 244 l 1
 462 668 l 1
 549 668 l 1
 459 244 l 1
 583 244 l 1
 566 165 l 1
 442 165 l 1
 407 0 l 1
 320 0 l 1
EndSplineSet
Substitution2: "'tnum' Tabular Numbers lookup 14 subtable" four.tf
Substitution2: "'sups' Superscript lookup 9 subtable" uni2074
AlternateSubs2: "'aalt' Access All Alternates lookup 1 subtable" four.tf uni2074
EndChar

StartChar: five
Encoding: 53 53 10
Width: 575
GlyphClass: 1
Flags: W
HStem: -12 72<171.213 329.737> 377 73<206.589 358.16> 587 81<229 543>
VStem: 25 83<124.812 155.94> 410 91<142.503 324.137>
DStem2: 63 329 166 400 0.316228 0.948683<1.89737 42.6461 99.928 297.254>
LayerCount: 2
Fore
SplineSet
501 247 m 0
 501 93.6167285909 399.461137378 -12 252 -12 c 0
 186 -12 134.5 3.83333333333 97.5 35.5 c 0
 60.5000000002 67.1666666666 36.3333333333 106.666666667 25 154 c 1
 108 177 l 1
 128.346818679 101.971106129 173.200108751 62.8081588265 242 60 c 0
 344.256565112 57.3439853218 410 127.000719906 410 238 c 0
 410 327.885753407 361.945773117 377 274 377 c 0
 216.408472575 377 167.772514078 350.67075931 141 305 c 1
 63 329 l 1
 176 668 l 1
 561 668 l 1
 543 587 l 1
 229 587 l 1
 166 400 l 1
 202 433.333333333 247 450 301 450 c 0
 417.828018511 450 501 365.580438789 501 247 c 0
EndSplineSet
Substitution2: "'tnum' Tabular Numbers lookup 14 subtable" five.tf
Substitution2: "'aalt' Access All Alternates lookup 0 subtable" five.tf
EndChar

StartChar: six
Encoding: 54 54 11
Width: 605
GlyphClass: 1
Flags: W
HStem: -12 70<211.919 363.026> 370 75<237.01 388.496> 610 70<288.903 435.508>
VStem: 62 89<122.655 289.521> 444 90<141.293 313.515>
LayerCount: 2
Fore
SplineSet
151 205 m 0
 151 118.693769176 205.913410206 58 284 58 c 0
 377.404901991 58 444 130.422169085 444 232 c 0
 444 317.009051815 392.545021328 370 310 370 c 0
 215.170361162 370 151 303.408115776 151 205 c 0
534 240 m 0
 534 90.2631276838 431.331066254 -12 281 -12 c 0
 138.918705053 -12 62 75.8067409276 62 238 c 0
 62 494.595941161 192.034520905 680 372 680 c 0
 422.000000001 680 462 669.666666667 492 649 c 0
 522 628.333333333 542.333333333 603 553 573 c 1
 465 548 l 1
 449.452185244 588.989693447 414.886842206 610 363 610 c 0
 264.072058066 610 191.515283486 519.212880049 164 361 c 1
 200.201983116 414.578935013 262.492735232 445 336 445 c 0
 453.846857412 445 534 362.013160452 534 240 c 0
EndSplineSet
Substitution2: "'tnum' Tabular Numbers lookup 14 subtable" six.tf
Substitution2: "'aalt' Access All Alternates lookup 0 subtable" six.tf
EndChar

StartChar: seven
Encoding: 55 55 12
Width: 537
GlyphClass: 1
Flags: W
HStem: 0 21G<31 153.003> 587 81<96 445>
VStem: 31 108<0 108>
DStem2: 31 0 139 0 0.576355 0.817199<62.2464 718.307>
LayerCount: 2
Fore
SplineSet
31 0 m 1
 445 587 l 1
 78 587 l 1
 96 668 l 1
 567 668 l 1
 550 587 l 1
 139 0 l 1
 31 0 l 1
EndSplineSet
Substitution2: "'tnum' Tabular Numbers lookup 14 subtable" seven.tf
Substitution2: "'aalt' Access All Alternates lookup 0 subtable" seven.tf
EndChar

StartChar: eight
Encoding: 56 56 13
Width: 617
GlyphClass: 1
Flags: W
HStem: -12 75<181.28 371.012> 317 74<245.324 372.793> 605 75<264.483 391.867>
VStem: 38 91<110.006 249.561> 137 74<425.432 552.017> 427 74<443.586 570.385> 444 90<130.57 269.255>
LayerCount: 2
Fore
SplineSet
129 174 m 0xfa
 129 104.850125678 183.669083092 63 274 63 c 0
 377.21682948 63 444 117.997905134 444 203 c 0
 444 274.259274047 389.636795937 317 299 317 c 0
 249.666666667 317 209 304 177 278 c 0
 145 252 129 217.333333333 129 174 c 0xfa
211 487 m 0
 211 432.507979566 252.507979566 391 307 391 c 0
 371.594094631 391 427 445.482473613 427 509 c 0xfc
 427 564.223505222 385.373994914 605 329 605 c 0
 264.9605898 605 211 551.0394102 211 487 c 0
534 212 m 0xfa
 534 78.9471302599 425.188254868 -12 266 -12 c 0
 127.123228923 -12 38 57.5786611763 38 166 c 0
 38 215.333333333 51.5000000001 257 78.5 291 c 0
 105.5 325 139.666666667 349.666666667 181 365 c 1
 151.666666667 395.666666667 137 433.666666667 137 479 c 0
 137 587.227412216 229.772587784 680 338 680 c 0
 431.079770451 680 501 609.650811988 501 516 c 0xfc
 501 458.995790083 474.649478518 403.732890863 429 365 c 1
 496.386976468 338.325988481 534 283.518439905 534 212 c 0xfa
EndSplineSet
Substitution2: "'tnum' Tabular Numbers lookup 14 subtable" eight.tf
Substitution2: "'aalt' Access All Alternates lookup 0 subtable" eight.tf
EndChar

StartChar: nine
Encoding: 57 57 14
Width: 601
GlyphClass: 1
Flags: W
HStem: 0 21G<151 267.578> 209 79<237.558 334.062> 596 84<267.864 430.04>
VStem: 92 87<346.142 506.876> 151 116<0 116> 487 87<383.872 539.603>
DStem2: 151 0 267 0 0.657239 0.753682<76.2398 279.959>
LayerCount: 2
Fore
SplineSet
179 423 m 0xf4
 179 344.470369132 234.633771071 288 312 288 c 0
 405.249125038 288 487 371.61946639 487 467 c 0
 487 543.69701495 432.669767467 596 353 596 c 0
 254.635923722 596 179 520.798765495 179 423 c 0xf4
359 680 m 0
 482.171197923 680 574 589.452530045 574 468 c 0
 574 390.306888299 539.962262083 331.611891419 383.5 139.5 c 0
 341.032164488 87.3559488021 268.155388095 1.40297125791 267 0 c 2
 151 0 l 1xec
 335 211 l 1
 324.625450987 209.703181374 313.022958316 209 302 209 c 0
 177.890193216 209 92 293.663190455 92 416 c 0
 92 563.098703398 210.229720427 680 359 680 c 0
EndSplineSet
Substitution2: "'tnum' Tabular Numbers lookup 14 subtable" nine.tf
Substitution2: "'aalt' Access All Alternates lookup 0 subtable" nine.tf
EndChar

StartChar: A
Encoding: 65 65 15
Width: 627
GlyphClass: 2
Flags: W
HStem: 0 21G<-52 67.3699 459.123 565> 146 80<184 430> 648 20G<328.263 459.263>
VStem: 462 103<0 103>
DStem2: -52 0 56 0 0.506117 0.862465<54.6606 222.588>
AnchorPoint: "Anchor-2" 565 0 basechar 0
AnchorPoint: "Anchor-1" 387 668 basechar 0
AnchorPoint: "Anchor-0" 261 0 basechar 0
LayerCount: 2
Fore
SplineSet
184 226 m 1
 430 226 l 1
 381 573 l 1
 184 226 l 1
-52 0 m 1
 340 668 l 1
 456 668 l 1
 565 0 l 1
 462 0 l 1
 441 146 l 1
 139 146 l 1
 56 0 l 1
 -52 0 l 1
EndSplineSet
Substitution2: "Single Substitution lookup 12 subtable" ordfeminine
Substitution2: "'aalt' Access All Alternates lookup 0 subtable" ordfeminine
EndChar

StartChar: B
Encoding: 66 66 16
Width: 625
GlyphClass: 1
Flags: W
HStem: 0 79<127 394.344> 308 74<192 428.965> 588 80<235 472.231>
VStem: 468 104<147.196 272.532> 504 100<437.537 557.349>
DStem2: 14 0 110.208 0 0.207912 0.978148<100.768 334.951 410.661 621.099>
AnchorPoint: "Anchor-1" 342 668 basechar 0
LayerCount: 2
Fore
SplineSet
468 213 m 0xf0
 468 271.605590907 422.02811483 308 348 308 c 2
 176 308 l 1
 127 79 l 1
 308 79 l 2
 396.605066483 79 468 138.79325682 468 213 c 0xf0
504 499 m 0xe8
 504 553.121272599 463.242835396 588 400 588 c 2
 235 588 l 1
 192 382 l 1
 364 382 l 2
 444.11209219 382 504 432.049180098 504 499 c 0xe8
572 221 m 0xf0
 572 93.9346934062 456.388069654 0 300 0 c 2
 14 0 l 1
 156 668 l 1
 407 668 l 2
 491.519136618 668 552.593552128 641.453450077 583 591.5 c 0
 597 568.5 604 544 604 518 c 0xe8
 604 448.520663583 560.04991846 384.523176428 490 352 c 1
 541.855582526 331.763675113 572 283.606130124 572 221 c 0xf0
EndSplineSet
EndChar

StartChar: C
Encoding: 67 67 17
Width: 661
GlyphClass: 2
Flags: W
HStem: -12 79<242.067 427.344> 498 21G<555.568 625.333> 600 80<319.833 501.023>
VStem: 53 96<166.213 399.154>
AnchorPoint: "Anchor-1" 420 668 basechar 0
AnchorPoint: "Anchor-0" 295 0 basechar 0
LayerCount: 2
Fore
SplineSet
595 140 m 1
 533.590469441 40.6994825009 436.512475361 -12 315 -12 c 0
 150.970621697 -12 53 90.8317594147 53 263 c 0
 53 497.109083738 214.400137133 680 421 680 c 0
 542.292349467 680 624.208455752 626.789537798 655 528 c 1
 566 498 l 1
 545.136764857 563.19760982 489.211564094 600 411 600 c 0
 265.509388319 600 149 454.14091844 149 272 c 0
 149 148.695184451 219.1383047 67 325 67 c 0
 410.161407057 67 467.469663924 98.2044958858 516 171 c 1
 595 140 l 1
EndSplineSet
EndChar

StartChar: D
Encoding: 68 68 18
Width: 674
GlyphClass: 2
Flags: W
HStem: 0 79<127 354.383> 588 80<235 448.833>
DStem2: 14 0 110.208 0 0.207912 0.978148<100.768 621.099>
AnchorPoint: "Anchor-1" 378 668 basechar 0
AnchorPoint: "Anchor-0" 285 0 basechar 0
LayerCount: 2
Fore
SplineSet
127 79 m 1
 213 79 l 2
 399.403600983 79 509.239338301 162.651985698 536 325 c 0
 567.554907171 510.38507963 503.810333787 588 320 588 c 2
 235 588 l 1
 127 79 l 1
14 0 m 1
 156 668 l 1
 340 668 l 2
 575.110564527 668 669.979687835 554.222254177 631 319 c 0
 596.709124966 115.159798413 440.75604373 0 199 0 c 2
 14 0 l 1
EndSplineSet
EndChar

StartChar: E
Encoding: 69 69 19
Width: 565
GlyphClass: 2
Flags: W
HStem: 0 81<127 469> 304 80<192 439> 587 81<235 594>
DStem2: 14 0 109.783 0 0.207912 0.978148<102.724 330.831 412.617 620.121>
AnchorPoint: "Anchor-2" 438 0 basechar 0
AnchorPoint: "Anchor-1" 380 668 basechar 0
AnchorPoint: "Anchor-0" 230 0 basechar 0
LayerCount: 2
Fore
SplineSet
14 0 m 1
 156 668 l 1
 611 668 l 1
 594 587 l 1
 235 587 l 1
 192 384 l 1
 457 384 l 1
 439 304 l 1
 175 304 l 1
 127 81 l 1
 486 81 l 1
 469 0 l 1
 14 0 l 1
EndSplineSet
EndChar

StartChar: F
Encoding: 70 70 20
Width: 546
GlyphClass: 1
Flags: W
HStem: 0 21G<14 114.276> 304 80<192 514> 587 81<235 574>
VStem: 14 96<0 96>
DStem2: 14 0 110 0 0.207912 0.978148<19.9595 330.831 412.617 620.121>
AnchorPoint: "Anchor-1" 374 668 basechar 0
LayerCount: 2
Fore
SplineSet
14 0 m 1
 156 668 l 1
 592 668 l 1
 574 587 l 1
 235 587 l 1
 192 384 l 1
 531 384 l 1
 514 304 l 1
 175 304 l 1
 110 0 l 1
 14 0 l 1
EndSplineSet
EndChar

StartChar: G
Encoding: 71 71 21
Width: 712
GlyphClass: 2
Flags: W
HStem: 0 21G<523.537 585.302> 264 80<368 547> 498 21G<562.667 625.333> 600 80<318.382 501.735>
VStem: 54 96<168.784 401.009> 525 56<0 32.5405>
DStem2: 487.798 -12 579.33 -12 0.207912 0.978148<157.665 282.278>
AnchorPoint: "Anchor-1" 445 668 basechar 0
AnchorPoint: "Anchor-0" 303 0 basechar 0
LayerCount: 2
Fore
SplineSet
411 600 m 0
 264.058988225 600 150 457.098509006 150 273 c 0
 150 112.789845154 263.544172151 29.3652148521 412 80.5 c 0
 477.545108083 103.07664834 522.215087745 158.914122917 542 243 c 2
 547 264 l 1
 351 264 l 1
 368 344 l 1
 655 344 l 1
 581 0 l 1
 525 0 l 1
 519 82 l 1
 463 19.3333333333 390 -12 300 -12 c 0
 148.688539735 -12 54 94.6208353931 54 265 c 0
 54 499.767692794 212.083276682 680 418 680 c 0
 544.488386045 680 626.163269502 627.617796264 655 528 c 1
 566 498 l 1
 559.333333333 523.333333334 543.333333332 546.666666667 518 568 c 0
 492.666666667 589.333333333 457 600 411 600 c 0
EndSplineSet
EndChar

StartChar: H
Encoding: 72 72 22
Width: 694
GlyphClass: 1
Flags: W
HStem: 0 21G<14 114.276 460 560.251> 304 80<192 524> 648 20G<151.749 252 597.775 698>
VStem: 14 96<0 96> 156 96<572 668> 460 96<0 96> 602 96<572 668>
DStem2: 14 0 110 0 0.207912 0.978148<19.9595 330.831 412.617 682.926> 460 0 556 0 0.207912 0.978148<19.9595 310.663 392.657 682.926>
AnchorPoint: "Anchor-1" 417 668 basechar 0
LayerCount: 2
Fore
SplineSet
14 0 m 1
 156 668 l 1
 252 668 l 1
 192 384 l 1
 542 384 l 1
 602 668 l 1
 698 668 l 1
 556 0 l 1
 460 0 l 1
 524 304 l 1
 175 304 l 1
 110 0 l 1
 14 0 l 1
EndSplineSet
EndChar

StartChar: I
Encoding: 73 73 23
Width: 414
GlyphClass: 2
Flags: W
HStem: 0 75<20 113 209 285> 593 75<146 223 318 412>
DStem2: 97.0583 0 193.058 0 0.207912 0.978148<96.6351 606.226>
AnchorPoint: "Anchor-2" 196 0 basechar 0
AnchorPoint: "Anchor-1" 287 668 basechar 0
AnchorPoint: "Anchor-0" 150 0 basechar 0
LayerCount: 2
Fore
SplineSet
4 0 m 1
 20 75 l 1
 113 75 l 1
 223 593 l 1
 130 593 l 1
 146 668 l 1
 427 668 l 1
 412 593 l 1
 318 593 l 1
 209 75 l 1
 301 75 l 1
 285 0 l 1
 4 0 l 1
EndSplineSet
EndChar

StartChar: J
Encoding: 74 74 24
Width: 509
GlyphClass: 1
Flags: W
HStem: -12 77<107.266 250.602> 648 20G<412.736 513>
VStem: 417 96<572 668>
DStem2: 272.175 -12 368.387 -12 0.207912 0.978148<120.606 695.251>
AnchorPoint: "Anchor-1" 466 668 basechar 0
LayerCount: 2
Fore
SplineSet
78 166 m 0
 78 99.2709808453 110.913714277 65 175 65 c 0
 253.164699073 65 297.805655105 110.564562019 320 213 c 2
 417 668 l 1
 513 668 l 1
 416 212 l 2
 382.358454728 51.7079313486 310.402621553 -12 163 -12 c 0
 45.9702822899 -12 -20.5162967281 67.0016997743 -7 190 c 1
 83 214 l 1
 79.2217101685 189.441116095 78 177.712698478 78 166 c 0
EndSplineSet
EndChar

StartChar: K
Encoding: 75 75 25
Width: 623
GlyphClass: 2
Flags: W
HStem: 0 21G<14 114.286 435.815 551> 648 20G<151.749 252 517.895 670>
VStem: 14 96<0 96> 156 96<572 668> 540 130<538 668>
DStem2: 14 0 110 0 0.207912 0.978148<19.9595 234.727 372.598 682.926> 183 345 281 324 0.747249 0.664544<0 59.275 152.12 481.416> 351 385 281 324 0.46099 -0.887405<21.8624 385.445>
AnchorPoint: "Anchor-1" 401 668 basechar 0
AnchorPoint: "Anchor-0" 259 0 basechar 0
LayerCount: 2
Fore
SplineSet
14 0 m 1
 156 668 l 1
 252 668 l 1
 183 345 l 1
 540 668 l 1
 670 668 l 1
 351 385 l 1
 551 0 l 1
 446 0 l 1
 281 324 l 1
 155 210 l 1
 110 0 l 1
 14 0 l 1
EndSplineSet
EndChar

StartChar: L
Encoding: 76 76 26
Width: 541
GlyphClass: 2
Flags: W
HStem: 0 81<127 469> 648 20G<151.749 252>
VStem: 156 96<572 668>
DStem2: 14 0 109.783 0 0.207912 0.978148<102.724 682.926>
AnchorPoint: "Anchor-1" 224 668 basechar 0
AnchorPoint: "Anchor-0" 218 0 basechar 0
LayerCount: 2
Fore
SplineSet
14 0 m 1
 156 668 l 1
 252 668 l 1
 127 81 l 1
 486 81 l 1
 469 0 l 1
 14 0 l 1
EndSplineSet
EndChar

StartChar: M
Encoding: 77 77 27
Width: 824
GlyphClass: 1
Flags: W
HStem: 0 21G<14 114.278 302.496 411.055 590 690.251> 648 20G<151.749 314.288 655.225 828>
VStem: 14 96<0 96> 590 96<0 96>
DStem2: 14 0 110 0 0.207912 0.978148<19.9595 607.968> 312 668 233 575 0.124247 -0.992251<82.4638 545.504> 374 126 400 0 0.483781 0.875189<0 541.023> 590 0 686 0 0.207912 0.978148<19.9595 571.526>
AnchorPoint: "Anchor-1" 473 668 basechar 0
LayerCount: 2
Fore
SplineSet
14 0 m 1
 156 668 l 1
 312 668 l 1
 374 126 l 1
 666 668 l 1
 828 668 l 1
 686 0 l 1
 590 0 l 1
 709 559 l 1
 400 0 l 1
 305 0 l 1
 233 575 l 1
 110 0 l 1
 14 0 l 1
EndSplineSet
EndChar

StartChar: N
Encoding: 78 78 28
Width: 693
GlyphClass: 2
Flags: W
HStem: 0 21G<14 114.271 411.576 559.251> 648 20G<151.749 299.481 596.749 697>
VStem: 14 96<0 96> 601 96<572 668>
DStem2: 14 0 110 0 0.207912 0.978148<19.9595 608.946> 293 668 233 576 0.305795 -0.952097<69.2452 603.382> 459.02 0 555 0 0.207912 0.978148<96.1 682.922>
AnchorPoint: "Anchor-1" 436 668 basechar 0
AnchorPoint: "Anchor-0" 264 0 basechar 0
LayerCount: 2
Fore
SplineSet
14 0 m 1
 156 668 l 1
 293 668 l 1
 479 94 l 1
 601 668 l 1
 697 668 l 1
 555 0 l 1
 418 0 l 1
 233 576 l 1
 110 0 l 1
 14 0 l 1
EndSplineSet
EndChar

StartChar: O
Encoding: 79 79 29
Width: 728
GlyphClass: 2
Flags: W
HStem: -12 79<242.275 419.461> 600 80<321.883 502.991>
VStem: 55 95<164.793 403.1> 596 95<266.081 503.123>
AnchorPoint: "Anchor-2" 604 10 basechar 0
AnchorPoint: "Anchor-1" 438 668 basechar 0
AnchorPoint: "Anchor-0" 311 0 basechar 0
LayerCount: 2
Fore
SplineSet
150 269 m 0
 150 146.593002483 218.954333835 67 325 67 c 0
 479.785689803 67 596 209.373250869 596 399 c 0
 596 520.869240489 526.711374756 600 420 600 c 0
 264.304802558 600 150 459.870779086 150 269 c 0
691 401 m 0
 691 163.855956194 529.621289595 -12 312 -12 c 0
 156.830809161 -12 55 98.9440722375 55 268 c 0
 55 507.988015835 212.816820423 680 433 680 c 0
 588.052617211 680 691 568.673179077 691 401 c 0
EndSplineSet
Substitution2: "Single Substitution lookup 12 subtable" ordmasculine
Substitution2: "'aalt' Access All Alternates lookup 0 subtable" ordmasculine
EndChar

StartChar: P
Encoding: 80 80 30
Width: 597
GlyphClass: 1
Flags: W
HStem: 0 21G<14 114.226> 265 81<184 433.13> 588 80<235 463.43>
VStem: 14 96<0 96> 503 98<405.682 552.731>
DStem2: 14 0 110 0 0.207912 0.978148<19.9595 290.812 373.784 621.099>
AnchorPoint: "Anchor-1" 349 668 basechar 0
LayerCount: 2
Fore
SplineSet
311 346 m 2
 443.196663668 346 503 390.229550829 503 488 c 0
 503 528 489.166666667 554.666666667 461.5 568 c 0
 433.833333332 581.333333333 396.999999999 588 351 588 c 2
 235 588 l 1
 184 346 l 1
 311 346 l 2
601 497 m 0
 601 339.802746048 499.758352332 265 287 265 c 2
 166 265 l 1
 110 0 l 1
 14 0 l 1
 156 668 l 1
 342 668 l 2
 519.577312393 668 601 614.242163781 601 497 c 0
EndSplineSet
EndChar

StartChar: Q
Encoding: 81 81 31
Width: 748
GlyphClass: 1
Flags: W
HStem: 5 79<245.275 430.782> 617 79<328.075 509.248>
VStem: 58 95<181.793 419.84> 599 95<286.083 519.765>
DStem2: 399 344 328 284 0.648755 -0.760997<0 202.829 288.444 443.298>
LayerCount: 2
Fore
SplineSet
153 286 m 0
 153 163.593002483 221.954333835 84 328 84 c 0
 378.666666667 84 424 97.3333333332 464 124 c 1
 328 284 l 1
 399 344 l 1
 531 190 l 1
 572.711773136 249.407676887 599 336.390780482 599 415 c 0
 599 537.880289438 530.06401456 617 423 617 c 0
 267.810641235 617 153 476.250658338 153 286 c 0
694 418 m 0
 694 311.187718964 653.468610315 198.388096726 588 123 c 1
 687 7 l 1
 617 -55 l 1
 517 62 l 1
 460.595130736 23.9267132471 393.521515369 5 315 5 c 0
 159.830809161 5 58 115.944072237 58 285 c 0
 58 524.598123864 215.639681702 696 436 696 c 0
 590.927043583 696 694 584.936891922 694 418 c 0
EndSplineSet
EndChar

StartChar: R
Encoding: 82 82 32
Width: 610
GlyphClass: 2
Flags: W
HStem: 0 21G<14 114.27 402.822 518> 281 79<187 270> 588 80<235 466.657>
VStem: 14 96<0 96> 503 98<416.125 555.009>
DStem2: 14 0 110 0 0.207912 0.978148<19.9595 307.294 388.102 621.099> 371 288 270 281 0.454621 -0.890685<0 275.611>
AnchorPoint: "Anchor-1" 374 668 basechar 0
AnchorPoint: "Anchor-0" 252 0 basechar 0
LayerCount: 2
Fore
SplineSet
503 495 m 0
 503 561.179144021 459.452158572 588 352 588 c 2
 235 588 l 1
 187 360 l 1
 311 360 l 2
 446.980884846 360 503 399.388440342 503 495 c 0
601 508 m 0
 601 379.462643332 519.931466459 301.918828641 371 288 c 1
 518 0 l 1
 413 0 l 1
 270 281 l 1
 170 281 l 1
 110 0 l 1
 14 0 l 1
 156 668 l 1
 360 668 l 2
 523.557272287 668 601 616.585740937 601 508 c 0
EndSplineSet
EndChar

StartChar: S
Encoding: 83 83 33
Width: 609
GlyphClass: 2
Flags: W
HStem: -12 79<200.079 382.697> 601 79<231.218 414.883>
VStem: 87 95<431.746 557.573> 446 98<122.727 255.398>
AnchorPoint: "Anchor-1" 356 668 basechar 0
AnchorPoint: "Anchor-0" 277 0 basechar 0
LayerCount: 2
Fore
SplineSet
544 197 m 0
 544 77.5824107805 432.986390468 -12 285 -12 c 0
 165.061288531 -12 70.7563402731 48.2188223816 36 147 c 1
 127 172 l 1
 149.794915931 107.214449461 213.372045555 67 293 67 c 0
 381.674532154 67 446 116.190063647 446 184 c 0
 446 387.6776298 87 291.3223702 87 495 c 0
 87 604.210970857 184.091891389 680 324 680 c 0
 432.996846481 680 526.84410735 630.502499541 561 555 c 1
 469 529 l 1
 446.681104319 572.397852713 387.490549517 601 320 601 c 0
 236.162400978 601 182 560.57443985 182 498 c 0
 182 306.740902684 544 388.259097316 544 197 c 0
EndSplineSet
EndChar

StartChar: T
Encoding: 84 84 34
Width: 558
GlyphClass: 2
Flags: W
HStem: 0 21G<169 270.191> 587 81<90 293 389 611>
VStem: 169 97<0 97>
DStem2: 169 0 266 0 0.207912 0.978148<20.1674 599.954>
AnchorPoint: "Anchor-1" 356 668 basechar 0
AnchorPoint: "Anchor-0" 218 0 basechar 0
LayerCount: 2
Fore
SplineSet
169 0 m 1
 293 587 l 1
 73 587 l 1
 90 668 l 1
 628 668 l 1
 611 587 l 1
 389 587 l 1
 266 0 l 1
 169 0 l 1
EndSplineSet
EndChar

StartChar: U
Encoding: 85 85 35
Width: 693
GlyphClass: 2
Flags: W
HStem: -12 81<200.988 400.316> 648 20G<152.722 253 596.707 697>
VStem: 61 98<109.68 318.938> 157 96<572 668> 601 96<572 668>
DStem2: 11.9335 -12 108.634 -12 0.207912 0.978148<225.354 695.301> 455.634 -12 551.933 -12 0.207912 0.978148<158.358 695.364>
AnchorPoint: "Anchor-2" 352 0 basechar 0
AnchorPoint: "Anchor-1" 415 668 basechar 0
AnchorPoint: "Anchor-0" 294 0 basechar 0
LayerCount: 2
Fore
SplineSet
159 186 m 0xe8
 159 104.239394814 198.757265944 69 291 69 c 0
 421.650947255 69 484.020680972 125.271359754 516 272 c 2
 601 668 l 1
 697 668 l 1
 614 280 l 2
 570.224900795 71.547146641 476.377421006 -12 286 -12 c 0
 133.663584648 -12 61 48.3915125744 61 175 c 0xe8
 61 203.357376956 65.257409476 237.7441458 74 280 c 2
 157 668 l 1
 253 668 l 1xd8
 169 272 l 2
 162.333333333 238.666666664 159 209.999999999 159 186 c 0xe8
EndSplineSet
EndChar

StartChar: V
Encoding: 86 86 36
Width: 592
GlyphClass: 1
Flags: W
HStem: 0 21G<175.365 301.138> 648 20G<90 191.222 540.247 662>
VStem: 90 99<569 668>
DStem2: 189 668 90 668 0.130608 -0.991434<0 561.318> 251 110 290 0 0.486531 0.873663<0 633.463>
LayerCount: 2
Fore
SplineSet
178 0 m 1
 90 668 l 1
 189 668 l 1
 251 110 l 1
 551 668 l 1
 662 668 l 1
 290 0 l 1
 178 0 l 1
EndSplineSet
EndChar

StartChar: W
Encoding: 87 87 37
Width: 844
GlyphClass: 1
Flags: W
HStem: 0 21G<115.222 235.893 482.601 613.281> 648 20G<90 190.444 427.333 549.181 794.926 914>
VStem: 90 100<488.154 668> 116 86<128 179.846> 472 77<200.364 551> 483 71<117 350.636>
DStem2: 202 128 227 0 0.406292 0.913743<0 496.212> 554 117 604 0 0.420952 0.907083<0 605.041>
AnchorPoint: "Anchor-1" 488 668 basechar 0
LayerCount: 2
Fore
SplineSet
116 0 m 1xd8
 90 668 l 1
 190 668 l 1xe0
 202 128 l 1
 436 668 l 1
 549 668 l 1xd8
 554 117 l 1
 804 668 l 1
 914 668 l 1
 604 0 l 1
 483 0 l 1xc4
 472 551 l 1
 227 0 l 1
 116 0 l 1xd8
EndSplineSet
EndChar

StartChar: X
Encoding: 88 88 38
Width: 624
GlyphClass: 1
Flags: W
HStem: 0 21G<-52 91.4848 439 552> 648 20G<116 227.878 547.469 691>
VStem: -52 125<0 125> 566 125<543 668>
DStem2: -52 0 73 0 0.679101 0.734045<84.8876 444.376 576.029 910.026> 218 668 116 668 0.447214 -0.894427<0 273.248 405.623 700.784>
LayerCount: 2
Fore
SplineSet
-52 0 m 1
 274 351 l 1
 116 668 l 1
 218 668 l 1
 339 423 l 1
 566 668 l 1
 691 668 l 1
 383 336 l 1
 552 0 l 1
 449 0 l 1
 317 264 l 1
 73 0 l 1
 -52 0 l 1
EndSplineSet
EndChar

StartChar: Y
Encoding: 89 89 39
Width: 598
GlyphClass: 2
Flags: W
HStem: 0 21G<177 278.25> 648 20G<90 192.172 538.332 668>
VStem: 90 96<572 668> 177 97<0 97> 554 114<554 668>
DStem2: 186 668 90 668 0.308885 -0.951099<0 352.645> 177 0 274 0 0.207912 0.978148<20.1674 245.567> 290 331 325 240 0.625362 0.780335<0 428.068>
AnchorPoint: "Anchor-1" 362 668 basechar 0
AnchorPoint: "Anchor-0" 246 0 basechar 0
LayerCount: 2
Fore
SplineSet
177 0 m 1xd8
 229 240 l 1
 90 668 l 1
 186 668 l 1xe8
 290 331 l 1
 554 668 l 1
 668 668 l 1
 325 240 l 1
 274 0 l 1
 177 0 l 1xd8
EndSplineSet
EndChar

StartChar: Z
Encoding: 90 90 40
Width: 613
GlyphClass: 2
Flags: W
HStem: 0 81<123 506> 587 81<145 500>
DStem2: -1 81 123 81 0.703587 0.710609<87.2448 712.065>
AnchorPoint: "Anchor-1" 388 668 basechar 0
AnchorPoint: "Anchor-0" 254 0 basechar 0
LayerCount: 2
Fore
SplineSet
-18 0 m 1
 -1 81 l 1
 500 587 l 1
 128 587 l 1
 145 668 l 1
 640 668 l 1
 623 587 l 1
 123 81 l 1
 524 81 l 1
 506 0 l 1
 -18 0 l 1
EndSplineSet
EndChar

StartChar: a
Encoding: 97 97 41
Width: 521
GlyphClass: 2
Flags: W
HStem: -12 69<117.816 256.344> 0 21G<327.73 410.48> 436 68<205.891 355.459>
VStem: 5 94<76.5144 182.013> 329 79<0 63> 377 85<309.295 413.947>
AnchorPoint: "Anchor-2" 408 0 basechar 0
AnchorPoint: "Anchor-1" 311 496 basechar 0
AnchorPoint: "Anchor-0" 208 0 basechar 0
LayerCount: 2
Fore
SplineSet
99 125 m 0xb0
 99 83.2248938621 130.624136716 57 181 57 c 0
 272.158565871 57 341.574161618 122.125867919 359 224 c 2
 362 241 l 1
 152.481858594 220.805480346 99 197.216523704 99 125 c 0xb0
325 63 m 1
 277.832894856 10.11566999 227.409167279 -12 154 -12 c 0
 65.2887117306 -12 5 40.196267203 5 117 c 0
 5 219.675216117 96.8905544244 278.562824938 289 299 c 0
 320.333333333 302.333333333 347.333333333 305.333333333 370 308 c 1
 375.200649375 332.269697081 377 344.865151458 377 357 c 0
 377 409.666666667 346.333333333 436 285 436 c 0
 225.961611349 436 181.684109944 409.154585762 158 359 c 1
 83 382 l 1
 119.6679603 460.977145261 189.491937663 504 281 504 c 0
 400.698329647 504 462 455.568293588 462 361 c 0xb4
 462 283.392322856 412.960748941 173.626212947 408 0 c 1
 329 0 l 1x78
 325 63 l 1
EndSplineSet
Substitution2: "Single Substitution lookup 12 subtable" ordfeminine
Substitution2: "'aalt' Access All Alternates lookup 0 subtable" ordfeminine
EndChar

StartChar: b
Encoding: 98 98 42
Width: 555
GlyphClass: 1
Flags: W
HStem: -12 72<191.671 323.269> 0 21G<7 81> 432 72<242.378 373.277> 648 20G<144.749 235>
VStem: 149 86<582 668> 419 90<177.013 383.868>
DStem2: 4.46154 -12 90.05 -12 0.207912 0.978148<469.669 695.192>
AnchorPoint: "Anchor-1" 333 496 basechar 0
AnchorPoint: "Anchor-0" 266 -12 basechar 0
LayerCount: 2
Fore
SplineSet
138 211 m 0xbc
 138 120.442792788 185.633724118 60 257 60 c 0
 348.346280394 60 419 160.74697055 419 291 c 0
 419 381.421702566 378.824331117 432 307 432 c 0
 214.32637325 432 138 332.188588828 138 211 c 0xbc
509 293 m 0
 509 119.778283152 404.009433423 -12 266 -12 c 0xbc
 196.877245061 -12 145.507487932 19.3555660402 112 82 c 1
 71 0 l 1
 7 0 l 1x7c
 149 668 l 1
 235 668 l 1
 184 430 l 1
 221.953872562 479.116776256 269.030241807 504 324 504 c 0
 409.547357549 504 466.367858496 466.626991936 492 393.5 c 0
 503.333333333 361.166666666 509 327.666666666 509 293 c 0
EndSplineSet
EndChar

StartChar: c
Encoding: 99 99 43
Width: 495
GlyphClass: 2
Flags: W
HStem: -12 74<163.778 319.339> 430 74<214.925 366.356>
VStem: 26 92<110.648 310.484>
AnchorPoint: "Anchor-1" 301 496 basechar 0
AnchorPoint: "Anchor-0" 195 0 basechar 0
LayerCount: 2
Fore
SplineSet
436 99 m 1
 392.117609194 28.0137795783 314.973926043 -12 222 -12 c 0
 99.3040979409 -12 26 64.2961019384 26 192 c 0
 26 371.772983536 141.274834866 504 298 504 c 0
 386.705960902 504 448.88232273 466.694182903 483 393 c 1
 400 364 l 1
 386.624366962 404.126899113 345.070598871 430 294 430 c 0
 190.952835984 430 118 333.420393271 118 197 c 0
 118 108.633845025 160.488614356 62 241 62 c 0
 291.915601796 62 333.205541237 83.6439198679 365 127 c 1
 436 99 l 1
EndSplineSet
EndChar

StartChar: d
Encoding: 100 100 44
Width: 555
GlyphClass: 2
Flags: W
HStem: -12 72<164.703 297.551> 0 21G<359.361 442.333> 432 72<213.129 348.573> 648 20G<476.778 567>
VStem: 27 90<109.959 314.605> 398 44<0 281>
DStem2: 336.852 -12 424.718 -12 0.207912 0.978148<419.16 695.11>
AnchorPoint: "Anchor-1" 271 496 basechar 0
AnchorPoint: "Anchor-0" 225 0 basechar 0
LayerCount: 2
Fore
SplineSet
280 432 m 0xbc
 187.266206878 432 117 331.558121456 117 199 c 0
 117 152.333333333 127.833333333 117.5 149.5 94.5 c 0
 171.166666667 71.5 196.666666667 60 226 60 c 0
 324.302887909 60 398 154.692219606 398 281 c 0
 398 376.816886095 354.876771915 432 280 432 c 0xbc
356 61 m 1
 316.878041785 10.9238934853 269.460125123 -12 205 -12 c 0xbc
 96.5955910746 -12 27 70.1071580093 27 198 c 0
 27 372.599514831 131.776857455 504 271 504 c 0
 344.779334211 504 403.728099988 463.159678612 424 398 c 1
 481 668 l 1
 567 668 l 1
 561.5 641.5 l 2
 560.404973916 636.223965232 469.844575386 219.751081637 451.5 114 c 0
 445.833333334 81.333333337 442.666666667 43.3333333382 442 0 c 1
 361 0 l 1x7c
 356 61 l 1
EndSplineSet
EndChar

StartChar: e
Encoding: 101 101 45
Width: 542
GlyphClass: 2
Flags: W
HStem: -12 74<167.322 334.588> 225 68<128 421.965> 432 72<214.764 372.899>
VStem: 27 88<114.416 224.058> 422 87<293.224 383.825>
AnchorPoint: "Anchor-2" 337 10 basechar 0
AnchorPoint: "Anchor-1" 321 496 basechar 0
AnchorPoint: "Anchor-0" 218 0 basechar 0
LayerCount: 2
Fore
SplineSet
422 310 m 2
 422 384.733871604 373.571589758 432 297 432 c 0
 214.875622117 432 146.367318626 375.652933815 128 293 c 1
 421 293 l 2
 421.666666667 296.333333331 422 299.333333331 422 302 c 2
 422 310 l 2
449 87 m 1
 398.839174981 22.085991152 326.191254445 -12 238 -12 c 0
 172.666666667 -12 121.166666667 7 83.5 45 c 0
 45.8333333332 83.0000000001 27 134.333333333 27 199 c 0
 27 379.903715978 141.738203588 504 309 504 c 0
 432.071232112 504 509 425.532656755 509 300 c 0
 509 276 506 251 500 225 c 1
 116 225 l 1
 115.333333333 220.333333335 115 215.666666669 115 211 c 2
 115 197 l 2
 115 134.9168748 138.902350151 93.0877620357 185 74.5 c 0
 205.666666667 66.1666666667 226.666666667 62 248 62 c 0
 298.981810752 62 339.717779807 78.2281502739 371 111 c 1
 449 87 l 1
EndSplineSet
EndChar

StartChar: f
Encoding: 102 102 46
Width: 320
GlyphClass: 1
Flags: W
HStem: 0 21G<37 127.252> 428 68<59 128 228 315> 635 71<264.387 359>
VStem: 37 86<0 86>
DStem2: 37 0 123 0 0.207912 0.978148<17.8804 437.567 524.872 659.384>
AnchorPoint: "Anchor-1" 170 668 basechar 0
LayerCount: 2
Fore
SplineSet
37 0 m 1
 128 428 l 1
 44 428 l 1
 59 496 l 1
 142 496 l 1
 154 549 l 2
 184.795582976 679.881227645 209.942428407 703.242498253 323 706 c 2
 374 706 l 1
 359 635 l 1
 335 635 l 2
 274.961673505 635 256.550970243 620.591623534 243 563 c 2
 228 496 l 1
 330 496 l 1
 315 428 l 1
 214 428 l 1
 123 0 l 1
 37 0 l 1
EndSplineSet
EndChar

StartChar: g
Encoding: 103 103 47
Width: 555
GlyphClass: 2
Flags: W
HStem: -190 73<113.542 274.563> 16 73<174.101 303.82> 432 74<204.265 347.889> 476 20G<455.744 528>
VStem: 32 89<143.195 335.864>
AnchorPoint: "Anchor-1" 314 496 basechar 0
AnchorPoint: "Anchor-0" 172 -251 basechar 0
LayerCount: 2
Fore
SplineSet
121 226 m 0xe8
 121 141.909871795 170.047837357 89 248 89 c 0
 331.335668533 89 400 182.509977722 400 296 c 0
 400 377.944961754 350.714523952 432 276 432 c 0
 185.413721854 432 121 346.392085795 121 226 c 0xe8
266 506 m 0
 338.762534594 506 401.110687839 471.708515715 426 418 c 1
 466 496 l 1
 528 496 l 1xd8
 518.226241034 450.389124827 439.82952969 77.3879172001 421 -6 c 0
 393.042767438 -129.810601346 314.207739854 -190 180 -190 c 0
 92.4930552486 -190 19.3599047429 -145.484169257 -4 -78 c 1
 86 -53 l 1
 94.0538015879 -91.6582476223 133.650289678 -117 186 -117 c 0
 275.258299384 -117 318.686265086 -78.0261846268 342 23 c 2
 355 80 l 1
 323.104646641 39.1739477002 273.860007778 16 219 16 c 0
 108.895447429 16 32 100.708353852 32 222 c 0
 32 386.96391189 130.079030344 506 266 506 c 0
EndSplineSet
EndChar

StartChar: h
Encoding: 104 104 48
Width: 548
GlyphClass: 1
Flags: W
HStem: 0 21G<7 97.2023 333 422.306> 430 74<250.421 383.778> 648 20G<144.749 235>
VStem: 7 86<0 86> 149 86<582 668> 333 85<0 85> 401 88<230.688 413.235>
DStem2: 7 0 93 0 0.207912 0.978148<17.8804 398.749 454.469 682.926> 333 0 418 0 0.207912 0.978148<17.6725 357.586>
AnchorPoint: "Anchor-1" 190 668 basechar 0
LayerCount: 2
Fore
SplineSet
401 352 m 0xfa
 401 407.375564059 376.925279704 430 318 430 c 0
 230.635960235 430 171.340929979 370.011460618 147 257 c 2
 93 0 l 1
 7 0 l 1
 149 668 l 1
 235 668 l 1
 184 427 l 1
 200.666666667 448.333333333 222.166666668 466.5 248.5 481.5 c 0
 274.833333333 496.5 310.333333333 504 355 504 c 0
 443.099669749 504 489 456.729510637 489 366 c 0xfa
 489 343.333333333 486 317.333333333 480 288 c 2
 418 0 l 1
 333 0 l 1xfc
 392 280 l 2
 398 309.333333333 401 333.333333333 401 352 c 0xfa
EndSplineSet
EndChar

StartChar: i
Encoding: 105 105 49
Width: 270
GlyphClass: 1
Flags: W
HStem: 0 21G<46 136.234> 428 68<71 137> 591 125<182.301 276.583>
VStem: 46 86<0 86> 167 125<606.301 700.583>
DStem2: 46 0 132 0 0.207912 0.978148<17.8804 437.567>
AnchorPoint: "Anchor-2" 132 0 basechar 0
LayerCount: 2
Fore
SplineSet
46 0 m 1
 137 428 l 1
 57 428 l 1
 71 496 l 1
 237 496 l 1
 132 0 l 1
 46 0 l 1
292 653 m 0
 292 618.918069704 263.631638849 591 229 591 c 0
 195.298271178 591 167 619.298271178 167 653 c 0
 167 687.631638849 194.918069704 716 229 716 c 0
 264.015263795 716 292 688.015263795 292 653 c 0
EndSplineSet
Substitution2: "Single Substitution lookup 4 subtable" dotlessi
Substitution2: "Single Substitution lookup 3 subtable" dotlessi
EndChar

StartChar: j
Encoding: 106 106 50
Width: 258
GlyphClass: 1
Flags: W
HStem: -161 75<-138 -3.57346> 476 20G<128.735 219> 591 126<163.288 258.712>
VStem: 133 86<410 496> 148 126<606.288 701.712>
DStem2: -6.98484 -161 79.0779 -161 0.207912 0.978148<88.979 671.747>
LayerCount: 2
Fore
SplineSet
-85 -161 m 0xf0
 -105.980357007 -161 -128.282143019 -160.35357142 -154 -159 c 1
 -138 -86 l 1
 -106 -86 l 2
 -5.63949133228 -86 13.3851331804 -72.1511924503 30 13 c 2
 133 496 l 1
 219 496 l 1
 115 8 l 2
 86.0442982068 -133.882938787 53.9531015051 -161 -85 -161 c 0xf0
274 654 m 0xe8
 274 618.984736205 246.015263795 591 211 591 c 0
 175.984736205 591 148 618.984736205 148 654 c 0
 148 689.015263795 175.984736205 717 211 717 c 0
 246.015263795 717 274 689.015263795 274 654 c 0xe8
EndSplineSet
EndChar

StartChar: k
Encoding: 107 107 51
Width: 487
GlyphClass: 2
Flags: W
HStem: 0 21G<7 97.2169 310.741 415> 476 20G<365.725 500> 648 20G<144.749 235>
VStem: 7 86<0 86> 149 86<582 668> 388 112<384 496>
DStem2: 7 0 93 0 0.207912 0.978148<17.8804 187.53 309.127 682.926> 153 285 202 232 0.748075 0.663615<0 1.48408 87.1869 315.82> 266 289 202 232 0.458251 -0.888823<21.3348 282.074>
AnchorPoint: "Anchor-1" 360 796 basechar 0
AnchorPoint: "Anchor-0" 221 0 basechar 0
LayerCount: 2
Fore
SplineSet
7 0 m 1
 149 668 l 1
 235 668 l 1
 153 285 l 1
 388 496 l 1
 500 496 l 1
 266 289 l 1
 415 0 l 1
 321 0 l 1
 202 232 l 1
 128 166 l 1
 93 0 l 1
 7 0 l 1
EndSplineSet
EndChar

StartChar: l
Encoding: 108 108 52
Width: 259
GlyphClass: 2
Flags: W
HStem: 0 75<119.394 182> 648 20G<144.764 235>
VStem: 27 91<42.6868 191.188> 149 86<582 668>
DStem2: 7.43043 0 93.2421 0 0.207912 0.978148<125.045 682.837>
AnchorPoint: "Anchor-1" 205 668 basechar 0
AnchorPoint: "Anchor-0" 97 0 basechar 0
LayerCount: 2
Fore
SplineSet
118 104 m 0
 118 82.8711002841 129.670941801 75 161 75 c 2
 198 75 l 1
 182 0 l 1
 126 0 l 2
 54.1489288057 0 27 18.3735174745 27 67 c 0
 27 85 29.3333333333 104.333333333 34 125 c 2
 149 668 l 1
 235 668 l 1
 123 140 l 2
 118.773502692 116.754264807 118 111.185045424 118 104 c 0
EndSplineSet
EndChar

StartChar: m
Encoding: 109 109 53
Width: 846
GlyphClass: 1
Flags: W
HStem: 0 21G<8 98.2222 319 409.222 630 720.2> 431 73<247.032 373.235 552.154 684.65> 476 20G<108.766 178.739>
VStem: 8 86<0 86> 113 64<462.933 496> 319 86<0 86> 630 86<0 86> 700 88<239.195 416.79>
DStem2: 8 0 94 0 0.207912 0.978148<17.8804 402.897> 319 0 405 0 0.207912 0.978148<17.8804 362.863> 630 0 716 0 0.207912 0.978148<17.8804 364.819>
AnchorPoint: "Anchor-1" 469 496 basechar 0
LayerCount: 2
Fore
SplineSet
389 357 m 0xdd
 389 408.176201515 365.559342096 431 313 431 c 0xdd
 232.226063553 431 173.1921566 372.33049988 151 270 c 2
 94 0 l 1
 8 0 l 1
 113 496 l 1
 177 496 l 1xbd
 183 427 l 1
 227.745301455 481.002950032 274.934053338 504 341 504 c 0
 412.696447165 504 454.274982894 476.694692955 475 416 c 1
 520.697567145 476.518399733 575.660767678 504 651 504 c 0
 741.718836624 504 788 459.407930178 788 372 c 0xdd
 788 352 785 328 779 300 c 2
 716 0 l 1
 630 0 l 1xde
 691 289 l 2
 697 316.333333333 700 339.666666667 700 359 c 0
 700 409.149054347 677.238598278 431 625 431 c 0
 542.861567078 431 485.29425872 374.139038984 462 270 c 2
 405 0 l 1
 319 0 l 1
 380 289 l 2
 386 315 389 337.666666667 389 357 c 0xdd
EndSplineSet
EndChar

StartChar: n
Encoding: 110 110 54
Width: 550
GlyphClass: 2
Flags: W
HStem: 0 21G<8 98.2023 334 423.321> 430 74<250.936 384.215> 476 20G<108.766 178.739>
VStem: 8 86<0 86> 113 64<462.933 496> 334 85<0 85> 402 88<229.875 412.789>
DStem2: 8 0 94 0 0.207912 0.978148<17.8804 398.749> 334 0 419 0 0.207912 0.978148<17.6725 356.608>
AnchorPoint: "Anchor-1" 328 496 basechar 0
AnchorPoint: "Anchor-0" 212 0 basechar 0
LayerCount: 2
Fore
SplineSet
402 351 m 0xda
 402 407.368773048 378.222888139 430 319 430 c 0xda
 231.635960235 430 172.340929979 370.011460618 148 257 c 2
 94 0 l 1
 8 0 l 1
 113 496 l 1
 177 496 l 1xba
 183 427 l 1
 199.666666668 448.333333334 221.500000001 466.500000001 248.5 481.5 c 0
 275.5 496.5 311.333333333 504 356 504 c 0
 443.77983533 504 490 456.05520232 490 365 c 0xda
 490 342.333333333 487 316.333333333 481 287 c 2
 419 0 l 1
 334 0 l 1xdc
 393 279 l 2
 399 308.333333333 402 332.333333333 402 351 c 0xda
EndSplineSet
EndChar

StartChar: o
Encoding: 111 111 55
Width: 547
GlyphClass: 2
Flags: W
HStem: -12 74<164.388 311.968> 430 74<211.172 367.217>
VStem: 27 88<113.698 316.113> 413 89<183.264 387.516>
AnchorPoint: "Anchor-2" 441 10 basechar 0
AnchorPoint: "Anchor-1" 321 496 basechar 0
AnchorPoint: "Anchor-0" 221 0 basechar 0
LayerCount: 2
Fore
SplineSet
115 198 m 0
 115 112.382570697 160.196129595 62 237 62 c 0
 339.378376528 62 413 161.974818237 413 301 c 0
 413 349.666666667 401.166666667 383.333333333 377.5 402 c 0
 353.833333333 420.666666667 324.666666667 430 290 430 c 0
 186.314549468 430 115 335.457282991 115 198 c 0
502 298 m 0
 502 122.507603764 383.980425085 -12 230 -12 c 0
 103.064240718 -12 27 67.0618462638 27 199 c 0
 27 376.582361495 142.302518778 504 303 504 c 0
 423.378884901 504 502 422.613318038 502 298 c 0
EndSplineSet
Substitution2: "Single Substitution lookup 12 subtable" ordmasculine
Substitution2: "'aalt' Access All Alternates lookup 0 subtable" ordmasculine
EndChar

StartChar: p
Encoding: 112 112 56
Width: 556
GlyphClass: 1
Flags: W
HStem: -162 21G<-26 64.2353> -12 71<195.175 325.743> 432 72<240.992 374.462> 476 20G<109.745 178.515>
VStem: -26 86<-162 -76> 114 63<463.1 496> 420 90<178.044 382.762>
DStem2: -26 -162 60 -162 0.207912 0.978148<17.8804 278.535>
AnchorPoint: "Anchor-1" 328 496 basechar 0
LayerCount: 2
Fore
SplineSet
139 209 m 0xee
 139 119.855531339 188.090128613 59 260 59 c 0
 350.035118177 59 420 163.072761712 420 297 c 0
 420 381.540751799 377.763740395 432 307 432 c 0
 214.195726597 432 139 332.186624815 139 209 c 0xee
269 -12 m 0
 192.587171481 -12 137.476230449 25.3332181183 114 93 c 1
 60 -162 l 1
 -26 -162 l 1
 114 496 l 1
 177 496 l 1xde
 182 430 l 1
 215.19383699 478.131063635 267.281289941 504 331 504 c 0
 441.568998878 504 510 423.335523818 510 293 c 0
 510 118.473489413 406.904554267 -12 269 -12 c 0
EndSplineSet
EndChar

StartChar: q
Encoding: 113 113 57
Width: 555
GlyphClass: 1
Flags: W
HStem: -174 82<422.724 533.646> -12 72<162.24 296.967> 433 72<209.417 344.502> 476 20G<457.744 530>
VStem: 28 90<109.033 314.649> 328 90<-86.5864 48.1151>
LayerCount: 2
Fore
SplineSet
118 198 m 0xec
 118 109.098904326 158.559964444 60 232 60 c 0
 322.288536098 60 396 159.330692209 396 281 c 0
 396 375.840128486 350.873785647 433 276 433 c 0
 187.526170786 433 118 329.590821933 118 198 c 0xec
352 59 m 1
 326.771885154 15.9638040867 269.662707794 -12 207 -12 c 0
 96.7708020941 -12 28 68.6808292724 28 198 c 0
 28 374.717391132 131.122716466 505 271 505 c 0xec
 343.061382907 505 398.329671969 474.373623258 428 418 c 1
 468 496 l 1
 530 496 l 1xdc
 528.899860616 490.89535326 427.323316023 7.50880810688 422.5 -15 c 0
 419.5 -29 418 -40.6666666667 418 -50 c 0
 418 -77.5727085914 435.518853853 -92 469 -92 c 0
 489.666666667 -92 517 -86.6666666667 551 -76 c 1
 534 -154 l 1
 517.957741891 -165.229580677 479.806417838 -174 447 -174 c 0
 371.249579124 -174 328 -136.92893218 328 -72 c 0
 328 -54.5234670648 330.73638633 -36.6718038647 338.5 -3.5 c 0
 342.166666667 12.1666666669 346.666666667 33.0000000003 352 59 c 1
EndSplineSet
EndChar

StartChar: r
Encoding: 114 114 58
Width: 353
GlyphClass: 2
Flags: W
HStem: 0 21G<8 98.1951> 415 89<270.459 364> 476 20G<108.766 177.72>
VStem: 8 86<0 86> 113 63<462.933 496>
DStem2: 8 0 94 0 0.207912 0.978148<17.8804 361.96>
AnchorPoint: "Anchor-1" 240 496 basechar 0
AnchorPoint: "Anchor-0" 51 0 basechar 0
LayerCount: 2
Fore
SplineSet
184 403 m 1xb8
 235.086344503 475.509650261 288.117886591 504 372 504 c 2
 383 504 l 1
 364 415 l 1xd8
 289.252525116 417.669552674 231.156187563 393.362182956 195.5 344.5 c 0
 168.5 307.5 149 261 137 205 c 2
 94 0 l 1
 8 0 l 1
 113 496 l 1
 176 496 l 1
 184 403 l 1xb8
EndSplineSet
EndChar

StartChar: s
Encoding: 115 115 59
Width: 479
GlyphClass: 2
Flags: W
HStem: -12 68<140.743 291.651> 435 69<157.486 316.91>
VStem: 49 85<312.497 412.085> 325 88<88.76 195.032>
AnchorPoint: "Anchor-1" 260 496 basechar 0
AnchorPoint: "Anchor-0" 207 0 basechar 0
LayerCount: 2
Fore
SplineSet
413 143 m 0
 413 48.6485695654 334.743781206 -12 213 -12 c 0
 107.854194535 -12 43.013609097 27.9264688656 10 113 c 1
 96 142 l 1
 105.438164739 90.0900939378 153.005737675 56 216 56 c 0
 279.075725388 56 325 90.1272132441 325 137 c 0
 325 285.649908516 49 216.350091484 49 365 c 0
 49 446.7352311 127.687560143 504 240 504 c 0
 332.156789209 504 409.595842507 462.645112899 431 402 c 1
 351 374 l 1
 338.932790665 410.201628005 290.962169428 435 233 435 c 0
 173.478823708 435 134 409.079560192 134 370 c 0
 134 222.970042483 413 290.029957517 413 143 c 0
EndSplineSet
EndChar

StartChar: t
Encoding: 116 116 60
Width: 324
GlyphClass: 2
Flags: W
HStem: 0 75<153.327 222> 428 68<63 132 232 313>
VStem: 59 92<42.9377 189.18> 173 86<534 620>
DStem2: 40.3049 0 126.204 0 0.207912 0.978148<125.192 437.712 525.017 634.04>
AnchorPoint: "Anchor-1" 213 620 basechar 0
AnchorPoint: "Anchor-0" 109 0 basechar 0
LayerCount: 2
Fore
SplineSet
151 104 m 0
 151 82.2820917381 161.797584301 75 194 75 c 2
 238 75 l 1
 222 0 l 1
 160 0 l 2
 87.4538342063 0 59 18.8753157606 59 67 c 0
 59 81.6666666666 62.3333333333 104.333333333 69 135 c 2
 132 428 l 1
 49 428 l 1
 63 496 l 1
 146 496 l 1
 173 620 l 1
 259 620 l 1
 232 496 l 1
 327 496 l 1
 313 428 l 1
 218 428 l 1
 160 159 l 2
 154 132 151 113.666666667 151 104 c 0
EndSplineSet
EndChar

StartChar: u
Encoding: 117 117 61
Width: 540
GlyphClass: 2
Flags: W
HStem: -11 73<142.874 269.931> 0 21G<341.286 412.234> 476 20G<106.768 197 423.692 513>
VStem: 40 86<78.3147 263.312> 111 86<410 496> 343 65<0 33.0667> 428 85<411 496>
DStem2: 3.5129 -11 89.0878 -11 0.207912 0.978148<171.071 518.269> 319.499 -11 405.662 -11 0.207912 0.978148<133.398 518.48>
AnchorPoint: "Anchor-2" 408 0 basechar 0
AnchorPoint: "Anchor-1" 308 496 basechar 0
AnchorPoint: "Anchor-0" 217 0 basechar 0
LayerCount: 2
Fore
SplineSet
337 70 m 1x76
 292.936874558 12.1671478573 246.030550501 -11 173 -11 c 0
 124.333333333 -11 90.0000000001 2.33333333324 70 29 c 0
 50 55.6666666667 40 88.6666666667 40 128 c 0xb6
 40 152 43 177 49 203 c 2
 111 496 l 1
 197 496 l 1xae
 135 205 l 2
 129.037819193 178.170186368 126 155.21777469 126 137 c 0
 126 86.1931737281 150.838325028 62 203 62 c 0xb6
 289.511557333 62 347.397546823 121.598592729 372 236 c 2
 428 496 l 1
 513 496 l 1
 408 0 l 1
 343 0 l 1
 337 70 l 1x76
EndSplineSet
EndChar

StartChar: v
Encoding: 118 118 62
Width: 444
GlyphClass: 1
Flags: W
HStem: 0 21G<112.097 215.411> 476 20G<43 132.435 378.016 487>
VStem: 43 87<409 496>
DStem2: 130 496 43 496 0.143656 -0.989628<0 388.748> 177 110 204 0 0.495573 0.868566<0 440.328>
LayerCount: 2
Fore
SplineSet
115 0 m 1
 43 496 l 1
 130 496 l 1
 177 110 l 1
 389 496 l 1
 487 496 l 1
 204 0 l 1
 115 0 l 1
EndSplineSet
EndChar

StartChar: w
Encoding: 119 119 63
Width: 658
GlyphClass: 1
Flags: W
HStem: 0 21G<78.5081 163.65 368.85 462.04> 476 20G<43 130.95 309.391 410.093 595.383 701>
VStem: 43 87<402.162 496>
DStem2: 147 138 154 0 0.43456 0.900643<0 322.88> 409 496 347 400 0.0574052 -0.998351<92.2826 366.545> 429 130 452 0 0.448654 0.893705<0 406.059>
AnchorPoint: "Anchor-1" 360 496 basechar 0
LayerCount: 2
Fore
SplineSet
80 0 m 1
 43 496 l 1
 130 496 l 1
 147 138 l 1
 319 496 l 1
 409 496 l 1
 429 130 l 1
 605 496 l 1
 701 496 l 1
 452 0 l 1
 370 0 l 1
 347 400 l 1
 154 0 l 1
 80 0 l 1
EndSplineSet
EndChar

StartChar: x
Encoding: 120 120 64
Width: 462
GlyphClass: 1
Flags: W
HStem: 0 21G<-63 64.4865 299.054 399> 476 20G<61 161.058 377.404 505>
VStem: -63 109<0 109> 396 109<387 496>
DStem2: -63 0 46 0 0.679201 0.733952<74.033 325.958 442.295 675.794> 151 496 61 496 0.447214 -0.894427<0 191.407 307.683 514.296>
LayerCount: 2
Fore
SplineSet
-63 0 m 1
 179 262 l 1
 61 496 l 1
 151 496 l 1
 237 325 l 1
 396 496 l 1
 505 496 l 1
 275 248 l 1
 399 0 l 1
 309 0 l 1
 217 185 l 1
 46 0 l 1
 -63 0 l 1
EndSplineSet
EndChar

StartChar: y
Encoding: 121 121 65
Width: 435
GlyphClass: 2
Flags: W
HStem: -161 75<-46 75.5093> 476 20G<43 134.073 367.326 478>
VStem: 43 89<407 496>
DStem2: 172 110 191 -21 0.485356 0.874317<0 437.47>
AnchorPoint: "Anchor-1" 266 496 basechar 0
AnchorPoint: "Anchor-0" 165 0 basechar 0
LayerCount: 2
Fore
SplineSet
-62 -161 m 1
 -46 -86 l 1
 -12 -86 l 2
 65.2798509008 -86 78.4751539541 -77.134405761 116 0 c 1
 43 496 l 1
 132 496 l 1
 172 110 l 1
 378 496 l 1
 478 496 l 1
 191 -21 l 2
 123.377814748 -145.424820863 100.015046043 -161 -19 -161 c 2
 -62 -161 l 1
EndSplineSet
EndChar

StartChar: z
Encoding: 122 122 66
Width: 467
GlyphClass: 2
Flags: W
HStem: 0 73<101 375> 424 73<99 355>
DStem2: -6 73 101 73 0.716967 0.697107<76.7155 503.51>
AnchorPoint: "Anchor-1" 289 496 basechar 0
AnchorPoint: "Anchor-0" 181 0 basechar 0
LayerCount: 2
Fore
SplineSet
-21 0 m 1
 -6 73 l 1
 355 424 l 1
 83 424 l 1
 99 497 l 1
 476 497 l 1
 460 424 l 1
 101 73 l 1
 390 73 l 1
 375 0 l 1
 -21 0 l 1
EndSplineSet
EndChar

StartChar: circumflex
Encoding: 258 710 67
Width: 429
GlyphClass: 1
Flags: W
HStem: 575 120<345 347.422>
VStem: 114 96<575 671>
DStem2: 114 575 210 575 0.796393 0.60478<76.4537 177.057>
LayerCount: 2
Fore
SplineSet
114 575 m 1
 247 676 l 2
 263 688.666666667 281 695 301 695 c 0
 319.666666667 695 334.666666667 688.666666667 346 676 c 2
 437 575 l 1
 345 575 l 1
 290 636 l 1
 210 575 l 1
 114 575 l 1
EndSplineSet
EndChar

StartChar: caron
Encoding: 259 711 68
Width: 429
GlyphClass: 1
Flags: W
HStem: 562 120<225.578 227>
VStem: 362 97<585 682>
DStem2: 281 621 326 581 0.796393 0.60478<0 101.399>
LayerCount: 2
Fore
SplineSet
273 562 m 0
 253 562 237.666666667 568.333333333 227 581 c 2
 136 682 l 1
 227 682 l 1
 281 621 l 1
 362 682 l 1
 459 682 l 1
 326 581 l 2
 309.333333333 568.333333333 291.666666667 562 273 562 c 0
EndSplineSet
EndChar

StartChar: breve
Encoding: 260 728 69
Width: 400
GlyphClass: 1
Flags: W
HStem: 562 67<220.024 332.204>
VStem: 136 69<645.815 682>
LayerCount: 2
Fore
SplineSet
430 682 m 1
 398.810600949 606.625618964 337.450374874 562 265 562 c 0
 192.305659655 562 136 614.377357818 136 682 c 1
 205 682 l 1
 212.062019205 648.455408773 236.656592559 629 272 629 c 0
 307.625163394 629 338.501615418 647.387100644 361 682 c 1
 430 682 l 1
EndSplineSet
EndChar

StartChar: dotaccent
Encoding: 261 729 70
Width: 216
GlyphClass: 1
Flags: W
HStem: 583 108<139.373 225.41>
VStem: 128 108<594.373 680.41>
LayerCount: 2
Fore
SplineSet
236 637 m 0
 236 606.707428502 212.292571498 583 182 583 c 0
 152.355316064 583 128 607.355316064 128 637 c 0
 128 667.292571497 151.707428503 691 182 691 c 0
 212.931487911 691 236 667.931487911 236 637 c 0
EndSplineSet
EndChar

StartChar: ring
Encoding: 262 730 71
Width: 329
GlyphClass: 1
Flags: W
HStem: 552 58<201.226 285.087> 712 58<201.161 285.087>
VStem: 134 57<620.25 701.812> 295 57<619.952 702.048>
LayerCount: 2
Fore
SplineSet
191 661 m 0
 191 632.342977221 213.781074814 610 243 610 c 0
 272.218925186 610 295 632.342977222 295 661 c 0
 295 689.657022779 272.218925186 712 243 712 c 0
 213.781074814 712 191 689.657022778 191 661 c 0
352 661 m 0
 352 599.829576597 305.048030313 552 245 552 c 0
 184.178553145 552 134 601.274435071 134 661 c 0
 134 721.027450719 183.871128167 770 245 770 c 0
 305.048030313 770 352 722.170423403 352 661 c 0
EndSplineSet
EndChar

StartChar: ogonek
Encoding: 263 731 72
Width: 270
GlyphClass: 1
Flags: W
HStem: -173 57<48.4249 121.099> -20 20G<43.8196 155>
VStem: -30 77<-112.443 -51.1568>
LayerCount: 2
Fore
SplineSet
47 -89 m 0
 47 -105.012197079 63.685182213 -116 88 -116 c 0
 101.333333333 -116 116 -113 132 -107 c 1
 121 -161 l 1
 95 -169 72.6666666667 -173 54 -173 c 0
 2.89609282374 -173 -30 -146.761449772 -30 -106 c 0
 -30 -60.4110998961 11.6391998533 -18.7719000427 76 0 c 1
 155 0 l 1
 85.8317472275 -25.0183041947 47 -57.0185403359 47 -89 c 0
EndSplineSet
EndChar

StartChar: quoteleft
Encoding: 264 8216 73
Width: 238
GlyphClass: 1
Flags: W
HStem: 418 250
VStem: 95 129<434.583 530.944> 196 61<607 668>
DStem2: 105 517 181 543 0.516163 0.85649<61.4971 176.301>
LayerCount: 2
Fore
SplineSet
224 482 m 0xc0
 224 445.40070122 197.027434737 418 161 418 c 0
 123.67027801 418 95 446.235879858 95 483 c 0xc0
 95 495 98.3333333332 506.333333333 105 517 c 2
 196 668 l 1
 257 668 l 1xa0
 181 543 l 1
 209.666666667 532.333333333 224 512 224 482 c 0xc0
EndSplineSet
EndChar

StartChar: quoteright
Encoding: 265 8217 74
Width: 238
GlyphClass: 1
Flags: W
HStem: 429 251
VStem: 91 61<429 490> 123 130<567.531 662.82>
DStem2: 91 429 152 429 0.510955 0.859607<31.1683 146.632>
LayerCount: 2
Fore
SplineSet
188 680 m 0xa0
 225.275516388 680 253 652.702046905 253 616 c 0xa0
 253 603.999999999 247.666666666 589.333333332 237 572 c 2
 152 429 l 1
 91 429 l 1xc0
 166 555 l 1
 138.923316076 564.975620392 123 587.934820315 123 617 c 0
 123 650.88259999 153.041761915 680 188 680 c 0xa0
EndSplineSet
EndChar

StartChar: quotesinglbase
Encoding: 266 8218 75
Width: 239
GlyphClass: 1
Flags: W
HStem: -133 251
VStem: -28 61<-133 -72> 4 130<7.10938 101.023>
DStem2: -28 -133 33 -133 0.513637 0.858008<31.3319 145.774>
LayerCount: 2
Fore
SplineSet
67 118 m 0xa0
 105.225781889 118 134 90.0847137732 134 53 c 0xa0
 134 41.5212983438 129.199072612 27.1185161793 121 14 c 2
 33 -133 l 1
 -28 -133 l 1xc0
 47 -8 l 1
 19.7525494678 4.10997801436 4 26.456617957 4 53 c 0
 4 88.6391593193 32.4574301982 118 67 118 c 0xa0
EndSplineSet
EndChar

StartChar: quotedblleft
Encoding: 267 8220 76
Width: 395
GlyphClass: 1
Flags: W
HStem: 418 250
VStem: 95 129<434.583 530.944> 196 61<607 668> 252 129<434.583 530.944> 353 61<607 668>
DStem2: 105 517 181 543 0.516163 0.85649<61.4971 176.301> 262 517 338 543 0.516163 0.85649<61.4971 176.301>
LayerCount: 2
Fore
SplineSet
381 482 m 0x90
 381 445.40070122 354.027434737 418 318 418 c 0
 280.67027801 418 252 446.235879858 252 483 c 0x90
 252 495 255.333333333 506.333333333 262 517 c 2
 353 668 l 1
 414 668 l 1x88
 338 543 l 1
 366.666666667 532.333333333 381 512 381 482 c 0x90
224 482 m 0xc0
 224 445.40070122 197.027434737 418 161 418 c 0
 123.67027801 418 95 446.235879858 95 483 c 0xc0
 95 495 98.3333333332 506.333333333 105 517 c 2
 196 668 l 1
 257 668 l 1xa0
 181 543 l 1
 209.666666667 532.333333333 224 512 224 482 c 0xc0
EndSplineSet
EndChar

StartChar: quotedblright
Encoding: 268 8221 77
Width: 394
GlyphClass: 1
Flags: W
HStem: 429 250
VStem: 89 61<429 490> 122 129<566.056 662.417> 246 61<429 490> 279 129<566.056 662.417>
DStem2: 89 429 150 429 0.516163 0.85649<31.4859 146.29> 246 429 307 429 0.516163 0.85649<31.4859 146.29>
LayerCount: 2
Fore
SplineSet
185 679 m 0xa0
 222.32972199 679 251 650.764120142 251 614 c 0xa0
 251 602 247.666666667 590.666666667 241 580 c 2
 150 429 l 1
 89 429 l 1xc0
 165 554 l 1
 136.333333333 564.666666667 122 585 122 615 c 0
 122 650.959367918 149.602497206 679 185 679 c 0xa0
342 679 m 0
 379.32972199 679 408 650.764120142 408 614 c 0x88
 408 602 404.666666667 590.666666667 398 580 c 2
 307 429 l 1
 246 429 l 1x90
 322 554 l 1
 293.333333333 564.666666667 279 585 279 615 c 0x88
 279 650.959367918 306.602497206 679 342 679 c 0
EndSplineSet
EndChar

StartChar: dagger
Encoding: 270 8224 79
Width: 541
GlyphClass: 1
Flags: W
HStem: 0 21G<168 254.221> 417 79<84 257 355 527> 648 20G<306.698 391>
VStem: 168 82<0 82> 311 80<588 668>
DStem2: 168 0 250 0 0.207912 0.978148<17.0488 426.392 524.041 683.134>
LayerCount: 2
Fore
SplineSet
168 0 m 1
 257 417 l 1
 67 417 l 1
 84 496 l 1
 274 496 l 1
 311 668 l 1
 391 668 l 1
 355 496 l 1
 544 496 l 1
 527 417 l 1
 338 417 l 1
 250 0 l 1
 168 0 l 1
EndSplineSet
EndChar

StartChar: daggerdbl
Encoding: 271 8225 80
Width: 541
GlyphClass: 1
Flags: W
HStem: 0 21G<168 254.162> 173 79<32 205 303 475> 417 79<84 257 354 527> 648 20G<306.698 391>
VStem: 168 82<0 82> 311 80<588 668>
DStem2: 168 0 250 0 0.207912 0.978148<17.0488 176.912 274.561 426.392 523.833 683.134>
LayerCount: 2
Fore
SplineSet
168 0 m 1
 205 173 l 1
 15 173 l 1
 32 252 l 1
 222 252 l 1
 257 417 l 1
 67 417 l 1
 84 496 l 1
 274 496 l 1
 311 668 l 1
 391 668 l 1
 354 496 l 1
 544 496 l 1
 527 417 l 1
 337 417 l 1
 303 252 l 1
 492 252 l 1
 475 173 l 1
 286 173 l 1
 250 0 l 1
 168 0 l 1
EndSplineSet
EndChar

StartChar: bullet
Encoding: 272 8226 81
Width: 446
GlyphClass: 1
Flags: W
HStem: 88 332<135.932 294.068>
VStem: 49 332<174.932 336.705>
LayerCount: 2
Fore
SplineSet
381 254 m 0
 381 162.450618631 306.549381369 88 215 88 c 0
 123.450618631 88 49 162.450618631 49 254 c 0
 49 345.852822905 123.147177095 420 215 420 c 0
 306.852822905 420 381 345.852822905 381 254 c 0
EndSplineSet
EndChar

StartChar: ellipsis
Encoding: 273 8230 82
Width: 699
GlyphClass: 1
Flags: W
HStem: -12 129<20.7337 116.139 251.507 347.139 481.861 577.266>
VStem: 4 129<4.73368 100.139> 235 129<4.60128 100.273> 465 129<4.73368 100.139>
LayerCount: 2
Fore
SplineSet
364 52 m 0
 364 16.5830650367 334.970324572 -12 299 -12 c 0
 263.313475602 -12 235 16.3134756024 235 52 c 0
 235 88.6236613216 262.939779622 117 299 117 c 0
 335.351721852 117 364 88.3517218524 364 52 c 0
133 52 m 0
 133 16.5830650367 103.970324572 -12 68 -12 c 0
 32.9611627389 -12 4 16.9611627389 4 52 c 0
 4 87.9703245719 32.5830650369 117 68 117 c 0
 104.351721852 117 133 88.3517218524 133 52 c 0
594 52 m 0
 594 16.9611627388 565.038837261 -12 530 -12 c 0
 494.029675428 -12 465 16.5830650367 465 52 c 0
 465 88.3517218523 493.648278148 117 530 117 c 0
 565.416934963 117 594 87.970324572 594 52 c 0
EndSplineSet
EndChar

StartChar: perthousand
Encoding: 274 8240 83
Width: 1406
GlyphClass: 1
Flags: W
HStem: -12 74<692.215 819.204 1093.22 1220.2> 0 21G<234 336.012> 277 74<692.045 819.373 1093.05 1220.37> 316 75<204.326 331.232> 605 75<204.326 331.232> 648 20G<687.988 790>
VStem: 86 74<434.625 561.375> 234 88<0 88> 375 74<434.596 561.404> 574 74<105.688 232.955> 702 88<580 668> 863 74<105.796 232.846> 975 74<105.688 232.955> 1264 74<105.796 232.846>
DStem2: 234 0 322 0 0.573791 0.819001<50.4936 815.627>
LayerCount: 2
Fore
SplineSet
1049 169 m 0xa3fc
 1049 109.35777944 1096.80037551 62 1157 62 c 0
 1216.26581933 62 1264 109.734180666 1264 169 c 0
 1264 229.199624489 1216.64222056 277 1157 277 c 0
 1096.42200616 277 1049 229.577993838 1049 169 c 0xa3fc
648 169 m 0
 648 109.357779442 695.800375511 62 756 62 c 0
 815.265819333 62 863 109.734180667 863 169 c 0
 863 229.199624489 815.642220559 277 756 277 c 0
 695.422006164 277 648 229.577993836 648 169 c 0
1338 169 m 0
 1338 68.8340229127 1257.16597709 -12 1157 -12 c 0
 1056.1431103 -12 975 68.6972690377 975 169 c 0
 975 270.297908482 1055.70209152 351 1157 351 c 0
 1257.60481116 351 1338 270.160638842 1338 169 c 0
937 169 m 0
 937 68.8340229142 856.165977086 -12 756 -12 c 0
 655.143110305 -12 574 68.6972690397 574 169 c 0
 574 270.29790848 654.70209152 351 756 351 c 0
 856.604811158 351 937 270.160638844 937 169 c 0
160 498 m 0
 160 438.996521931 208.445087557 391 268 391 c 0
 327.265819333 391 375 438.734180667 375 498 c 0
 375 557.265819333 327.265819333 605 268 605 c 0x1bfc
 208.445087556 605 160 557.003478069 160 498 c 0
234 0 m 1x47fc
 702 668 l 1
 790 668 l 1
 322 0 l 1
 234 0 l 1x47fc
449 498 m 0
 449 397.143110305 368.302730961 316 268 316 c 0
 167.004858426 316 86 397.004858426 86 498 c 0
 86 598.995141574 167.004858426 680 268 680 c 0x1bfc
 368.30273096 680 449 598.856889695 449 498 c 0
EndSplineSet
EndChar

StartChar: guilsinglleft
Encoding: 275 8249 84
Width: 355
GlyphClass: 1
Flags: W
VStem: 217 104<357 461>
DStem2: 45 250 140 240 0.633619 0.773645<52.4573 272.222> 140 240 45 250 0.44036 -0.897821<0 183.087>
LayerCount: 2
Fore
SplineSet
148 40 m 1
 45 250 l 1
 217 461 l 1
 321 461 l 1
 140 240 l 1
 237 40 l 1
 148 40 l 1
EndSplineSet
EndChar

StartChar: guilsinglright
Encoding: 276 8250 85
Width: 347
GlyphClass: 1
Flags: W
VStem: 9 104<40 144>
DStem2: 9 40 113 40 0.633619 0.773645<65.8964 285.661> 182 461 93 461 0.44036 -0.897821<0 183.087>
LayerCount: 2
Fore
SplineSet
9 40 m 1
 190 261 l 1
 93 461 l 1
 182 461 l 1
 285 251 l 1
 113 40 l 1
 9 40 l 1
EndSplineSet
EndChar

StartChar: fraction
Encoding: 277 8260 86
Width: 444
GlyphClass: 1
Flags: W
HStem: 0 21G<-47 55.012> 648 20G<406.988 509>
VStem: -47 88<0 88> 421 88<580 668>
DStem2: -47 0 41 0 0.573791 0.819001<50.4936 815.627>
LayerCount: 2
Fore
SplineSet
-47 0 m 1
 421 668 l 1
 509 668 l 1
 41 0 l 1
 -47 0 l 1
EndSplineSet
EndChar

StartChar: ordfeminine
Encoding: 170 170 87
Width: 363
GlyphClass: 1
Flags: W
HStem: 396 51<146.392 231.097> 643 48<175.44 270.727>
VStem: 72 73<448.541 509.344> 255 59<403 441> 275 67<539.14 636.448>
LayerCount: 2
Fore
SplineSet
179 447 m 0xe0
 223.498893111 447 244.573418215 465.70364103 259 518 c 2
 262 529 l 1
 239 526 l 2
 169.679507308 518.437764434 145 505.310366929 145 476 c 0
 145 456.666666667 156.333333333 447 179 447 c 0xe0
252 441 m 1
 233.080672158 410.951655781 202.180583544 396 159 396 c 0
 106.892028725 396 72 424.876161703 72 468 c 0
 72 531.7865319 123.5264253 559.868433688 272 577 c 1
 274 585 275 593 275 601 c 0
 275 629.239710577 257.308199313 643 221 643 c 0
 196.388277555 643 176.211632796 629.66900257 165 606 c 1
 108 624 l 1
 130 668.666666667 171 691 231 691 c 0
 302.828431452 691 342 660.650856801 342 605 c 0xe8
 342 535.048521267 314 472.951478733 314 403 c 1
 255 403 l 1xf0
 252 441 l 1
EndSplineSet
EndChar

StartChar: guillemotleft
Encoding: 171 171 88
Width: 563
GlyphClass: 1
Flags: W
VStem: 217 104<357 461> 425 104<357 461>
DStem2: 45 250 140 240 0.633619 0.773645<52.4573 272.222> 140 240 45 250 0.44036 -0.897821<0 183.087> 253 250 348 240 0.633619 0.773645<52.4573 272.222> 348 240 253 250 0.44036 -0.897821<0 183.087>
LayerCount: 2
Fore
SplineSet
148 40 m 1
 45 250 l 1
 217 461 l 1
 321 461 l 1
 140 240 l 1
 237 40 l 1
 148 40 l 1
356 40 m 1
 253 250 l 1
 425 461 l 1
 529 461 l 1
 348 240 l 1
 445 40 l 1
 356 40 l 1
EndSplineSet
EndChar

StartChar: logicalnot
Encoding: 172 172 89
Width: 667
GlyphClass: 1
Flags: W
HStem: 317 79<75 490>
VStem: 490 81<90 317>
LayerCount: 2
Fore
SplineSet
490 90 m 1
 490 317 l 1
 75 317 l 1
 75 396 l 1
 571 396 l 1
 571 90 l 1
 490 90 l 1
EndSplineSet
EndChar

StartChar: registered
Encoding: 174 174 90
Width: 814
GlyphClass: 1
Flags: W
HStem: -12 61<312.521 519.479> 301 58<357 399> 469 61<357 477.966> 619 61<312.477 519.523>
VStem: 70 62<229.67 437.039> 281 76<162 301 359 469> 491 76<372.055 456.395> 501 86<162 248> 700 62<229.67 437.039>
DStem2: 479 311 399 301 0.586879 -0.809675<0 133.553>
LayerCount: 2
Fore
SplineSet
491 413 m 0xfe80
 491 452.366837964 465.456215444 469 405 469 c 2
 357 469 l 1
 357 359 l 1
 410 359 l 2
 464.665631475 359 491 376.556245684 491 413 c 0xfe80
567 414 m 0
 567 362.43471528 537.53167417 327.943379365 479 311 c 1
 587 162 l 1
 501 162 l 1xfd80
 399 301 l 1
 357 301 l 1
 357 162 l 1
 281 162 l 1
 281 530 l 1
 393 530 l 2
 520.18088096 530 567 498.787253974 567 414 c 0
132 333 m 0
 132 175.995201378 258.995201378 49 416 49 c 0
 573.004798622 49 700 175.995201378 700 333 c 0
 700 490.646812765 572.544387501 619 416 619 c 0
 259.455612499 619 132 490.646812765 132 333 c 0
762 333 m 0
 762 142.816416201 606.734840564 -12 416 -12 c 0
 225.265159436 -12 70 142.816416201 70 333 c 0
 70 525.039443813 224.513983979 680 416 680 c 0
 607.486016021 680 762 525.039443813 762 333 c 0
EndSplineSet
EndChar

StartChar: macron
Encoding: 175 175 91
Width: 382
GlyphClass: 1
Flags: W
HStem: 601 67<133 395>
VStem: 119 290
LayerCount: 2
Fore
SplineSet
119 601 m 1
 133 668 l 1
 409 668 l 1
 395 601 l 1
 119 601 l 1
EndSplineSet
EndChar

StartChar: degree
Encoding: 176 176 92
Width: 358
GlyphClass: 1
Flags: W
HStem: 408 63<172.341 273.843> 617 63<172.157 275.561>
VStem: 87 63<493.341 594.843> 296 63<493.157 596.561>
LayerCount: 2
Fore
SplineSet
150 544 m 0
 150 503.590403604 182.590403604 471 223 471 c 0
 264.056099642 471 296 502.943900358 296 544 c 0
 296 585.695957253 264.695957253 617 223 617 c 0
 181.943900357 617 150 585.056099643 150 544 c 0
359 544 m 0
 359 469.076832169 297.923167831 408 223 408 c 0
 148.381047159 408 87 469.381047159 87 544 c 0
 87 618.923167831 148.076832169 680 223 680 c 0
 298.227147311 680 359 619.227147311 359 544 c 0
EndSplineSet
EndChar

StartChar: plusminus
Encoding: 177 177 93
Width: 653
GlyphClass: 1
Flags: W
HStem: 0 79<65 538> 270 79<65 262 341 538> 476 20G<262 341>
VStem: 262 79<124 270 349 496>
LayerCount: 2
Fore
SplineSet
65 0 m 1
 65 79 l 1
 538 79 l 1
 538 0 l 1
 65 0 l 1
262 124 m 1
 262 270 l 1
 65 270 l 1
 65 349 l 1
 262 349 l 1
 262 496 l 1
 341 496 l 1
 341 349 l 1
 538 349 l 1
 538 270 l 1
 341 270 l 1
 341 124 l 1
 262 124 l 1
EndSplineSet
EndChar

StartChar: uni00B2
Encoding: 178 178 94
Width: 384
GlyphClass: 1
Flags: W
HStem: 403 58<168 335> 676 21G<119 185.485> 736 50<203.654 302.242>
VStem: 312 70<619.74 726.111>
LayerCount: 2
Fore
SplineSet
382 689 m 0
 382 610.966642046 304.834628165 528.753068315 168 461 c 1
 347 461 l 1
 335 403 l 1
 59 403 l 1
 71 457 l 1
 247.834264267 554.82321002 312 615.261475627 312 684 c 0
 312 715.323047711 290.130146618 736 257 736 c 0
 220.920594888 736 191.969720792 713.730096849 179 676 c 1
 119 695 l 1
 142.65858986 753.450633775 192.376852556 786 258 786 c 0
 335.221538441 786 382 749.4071712 382 689 c 0
EndSplineSet
EndChar

StartChar: uni00B3
Encoding: 179 179 95
Width: 394
GlyphClass: 1
Flags: W
HStem: 396 51<169.595 280.534> 483 20G<87 156.298> 572 54<205 285.378> 736 50<199.242 308.133>
VStem: 87 64<466.14 487.859> 298 69<464.968 558.237> 317 68<642.678 726.221>
LayerCount: 2
Fore
SplineSet
367 519 m 0xfc
 367 445.833125053 307.443338351 396 220 396 c 0
 155.060533368 396 105.914407757 429.256776729 87 486 c 1
 151 503 l 1
 161.596851638 466.667937242 186.884199521 447 223 447 c 0
 268.868187649 447 298 472.635994869 298 513 c 0xfc
 298 552.868849488 271.735200144 572 217 572 c 2
 194 572 l 1
 205 626 l 1
 221 626 l 1
 290.170207626 629.842789313 317 645.493501531 317 682 c 0
 317 716.969242607 296.207135441 736 258 736 c 0
 219.625078617 736 196.044481412 720.377854352 178 683 c 1
 120 701 l 1
 146.456792 756.433278478 195.502765349 786 261 786 c 0
 340.031795016 786 385 750.823259004 385 689 c 0
 385 649.881106277 360.607947101 618.673626832 317 602 c 1xfa
 348.908885744 587.185160189 367 557.153910525 367 519 c 0xfc
EndSplineSet
EndChar

StartChar: acute
Encoding: 180 180 96
Width: 271
GlyphClass: 1
Flags: W
HStem: 572 135
VStem: 113 184
LayerCount: 2
Fore
SplineSet
259 707 m 0
 281.62085301 707 297 691.62085301 297 669 c 0
 297 647.464945861 288.173322773 639.448881849 199 580 c 2
 187 572 l 1
 113 572 l 1
 128.5 589 l 2
 159.659490709 623.174925307 222.742377478 688.350609267 234 698 c 0
 241.333333333 704 249.666666667 707 259 707 c 0
EndSplineSet
EndChar

StartChar: uni03BC
Encoding: 278 956 97
Width: 543
GlyphClass: 1
Flags: W
HStem: -162 21G<-26 66.1748> -12 69<153.046 282.214> 0 21G<344.529 415.283> 475 20G<109.738 202 426.769 517>
VStem: -26 88<-162 -74> 114 88<407 495> 346 65<0 32.6887> 431 86<409 495>
DStem2: -26 -162 62 -162 0.207912 0.978148<18.2962 228.735 289.37 671.751> 291.615 -162 376.566 -162 0.207912 0.978148<277.015 671.623>
LayerCount: 2
Fore
SplineSet
195 -12 m 0xdf
 155.403117089 -12 121.086233682 9.35272745329 105 44 c 1
 62 -162 l 1
 -26 -162 l 1
 114 495 l 1
 202 495 l 1
 138 196 l 2
 118.405338622 98.0266931111 143.788760259 57 224 57 c 0xdf
 299.706757004 57 350.637761455 116.642886791 376 235 c 2
 431 495 l 1
 517 495 l 1
 411 0 l 1
 346 0 l 1xbf
 341 68 l 1
 298.473471653 9.72290559932 258.829168935 -12 195 -12 c 0xdf
EndSplineSet
EndChar

StartChar: paragraph
Encoding: 182 182 98
Width: 522
GlyphClass: 1
Flags: W
HStem: -162 21G<91 178.252 268 355.226> 600 68<336 429 512 553>
VStem: 91 83<-162 -79> 268 83<-162 -79>
DStem2: 91 -162 174 -162 0.207912 0.978148<17.2567 467.712> 268 -162 351 -162 0.207912 0.978148<17.2567 778.822>
LayerCount: 2
Fore
SplineSet
74 438 m 0
 74 556.884243051 187.048204896 668 308 668 c 2
 568 668 l 1
 553 600 l 1
 512 600 l 1
 351 -162 l 1
 268 -162 l 1
 429 600 l 1
 336 600 l 1
 174 -162 l 1
 91 -162 l 1
 188 294 l 1
 118.722528201 309.987108876 74 366.478723446 74 438 c 0
EndSplineSet
EndChar

StartChar: periodcentered
Encoding: 183 183 99
Width: 235
GlyphClass: 1
Flags: W
HStem: 183 129<69.7337 165.139>
VStem: 53 129<199.861 295.266>
LayerCount: 2
Fore
SplineSet
182 248 m 0
 182 211.648278148 153.351721852 183 117 183 c 0
 81.5830650367 183 53 212.029675428 53 248 c 0
 53 283.038837261 81.9611627388 312 117 312 c 0
 152.970324572 312 182 283.416934963 182 248 c 0
EndSplineSet
EndChar

StartChar: cedilla
Encoding: 184 184 100
Width: 294
GlyphClass: 1
Flags: W
HStem: -181 41<-11.18 106.244> -82 39<60.9233 112.848>
VStem: 113 63<-131.908 -83.1099>
LayerCount: 2
Fore
SplineSet
176 -96 m 0
 176 -144.256378643 127.15259749 -181 63 -181 c 0
 38.3333333333 -181 9.33333333335 -175 -24 -163 c 1
 -1 -126 l 1
 22.1310012018 -135.524529907 40.3525580102 -140 56 -140 c 0
 87.2191648591 -140 113 -123.717367279 113 -104 c 0
 113 -89.9168158905 100.405065629 -82 78 -82 c 0
 59.6300753788 -82 61.3699246212 -87 43 -87 c 0
 31 -87 25 -81.3333333333 25 -70 c 0
 25 -66.0000000001 26.6666666666 -61.6666666668 30 -57 c 2
 98 25 l 1
 128 4 l 1
 87 -45 l 1
 97.2298627534 -43.5385910353 103.692955176 -43 111 -43 c 0
 150.55560449 -43 176 -63.7469686469 176 -96 c 0
EndSplineSet
EndChar

StartChar: uni00B9
Encoding: 185 185 101
Width: 257
GlyphClass: 1
Flags: W
HStem: 682 48<126 198.047>
VStem: 139 69<403 472>
DStem2: 139 403 208 403 0.207912 0.978148<14.3459 285.378>
LayerCount: 2
Fore
SplineSet
126 730 m 1
 183.176431705 730 213.598477306 744.196954614 231 779 c 1
 288 779 l 1
 208 403 l 1
 139 403 l 1
 199 682 l 1
 116 682 l 1
 126 730 l 1
EndSplineSet
EndChar

StartChar: ordmasculine
Encoding: 186 186 102
Width: 383
GlyphClass: 1
Flags: W
HStem: 399 53<172.3 265.234> 639 53<185.837 278.696>
VStem: 87 69<467.668 606.743> 295 69<483.137 624.549>
LayerCount: 2
Fore
SplineSet
156 529 m 0
 156 481.018211224 178.611593162 452 216 452 c 0
 263.02745427 452 295 496.92345033 295 563 c 0
 295 610.023812224 272.124062282 639 235 639 c 0
 188.36517418 639 156 593.934567597 156 529 c 0
364 567 m 0
 364 466.613190967 302.021241614 399 210 399 c 0
 134.284171093 399 87 446.668595248 87 523 c 0
 87 624.054997979 148.91438054 692 241 692 c 0
 316.961180903 692 364 644.196322056 364 567 c 0
EndSplineSet
EndChar

StartChar: guillemotright
Encoding: 187 187 103
Width: 555
GlyphClass: 1
Flags: W
VStem: 9 104<40 144> 217 104<40 144>
DStem2: 9 40 113 40 0.633619 0.773645<65.8964 285.661> 182 461 93 461 0.44036 -0.897821<0 183.087> 217 40 321 40 0.633619 0.773645<65.8964 285.661> 390 461 301 461 0.44036 -0.897821<0 183.087>
LayerCount: 2
Fore
SplineSet
9 40 m 1
 190 261 l 1
 93 461 l 1
 182 461 l 1
 285 251 l 1
 113 40 l 1
 9 40 l 1
217 40 m 1
 398 261 l 1
 301 461 l 1
 390 461 l 1
 493 251 l 1
 321 40 l 1
 217 40 l 1
EndSplineSet
EndChar

StartChar: onequarter
Encoding: 188 188 104
Width: 824
GlyphClass: 1
Flags: W
HStem: 0 21G<100 202.012 574 648.186> 86 57<492 592 674 727> 571 47<122 194.047> 647 21G<218.299 284 553.988 656>
VStem: 100 88<0 88> 136 68<292 360> 568 88<580 668> 574 70<0 70>
DStem2: 73.9335 0 141.933 0 0.207912 0.978148<312.661 583.693 637.633 684.249> 100 0 188 0 0.573791 0.819001<50.4936 815.627> 411 140 492 143 0.708606 0.705604<59.5139 264.571> 574 0 644 0 0.207912 0.978148<14.5538 87.8631 160.666 295.575>
LayerCount: 2
Fore
SplineSet
492 143 m 1xf0
 604 143 l 1
 636 289 l 1
 492 143 l 1xf0
574 0 m 1xf1
 592 86 l 1
 399 86 l 1
 411 140 l 1
 647 375 l 1
 724 375 l 1
 674 143 l 1
 739 143 l 1
 727 86 l 1
 662 86 l 1
 644 0 l 1
 574 0 l 1xf1
122 618 m 1
 179.176431705 618 209.598477306 632.196954614 227 667 c 1
 284 667 l 1
 204 292 l 1
 136 292 l 1xf4
 195 571 l 1
 112 571 l 1
 122 618 l 1
100 0 m 1xfa
 568 668 l 1
 656 668 l 1
 188 0 l 1
 100 0 l 1xfa
EndSplineSet
Ligature2: "'frac' Diagonal Fractions lookup 10 subtable" one slash four
EndChar

StartChar: onehalf
Encoding: 189 189 105
Width: 802
GlyphClass: 1
Flags: W
HStem: 0 58<520 687> 333 49<555.468 653.934> 571 47<122 192.532> 647 21G<218.299 284 546.988 649>
VStem: 93 88<0 88> 135 69<292 361> 561 88<580 668> 664 71<216.853 322.435>
DStem2: 72.9335 0 141.933 0 0.207912 0.978148<312.869 583.693 636.833 684.457> 93 0 181 0 0.573791 0.819001<50.4936 815.627>
LayerCount: 2
Fore
SplineSet
735 286 m 0xf3
 735 208.378280479 658.495184208 127.247592104 520 58 c 1
 699 58 l 1
 687 0 l 1
 411 0 l 1
 422 54 l 1
 600.452342416 152.718317081 664 212.064476643 664 280 c 0
 664 311.367248349 641.142752972 333 608 333 c 0
 572.896590753 333 543.8427107 310.360612946 531 273 c 1
 471 292 l 1
 494.467439492 349.978379923 543.923052722 382 610 382 c 0
 688.056621346 382 735 345.947485194 735 286 c 0xf3
122 618 m 1
 179.176431705 618 209.598477306 632.196954614 227 667 c 1
 284 667 l 1
 204 292 l 1
 135 292 l 1xf7
 194 571 l 1
 112 571 l 1
 122 618 l 1
93 0 m 1xfb
 561 668 l 1
 649 668 l 1
 181 0 l 1
 93 0 l 1xfb
EndSplineSet
Ligature2: "'frac' Diagonal Fractions lookup 10 subtable" one slash two
EndChar

StartChar: threequarters
Encoding: 190 190 106
Width: 906
GlyphClass: 1
Flags: W
HStem: 0 21G<193 295.012 656 730.419> 86 57<574 675 756 809> 291 51<164.595 275.534> 467 54<200 280.378> 631 50<194.242 303.133> 648 20G<646.988 749>
VStem: 82 64<361.14 382.859> 193 88<0 88> 293 69<359.968 453.237> 312 68<537.678 621.221> 656 70<0 70> 661 88<580 668>
DStem2: 193 0 281 0 0.573791 0.819001<50.4936 815.627> 493 140 574 143 0.710097 0.704104<59.6301 264.683> 656 0 726 0 0.207912 0.978148<14.5538 88.071 160.666 295.575>
LayerCount: 2
Fore
SplineSet
574 143 m 1xf3
 687 143 l 1
 718 289 l 1
 574 143 l 1xf3
656 0 m 1xf320
 675 86 l 1
 482 86 l 1
 493 140 l 1
 730 375 l 1
 806 375 l 1
 756 143 l 1
 821 143 l 1
 809 86 l 1
 745 86 l 1
 726 0 l 1
 656 0 l 1xf320
193 0 m 1
 661 668 l 1
 749 668 l 1xf710
 281 0 l 1
 193 0 l 1
362 414 m 0xfb80
 362 340.833125053 302.443338351 291 215 291 c 0
 150.060533368 291 100.914407757 324.256776729 82 381 c 1
 146 398 l 1
 156.596851638 361.667937242 181.884199521 342 218 342 c 0
 263.868187649 342 293 367.635994869 293 408 c 0xfb80
 293 447.868849488 266.735200144 467 212 467 c 2
 189 467 l 1
 200 521 l 1
 216 521 l 1
 285.170207626 524.842789313 312 540.493501531 312 577 c 0
 312 611.969242607 291.207135441 631 253 631 c 0
 214.625078617 631 191.044481412 615.377854352 173 578 c 1
 115 596 l 1
 141.456792 651.433278478 190.502765349 681 256 681 c 0
 335.031795016 681 380 645.823259004 380 584 c 0
 380 544.881106277 355.607947101 513.673626832 312 497 c 1xfb40
 343.908885744 482.185160189 362 452.153910525 362 414 c 0xfb80
EndSplineSet
Ligature2: "'frac' Diagonal Fractions lookup 10 subtable" three slash four
EndChar

StartChar: less
Encoding: 60 60 107
Width: 613
GlyphClass: 1
Flags: W
HStem: 0 21G<466.587 511> 476 20G<466.587 511>
VStem: 38 105<160.5 335.5>
DStem2: 143 248 38 213 0.911813 -0.410605<0 400.423>
LayerCount: 2
Fore
SplineSet
511 0 m 1
 38 213 l 1
 38 283 l 1
 511 496 l 1
 511 406 l 1
 143 248 l 1
 511 90 l 1
 511 0 l 1
EndSplineSet
EndChar

StartChar: equal
Encoding: 61 61 108
Width: 658
GlyphClass: 1
Flags: W
HStem: 121 79<63 559> 307 79<63 559>
LayerCount: 2
Fore
SplineSet
63 121 m 1
 63 200 l 1
 559 200 l 1
 559 121 l 1
 63 121 l 1
63 307 m 1
 63 386 l 1
 559 386 l 1
 559 307 l 1
 63 307 l 1
EndSplineSet
EndChar

StartChar: greater
Encoding: 62 62 109
Width: 613
GlyphClass: 1
Flags: W
HStem: 0 21G<83 127.413> 476 20G<83 127.413>
VStem: 451 105<160.5 335.5>
DStem2: 83 90 83 0 0.911813 0.410605<0 400.423>
LayerCount: 2
Fore
SplineSet
83 0 m 1
 83 90 l 1
 451 248 l 1
 83 406 l 1
 83 496 l 1
 556 283 l 1
 556 213 l 1
 83 0 l 1
EndSplineSet
EndChar

StartChar: question
Encoding: 63 63 110
Width: 527
GlyphClass: 1
Flags: W
HStem: -12 129<139.71 235.913> 500 21G<101.833 178.333> 609 70<234.811 402.403>
VStem: 123 130<5.3906 100.176> 433 91<474.131 579.285>
LayerCount: 2
Fore
SplineSet
253 53 m 0
 253 17.2897425786 223.710257421 -12 188 -12 c 0
 151.31286978 -12 123 15.8772871683 123 52 c 0
 123 88.3991927858 151.600807214 117 188 117 c 0
 223.324475913 117 253 87.7810224374 253 53 c 0
332 679 m 0
 448.795428361 679 524 621.813190316 524 533 c 0
 524 378.973297421 344.064214697 365.649234802 292.5 292.5 c 0
 274.099099099 266.396396396 274.099099099 266.396396396 255 190 c 1
 170 190 l 1
 174.731158838 211.290214774 175.999177939 217.992601449 177 227 c 0
 198.384683335 320.763611547 238.490312659 367.918109056 342 421 c 0
 404.318536198 453.049532902 433 486.458710517 433 527 c 0
 433 575.81371461 390.910077067 609 329 609 c 0
 245 609 190.666666667 572.666666667 166 500 c 1
 89 524 l 1
 125.484833048 624.647815305 210.69503228 679 332 679 c 0
EndSplineSet
EndChar

StartChar: at
Encoding: 64 64 111
Width: 784
GlyphClass: 1
Flags: W
HStem: -12 60<296.057 516.85> 155 73<304.459 399.81> 155 64<526.003 632.918> 446 73<362.287 474.128> 619 61<307.376 517.119>
VStem: 65 62<217.364 437.808> 213 81<237.27 372.993> 682 62<273.856 462.51>
DStem2: 378.393 -12 461.045 -12 0.207912 0.978148<293.954 464.165>
LayerCount: 2
Fore
SplineSet
294 287 m 0xdf
 294 251.472826398 314.687914791 228 346 228 c 0
 394.764918352 228 440.233712413 275.168562063 453 339 c 0
 460.601059103 374.241274025 474.771521658 440.971847459 475 442 c 1
 461.393528704 444.721294259 447.647441988 446 432 446 c 0
 354.212012997 446 294 376.625289373 294 287 c 0xdf
127 334 m 0
 127 165.622357901 244.211090915 48 412 48 c 0
 459.333333333 48 504.333333333 60.3333333333 547 85 c 1
 547 16 l 1
 505 -2.66666666673 460.666666667 -12 414 -12 c 0
 204.107842321 -12 65 125.912072903 65 334 c 0
 65 525.199418708 219.800581292 680 411 680 c 0
 596.015311366 680 744 540.458882189 744 366 c 0
 744 238.921161543 673.601679654 155 567 155 c 0xbf
 508.827820085 155 463.118479897 183.31552047 454 225 c 1
 421.439501252 181.168559378 373.588421247 155 326 155 c 0xdf
 258.327792301 155 213 203.135708638 213 275 c 0
 213 415.705245251 314.178058955 519 452 519 c 0
 490.562065635 519 531.378472553 512.022836424 569 499 c 1
 528 303 l 2
 520.997012647 272.653721469 520 267.045525332 520 258 c 0
 520 236.518215134 544.255990186 219 574 219 c 0xbf
 638.669790806 219 682 278.779640462 682 368 c 0
 682 505.575464173 559.537652554 619 411 619 c 0
 253.707989491 619 127 491.845855617 127 334 c 0
EndSplineSet
EndChar

StartChar: colon
Encoding: 58 58 112
Width: 208
GlyphClass: 1
Flags: W
HStem: -12 129<5.73368 101.139> 375 129<87.7337 183.139>
VStem: -11 129<4.73368 100.139> 71 129<391.861 487.266>
LayerCount: 2
Fore
SplineSet
118 52 m 0xe0
 118 16.5830650369 88.9703245719 -12 53 -12 c 0
 17.9611627389 -12 -11 16.9611627389 -11 52 c 0
 -11 87.9703245719 17.5830650369 117 53 117 c 0
 89.3517218525 117 118 88.3517218525 118 52 c 0xe0
200 440 m 0xd0
 200 403.648278148 171.351721852 375 135 375 c 0
 99.5830650367 375 71 404.029675428 71 440 c 0
 71 475.038837261 99.9611627388 504 135 504 c 0
 170.970324572 504 200 475.416934963 200 440 c 0xd0
EndSplineSet
EndChar

StartChar: bracketleft
Encoding: 91 91 114
Width: 317
GlyphClass: 1
Flags: W
HStem: -161 74<79 188> 593 75<224 348>
DStem2: -20 -161 63.2708 -161 0.207912 0.978148<92.9662 788.254>
LayerCount: 2
Fore
SplineSet
-20 -161 m 1
 156 668 l 1
 363 668 l 1
 348 593 l 1
 224 593 l 1
 79 -87 l 1
 204 -87 l 1
 188 -161 l 1
 -20 -161 l 1
EndSplineSet
EndChar

StartChar: backslash
Encoding: 92 92 115
Width: 519
GlyphClass: 1
Flags: W
HStem: 0 21G<347.216 442> 648 20G<95 189.784>
DStem2: 182 668 95 668 0.362716 -0.9319<0 685.259>
LayerCount: 2
Fore
SplineSet
355 0 m 1
 95 668 l 1
 182 668 l 1
 442 0 l 1
 355 0 l 1
EndSplineSet
EndChar

StartChar: bracketright
Encoding: 93 93 116
Width: 317
GlyphClass: 1
Flags: W
HStem: -161 74<-47 78> 593 75<113 223>
DStem2: 62.2708 -161 145 -161 0.207912 0.978148<75.6532 770.941>
LayerCount: 2
Fore
SplineSet
-63 -161 m 1
 -47 -87 l 1
 78 -87 l 1
 223 593 l 1
 98 593 l 1
 113 668 l 1
 320 668 l 1
 145 -161 l 1
 -63 -161 l 1
EndSplineSet
EndChar

StartChar: asciicircum
Encoding: 94 94 117
Width: 552
GlyphClass: 1
Flags: W
HStem: 569 99<182.5 357.5>
DStem2: 47 311 136 311 0.460099 0.887867<40.9488 331.672> 308 668 270 569 0.460099 -0.887867<70.4151 361.138>
LayerCount: 2
Fore
SplineSet
47 311 m 1
 232 668 l 1
 308 668 l 1
 493 311 l 1
 404 311 l 1
 270 569 l 1
 136 311 l 1
 47 311 l 1
EndSplineSet
EndChar

StartChar: underscore
Encoding: 95 95 118
Width: 413
GlyphClass: 1
Flags: W
HStem: -79 79<-32 344>
LayerCount: 2
Fore
SplineSet
-32 -79 m 1
 -32 0 l 1
 344 0 l 1
 344 -79 l 1
 -32 -79 l 1
EndSplineSet
EndChar

StartChar: grave
Encoding: 96 96 119
Width: 272
GlyphClass: 1
Flags: W
HStem: 571 136
VStem: 134 144
LayerCount: 2
Fore
SplineSet
134 669 m 0
 134 691.641672523 149.358327477 707 172 707 c 0
 194.64516129 707 194.64516129 707 268.5 586.5 c 2
 278 571 l 1
 210 571 l 1
 196 585.5 l 2
 143.540629912 639.83291902 134 652.681993176 134 669 c 0
EndSplineSet
EndChar

StartChar: exclam
Encoding: 33 33 120
Width: 284
GlyphClass: 1
Flags: W
HStem: -12 129<43.6329 139.142> 648 20G<172.723 268>
VStem: 27 129<4.85752 100.139> 177 91<577 668>
LayerCount: 2
Fore
SplineSet
156 52 m 0
 156 16.5742021623 126.979325929 -12 91 -12 c 0
 55.5742021623 -12 27 17.0206740711 27 53 c 0
 27 89.0572456064 55.379359931 117 92 117 c 0
 127.416934963 117 156 87.970324572 156 52 c 0
95 195 m 1
 140 495 l 1
 177 668 l 1
 268 668 l 1
 232 495 l 1
 149 195 l 1
 95 195 l 1
EndSplineSet
EndChar

StartChar: quotedbl
Encoding: 34 34 121
Width: 334
GlyphClass: 1
Flags: W
HStem: 447 221<109 161 250 302>
VStem: 109 52<447 557.5> 250 52<447 557.5>
LayerCount: 2
Fore
SplineSet
109 447 m 1
 95 668 l 1
 175 668 l 1
 161 447 l 1
 109 447 l 1
250 447 m 1
 236 668 l 1
 316 668 l 1
 302 447 l 1
 250 447 l 1
EndSplineSet
EndChar

StartChar: numbersign
Encoding: 35 35 122
Width: 634
GlyphClass: 1
Flags: W
HStem: 0 21G<136 220.791 341 425.791> 172 81<48 161 254 365 459 571> 415 81<82 195 288 399 493 605> 648 20G<227.209 312 432.209 517>
VStem: 136 82<0 82> 230 82<586 668> 341 82<0 82> 435 82<586 668>
DStem2: 136 0 218 0 0.139346 0.990244<11.4263 173.806 266.974 419.173 512.341 674.581> 341 0 423 0 0.139346 0.990244<11.4263 173.666 266.974 419.033 512.341 674.581>
LayerCount: 2
Fore
SplineSet
254 253 m 1
 377 253 l 1
 399 415 l 1
 276 415 l 1
 254 253 l 1
136 0 m 1
 161 172 l 1
 37 172 l 1
 48 253 l 1
 172 253 l 1
 195 415 l 1
 71 415 l 1
 82 496 l 1
 206 496 l 1
 230 668 l 1
 312 668 l 1
 288 496 l 1
 411 496 l 1
 435 668 l 1
 517 668 l 1
 493 496 l 1
 616 496 l 1
 605 415 l 1
 481 415 l 1
 459 253 l 1
 582 253 l 1
 571 172 l 1
 447 172 l 1
 423 0 l 1
 341 0 l 1
 365 172 l 1
 242 172 l 1
 218 0 l 1
 136 0 l 1
EndSplineSet
EndChar

StartChar: dollar
Encoding: 36 36 123
Width: 610
GlyphClass: 1
Flags: W
HStem: -5 79<275 384.007> 599 80<403 433.75> 608 80<234.932 336>
VStem: 88 95<450.517 562.455> 190 52<-80 -28> 366 52<698 750> 448 98<129.618 248.696>
DStem2: 190 -80 242 -80 0.207912 0.978148<10.8114 87.1327 169.649 403.469 493.86 703.321 785.684 848.455>
LayerCount: 2
Fore
SplineSet
296 74 m 2x9e
 384.732706624 74 448 122.699166612 448 191 c 0
 448 244.768928062 415.480952667 274.403221196 324 304 c 1
 275 75 l 1
 278.333333333 74.3333333333 281.833333333 74 285.5 74 c 2
 296 74 l 2x9e
336 608 m 1xbe
 248.139750664 615.123804 183 571.271553553 183 505 c 0
 183 458.054963509 214.912595449 428.463284093 293 403 c 1
 336 608 l 1xbe
546 204 m 0
 546 84.5824107805 434.986390468 -5 287 -5 c 2
 273 -5 l 2
 268.333333333 -5 263.333333333 -4.66666666667 258 -4 c 1
 242 -80 l 1
 190 -80 l 1
 208 4 l 1
 123.805454603 24.3228213025 63.0840155095 77.2321454249 37 153 c 1
 128 179 l 1
 142.510635766 135.468092701 176.838979456 102.555350812 225 86 c 1
 275 319 l 1
 133.696872138 362.005299784 88 406.969067021 88 503 c 0
 88 612.337452213 185.338845261 688 326 688 c 2
 339.5 688 l 2xbe
 343.833333335 688 348.333333335 687.666666667 353 687 c 1
 366 750 l 1
 418 750 l 1
 403 679 l 1
 479.796690963 661.61206997 536.872198561 620.232326962 563 563 c 1
 471 537 l 1
 455.589971459 566.535888039 426.338759123 587.872066449 386 599 c 1xde
 341 388 l 1
 494.446012727 342.380915135 546 296.108068022 546 204 c 0
EndSplineSet
EndChar

StartChar: percent
Encoding: 37 37 124
Width: 1000
GlyphClass: 1
Flags: W
HStem: -12 74<679.613 807.44> 0 21G<231 333.012> 277 74<698.337 826.132> 317 74<191.613 319.44> 606 74<210.337 338.132> 648 20G<684.988 787>
VStem: 82 74<425.762 552.431> 231 88<0 88> 373 75<445.505 572.173> 570 74<96.7624 223.431> 699 88<580 668> 861 75<116.505 243.173>
DStem2: 231 0 319 0 0.573791 0.819001<50.4936 815.627>
LayerCount: 2
Fore
SplineSet
644 159 m 0xa3f0
 644 103.474569323 685.902142203 62 742 62 c 0
 806.62665089 62 861 117.28718691 861 183 c 0
 861 237.246743731 819.978022787 277 764 277 c 0
 699.706805093 277 644 222.221641659 644 159 c 0xa3f0
936 190 m 0
 936 81.4500333765 842.549966624 -12 734 -12 c 0
 640.796911924 -12 570 57.9335349496 570 150 c 0
 570 258.681411168 662.777885294 351 772 351 c 0
 865.066612968 351 936 281.364174926 936 190 c 0
156 488 m 0
 156 432.474569323 197.902142203 391 254 391 c 0
 318.62665089 391 373 446.28718691 373 512 c 0
 373 566.246743731 331.978022787 606 276 606 c 0x1bf0
 211.706805093 606 156 551.221641659 156 488 c 0
231 0 m 1x47f0
 699 668 l 1
 787 668 l 1
 319 0 l 1
 231 0 l 1x47f0
448 519 m 0
 448 410.450033376 354.549966624 317 246 317 c 0
 152.796911924 317 82 386.933534949 82 479 c 0
 82 587.681411168 174.777885294 680 284 680 c 0x1bf0
 377.066612968 680 448 610.364174926 448 519 c 0
EndSplineSet
EndChar

StartChar: ampersand
Encoding: 38 38 125
Width: 691
GlyphClass: 1
Flags: W
HStem: -12 78<137.498 308.883> 0 21G<492.116 619> 609 70<301.823 435.822>
VStem: 15 86<101.459 238.659> 182 88<448.228 578.004> 454 83<487.809 589.869>
DStem2: 351 362 263 333 0.591049 -0.806636<0 174.989 277.008 384.206>
LayerCount: 2
Fore
SplineSet
101 165 m 0xbc
 101 102.902522035 142.375555009 66 212 66 c 0
 275.414346949 66 330.629820344 89.2022467989 400 145 c 1
 263 333 l 1
 158.585020571 300.183863609 101 240.466064498 101 165 c 0xbc
373 609 m 0
 309.719292685 609 270 574.679446127 270 520 c 0
 270 493.171519058 280.417966392 462.831476583 298.5 437 c 0
 305.5 427 310 420 312 416 c 1
 404.118148519 446.706049506 454 490.26484939 454 540 c 0
 454 582.889018692 423.347978464 609 373 609 c 0
443 86 m 1
 364.957542431 18.4632578732 290.664495169 -12 204 -12 c 0xbc
 88.3478869614 -12 15 55.5266260914 15 162 c 0
 15 260.214193641 96.2180320439 349.27937854 222 389 c 1
 195.587701864 431.553146998 182 473.675022775 182 513 c 0
 182 612.520933917 257.690021023 679 371 679 c 0
 471.503826025 679 537 628.891481357 537 552 c 0
 537 470.427783371 481.37535805 413.606912561 351 362 c 1
 456 222 l 1
 487.079124205 258.729874062 513.737610756 309.125369185 529 360 c 1
 616 360 l 1
 596.58151312 295.676262211 556.872543053 224.340678816 503 157 c 1
 619 0 l 1
 507 0 l 1x7c
 443 86 l 1
EndSplineSet
EndChar

StartChar: quotesingle
Encoding: 39 39 126
Width: 193
GlyphClass: 1
Flags: W
HStem: 447 221<109 161>
VStem: 109 52<447 557.5>
LayerCount: 2
Fore
SplineSet
109 447 m 1
 95 668 l 1
 175 668 l 1
 161 447 l 1
 109 447 l 1
EndSplineSet
EndChar

StartChar: parenleft
Encoding: 40 40 127
Width: 301
GlyphClass: 1
Flags: W
HStem: -162 21G<71.7356 170> 648 20G<182.403 337>
VStem: 29 80<-37.928 289.664> 258 79<589 668>
LayerCount: 2
Fore
SplineSet
109 124 m 0
 109 33.0909697255 129.359580083 -62.3654221412 170 -162 c 1
 93 -162 l 1
 50.4711530732 -63.6520414816 29 34.6455811815 29 131 c 0
 29 318.006613963 106.806580142 500.461345563 258 668 c 1
 337 668 l 1
 181.727245432 477.96468844 109 304.440032671 109 124 c 0
EndSplineSet
EndChar

StartChar: parenright
Encoding: 41 41 128
Width: 302
GlyphClass: 1
Flags: W
HStem: -162 21G<-53 103.005> 648 20G<115 213.333>
VStem: -53 81<-162 -81> 176 80<217.063 545.493>
LayerCount: 2
Fore
SplineSet
256 375 m 0
 256 189.426102087 178.009455284 5.73784545418 28 -162 c 1
 -53 -162 l 1
 101.978575513 27.6752715235 176 203.516559388 176 382 c 0
 176 476.70423479 155.935045684 570.779266501 115 668 c 1
 192 668 l 1
 234.666666667 570.666666668 256 473.000000001 256 375 c 0
EndSplineSet
EndChar

StartChar: asterisk
Encoding: 42 42 129
Width: 439
GlyphClass: 1
Flags: W
HStem: 373 294
VStem: 106 289
DStem2: 135 615 106 566 0.866499 -0.499179<0 105.506> 119 442 157 399 0.743762 0.668444<0 105.737> 186.827 373 245.377 373 0.207912 0.978148<193.222 300.407> 289 493 236 470 0.413095 -0.910688<0 105.565> 283 550 289 493 0.993653 0.112489<0 105.571>
LayerCount: 2
Fore
SplineSet
280 373 m 1
 236 470 l 1
 157 399 l 1
 119 442 l 1
 198 513 l 1
 106 566 l 1
 135 615 l 1
 227 562 l 1
 249 667 l 1
 305 655 l 1
 283 550 l 1
 388 561 l 1
 395 505 l 1
 289 493 l 1
 332 396 l 1
 280 373 l 1
EndSplineSet
EndChar

StartChar: plus
Encoding: 43 43 130
Width: 619
GlyphClass: 1
Flags: W
HStem: 0 21G<250 330> 208 80<42 250 330 538> 476 20G<250 330>
VStem: 250 80<0 208 288 496>
LayerCount: 2
Fore
SplineSet
250 0 m 1
 250 208 l 1
 42 208 l 1
 42 288 l 1
 250 288 l 1
 250 496 l 1
 330 496 l 1
 330 288 l 1
 538 288 l 1
 538 208 l 1
 330 208 l 1
 330 0 l 1
 250 0 l 1
EndSplineSet
EndChar

StartChar: comma
Encoding: 44 44 131
Width: 209
GlyphClass: 1
Flags: W
HStem: -134 250
VStem: -44 61<-134 -73> -11 129<3.05591 99.4173>
DStem2: -44 -134 17 -134 0.516281 0.856419<31.4931 146.29>
LayerCount: 2
Fore
SplineSet
52 116 m 0xa0
 89.3297219901 116 118 87.7641201418 118 51 c 0xa0
 118 37.045407685 114.404082058 27.1566333437 102 7 c 2
 17 -134 l 1
 -44 -134 l 1xc0
 32 -9 l 1
 3.33333333333 1.66666666667 -11 22 -11 52 c 0
 -11 87.9593679175 16.6024972062 116 52 116 c 0xa0
EndSplineSet
EndChar

StartChar: hyphen
Encoding: 45 45 132
Width: 372
GlyphClass: 1
Flags: W
HStem: 208 81<49 323>
VStem: 31 310
LayerCount: 2
Fore
SplineSet
31 208 m 1
 49 289 l 1
 341 289 l 1
 323 208 l 1
 31 208 l 1
EndSplineSet
EndChar

StartChar: period
Encoding: 46 46 133
Width: 208
GlyphClass: 1
Flags: W
HStem: -12 129<15.7337 111.139>
VStem: -1 129<4.73368 100.139>
LayerCount: 2
Fore
SplineSet
128 52 m 0
 128 16.5830650367 98.9703245721 -12 63 -12 c 0
 27.9611627389 -12 -1 16.9611627389 -1 52 c 0
 -1 87.9703245719 27.5830650369 117 63 117 c 0
 99.3517218525 117 128 88.3517218525 128 52 c 0
EndSplineSet
EndChar

StartChar: slash
Encoding: 47 47 134
Width: 371
GlyphClass: 1
Flags: W
HStem: 0 21G<-50 49.0359> 648 20G<339.964 439>
VStem: -50 87<0 87> 352 87<581 668>
DStem2: -50 0 37 0 0.515627 0.856813<44.8596 779.633>
LayerCount: 2
Fore
SplineSet
-50 0 m 1
 352 668 l 1
 439 668 l 1
 37 0 l 1
 -50 0 l 1
EndSplineSet
EndChar

StartChar: braceleft
Encoding: 123 123 135
Width: 322
GlyphClass: 1
Flags: W
HStem: -162 71<126.244 192> 220 67<37 73.3548> 596 72<260.817 353>
DStem2: 11.8798 -162 191.908 -162 0.207912 0.978148<44.3396 822.408> 11.8798 -162 99.0923 -162 0.207912 0.978148<100.384 371.99 477.821 792.196>
LayerCount: 2
Fore
SplineSet
149 -162 m 2
 46.0632868707 -162 18.6064633605 -127.170510918 41 -25 c 2
 73 125 l 2
 88.0045351109 196.688334419 75.7352374367 220 23 220 c 1
 37 287 l 1
 90.0775789244 287 113.15980053 311.096824753 128 382 c 2
 163 545 l 2
 183.693749324 642.260621821 217.594393755 668 325 668 c 2
 368 668 l 1
 353 596 l 1
 311 596 l 2
 269.335890314 596 257.89144776 584.734376862 247 533 c 2
 214 380 l 2
 199.024067573 307.424327472 166.988618013 270.049636319 106 254 c 1
 106 253 l 1
 159.492227586 237.716506404 175.421431264 200.548364491 160 127 c 2
 128 -26 l 2
 116.962468879 -78.7348709079 123.944157747 -91 165 -91 c 2
 207 -91 l 1
 192 -162 l 1
 149 -162 l 2
EndSplineSet
EndChar

StartChar: bar
Encoding: 124 124 136
Width: 289
GlyphClass: 1
Flags: W
HStem: -161 21G<96 177> 648 20G<96 177>
VStem: 96 81<-161 668>
LayerCount: 2
Fore
SplineSet
96 -161 m 1
 96 668 l 1
 177 668 l 1
 177 -161 l 1
 96 -161 l 1
EndSplineSet
EndChar

StartChar: braceright
Encoding: 125 125 137
Width: 322
GlyphClass: 1
Flags: W
HStem: -163 72<-47 45.1826> 218 67<232.939 269> 596 71<114 179.84>
DStem2: 30.3049 -163 116.856 -163 0.207912 0.978148<74.5169 387.226 495.54 766.547>
LayerCount: 2
Fore
SplineSet
-62 -163 m 1
 -47 -91 l 1
 -5 -91 l 2
 36.6641096867 -91 48.1085522396 -79.7343768619 59 -28 c 2
 92 125 l 2
 108.2700606 198.215272702 139.974533707 235.20382466 200 251 c 1
 200 252 l 1
 146.093803341 268.941947521 130.676072409 304.91665303 146 378 c 2
 181 542 l 2
 189.869489179 583.813306132 180.842308536 596 141 596 c 2
 99 596 l 1
 114 667 l 1
 157 667 l 2
 260.370971167 667 287.249525609 632.904055939 265 530 c 2
 233 380 l 2
 218.197055373 309.274820117 230.973276487 285 283 285 c 1
 269 218 l 1
 216.626350015 218 192.643384806 192.962838518 178 123 c 2
 143 -40 l 2
 122.306250676 -137.260621821 88.4056062453 -163 -19 -163 c 2
 -62 -163 l 1
EndSplineSet
EndChar

StartChar: asciitilde
Encoding: 126 126 138
Width: 539
GlyphClass: 1
Flags: W
HStem: 195 73<276.392 412.546> 249 74<113.103 248.635>
LayerCount: 2
Fore
SplineSet
500 297 m 1x80
 484.874668432 233.748613441 433.20985051 195 364 195 c 0x80
 289.259754875 195 238.740245125 249 164 249 c 0
 129.239333694 249 106.437160427 231.185802135 100 199 c 1
 25 221 l 1
 40.1985922592 284.557749448 91.8318111376 323 162 323 c 0x40
 239.2704247 323 285.7295753 268 363 268 c 0
 395.765776916 268 419.670247641 287.351238206 426 319 c 1
 500 297 l 1x80
EndSplineSet
EndChar

StartChar: exclamdown
Encoding: 161 161 139
Width: 283
GlyphClass: 1
Flags: W
HStem: -161 21G<0 95.2775> 390 129<128.861 224.266>
VStem: 0 91<-161 -70> 112 129<406.861 502.266>
LayerCount: 2
Fore
SplineSet
0 -161 m 1
 37 12 l 1
 119 311 l 1
 174 311 l 1
 128 12 l 1
 91 -161 l 1
 0 -161 l 1
241 455 m 0
 241 419.029675428 212.416934963 390 177 390 c 0
 140.648278148 390 112 418.648278148 112 455 c 0
 112 490.416934963 141.029675428 519 177 519 c 0
 212.038837261 519 241 490.038837261 241 455 c 0
EndSplineSet
EndChar

StartChar: cent
Encoding: 162 162 140
Width: 492
GlyphClass: 1
Flags: W
HStem: -12 73<240 312.64> 428 75<212.487 267 332 365.978>
VStem: 25 91<108.62 311.885> 157 51<-87 -36> 297 50<521 571>
DStem2: 157 -87 208 -87 0.207912 0.978148<10.6035 80.8082 162.023 526.616 611.535 672.729>
LayerCount: 2
Fore
SplineSet
267 428 m 1
 177.129615147 414.020162356 116 320.09916425 116 196 c 0
 116 128.33139999 140.95517727 85.1656879555 190 68 c 1
 267 428 l 1
240 61 m 1
 290.113543352 62.2528385838 330.567823284 84.1379408424 362 127 c 1
 433 98 l 1
 391.43711491 28.7285248503 316.764495248 -10.5728539193 224 -12 c 1
 208 -87 l 1
 157 -87 l 1
 174 -8 l 1
 79.5127751922 9.30047778152 25 82.106130555 25 191 c 0
 25 365.645723711 133.19547203 496.486759654 283 503 c 1
 297 571 l 1
 347 571 l 1
 332 501 l 1
 401.333333334 491 450.666666667 454.666666666 480 392 c 1
 397 364 l 1
 386.43833808 397.005193503 357.328730439 420.219184407 318 427 c 1
 240 61 l 1
EndSplineSet
EndChar

StartChar: sterling
Encoding: 163 163 141
Width: 585
GlyphClass: 1
Flags: W
HStem: -12 78<284.017 475.532> 25 77<113.281 281.743> 317 51<86 172 276 457> 608 71<298.069 466.708>
VStem: 153 90<370.712 555.947> 192 90<188.378 316.396>
LayerCount: 2
Fore
SplineSet
178 25 m 0x74
 136.511182516 25 92.0799474725 13.5038063175 35 -12 c 1
 22 55 l 2
 121.586990032 90.1483494228 192 176.714932266 192 264 c 0xb4
 192 283.999999999 189.333333333 301.666666666 184 317 c 1
 75 317 l 1
 86 368 l 1
 172 368 l 1
 158.427980502 415.502068242 153 448.355634438 153 483 c 0
 153 604.424686128 241.653306797 679 386 679 c 0
 496.272935366 679 570.223939714 632.104241145 591 549 c 1
 508 526 l 1
 486.443055087 586.866667991 453.96988639 608 382 608 c 0
 293.720693142 608 243 561.29317466 243 480 c 0xb8
 243 451.983495646 245.887966022 437.28112317 265 368 c 1
 468 368 l 1
 457 317 l 1
 276 317 l 1
 279.867174099 306.687535736 282 291.04681246 282 273 c 0
 282 230.333333333 268.833333333 193.833333333 242.5 163.5 c 0
 216.166666668 133.166666668 185.333333334 108.666666668 150 90 c 1
 170.763554749 98.0747157356 191.044190114 102 212 102 c 0x74
 284.512975019 102 299.487024981 66 372 66 c 0
 406.358178246 66 443.447379689 74.062869879 487 91 c 1
 497 18 l 1
 446.302959599 -2.52023063822 404.907966719 -12 366 -12 c 0xb4
 282.136165368 -12 261.863834632 25 178 25 c 0x74
EndSplineSet
EndChar

StartChar: currency
Encoding: 164 164 142
Width: 666
GlyphClass: 1
Flags: W
HStem: 103 75<264.457 413.021> 463 76<265.236 413.29>
VStem: 121 76<246.041 395.678> 481 76<246.506 395.29>
DStem2: 138 558 102 522 0.7063 -0.707913<0.0580521 96.5551 523.578 619.483> 102 119 138 84 0.7063 0.707913<0.649861 96.8892 523.902 620.075>
LayerCount: 2
Fore
SplineSet
197 321 m 0
 197 241.955208047 260.50796883 178 339 178 c 0
 417.797611607 178 481 241.647475635 481 321 c 0
 481 399.657738289 417.657738289 463 339 463 c 0
 260.64910784 463 197 399.35089216 197 321 c 0
339 103 m 0
 289.933146192 103 243.253483048 118.905662997 204 149 c 1
 138 84 l 1
 102 119 l 1
 168 185 l 1
 136.666666667 225.666666668 121 271.000000001 121 321 c 0
 121 369.818003638 137.705934597 417.803134926 168 456 c 1
 102 522 l 1
 138 558 l 1
 204 492 l 1
 242.550917357 522.840733885 288.965830666 539 339 539 c 0
 389.755482659 539 437.143461446 522.501962941 474 492 c 1
 540 558 l 1
 576 522 l 1
 510 456 l 1
 540.501962941 419.143461445 557 371.755482659 557 321 c 0
 557 270.597872318 540.665372182 223.331715227 510 185 c 1
 576 119 l 1
 540 84 l 1
 474 149 l 1
 436.501459071 119.259777885 388.782545714 103 339 103 c 0
EndSplineSet
EndChar

StartChar: yen
Encoding: 165 165 143
Width: 598
GlyphClass: 1
Flags: W
HStem: 0 21G<178 279.186> 86 51<58 196 304 439> 223 51<87 218 352 468> 648 20G<90 192.195 538.484 668>
VStem: 90 96<572 668> 554 114<554 668>
DStem2: 186 668 90 668 0.308977 -0.95107<0 354.855> 178 0 275 0 0.207912 0.978148<20.1674 87.8631 160.203 227.899> 291 329 352 274 0.62566 0.780096<0 429.001>
LayerCount: 2
Fore
SplineSet
178 0 m 1
 196 86 l 1
 47 86 l 1
 58 137 l 1
 207 137 l 1
 225 223 l 1
 76 223 l 1
 87 274 l 1
 218 274 l 1
 90 668 l 1
 186 668 l 1
 291 329 l 1
 554 668 l 1
 668 668 l 1
 352 274 l 1
 479 274 l 1
 468 223 l 1
 322 223 l 1
 304 137 l 1
 450 137 l 1
 439 86 l 1
 293 86 l 1
 275 0 l 1
 178 0 l 1
EndSplineSet
EndChar

StartChar: brokenbar
Encoding: 166 166 144
Width: 289
GlyphClass: 1
Flags: W
HStem: -161 21G<96 177> 648 20G<96 177>
VStem: 96 81<-161 149 358 668>
LayerCount: 2
Fore
SplineSet
96 -161 m 1
 96 149 l 1
 177 149 l 1
 177 -161 l 1
 96 -161 l 1
96 358 m 1
 96 668 l 1
 177 668 l 1
 177 358 l 1
 96 358 l 1
EndSplineSet
EndChar

StartChar: section
Encoding: 167 167 145
Width: 526
GlyphClass: 1
Flags: W
HStem: -174 72<70.2291 216.099> 612 68<291.298 437.158>
VStem: 39 86<225.894 328.802> 178 87<491.604 585.876> 251 89<-68.546 34.9529> 397 90<189.552 293.723>
DStem2: 319 463.5 260 391 0.795729 -0.605653<-18.6465 181.181>
LayerCount: 2
Fore
SplineSet
260 391 m 1xe4
 184.187987165 376.258775283 125 326.277808343 125 277 c 0
 125 252.254072436 138.812635003 229.008418406 166 208 c 0
 170.240991949 205.031305636 245.627129648 145.829762471 254.5 138.5 c 2
 266 129 l 1
 350.858455094 155.110293875 397 193.855102575 397 239 c 0
 397 278.331186979 382.287195658 295.713128392 284 372.5 c 0
 273.333333317 380.833333346 265.333333325 387.000000006 260 391 c 1xe4
340 2 m 0xec
 340 -98.1859420459 251.693852951 -174 135 -174 c 0
 41.7564241806 -174 -25.50056875 -129.036055288 -43 -55 c 1
 43 -32 l 1
 48.9116525091 -75.7462285675 85.291878637 -102 140 -102 c 0
 204.58703589 -102 251 -66.8766758086 251 -18 c 0xec
 251 18.692047709 232.46084368 41.1637523397 152 102 c 0
 59.7241887798 173.439337718 39 201.682922427 39 256 c 0
 39 344.809702537 104.748593755 412.447623699 213 435 c 1
 190.40205827 457.59794173 178 488.425915143 178 522 c 0
 178 612.940260098 257.792601909 680 366 680 c 0
 452.725509203 680 519.847859738 642.317276893 537 584 c 1
 454 561 l 1
 449.235199594 591.971202635 415.068427619 612 367 612 c 0
 306.412169038 612 265 582.361879022 265 539 c 0xf4
 265 513.507154335 280.89304731 491.28631967 319 463.5 c 0
 330.091887375 455.412165456 426.412469635 377.861816515 427.5 377 c 0
 469.355587776 343.831421008 487 312.694222966 487 272 c 0
 487 183.158067639 430.109819931 121.036606644 313 82 c 1
 331 60 340 33.3333333333 340 2 c 0xec
EndSplineSet
EndChar

StartChar: dieresis
Encoding: 168 168 146
Width: 427
GlyphClass: 1
Flags: W
HStem: 590 107<139.78 226.41 351.503 437.41>
VStem: 129 108<601.373 686.497> 341 107<600.702 686.574>
LayerCount: 2
Fore
SplineSet
448 644 m 0
 448 613.707428502 424.292571498 590 394 590 c 0
 364.640977983 590 341 614.087034171 341 644 c 0
 341 673.620828901 364.379171099 697 394 697 c 0
 424.557142186 697 448 673.991269182 448 644 c 0
237 644 m 0
 237 613.707428502 213.292571498 590 183 590 c 0
 153.355316064 590 129 614.355316064 129 644 c 0
 129 673.359022017 153.087034171 697 183 697 c 0
 213.557142186 697 237 673.991269182 237 644 c 0
EndSplineSet
EndChar

StartChar: copyright
Encoding: 169 169 147
Width: 814
GlyphClass: 1
Flags: W
HStem: -12 62<312.298 519.702> 150 59<359.468 482.358> 473 58<358.195 477.031> 618 62<312.298 519.702>
VStem: 70 62<230.298 437.702> 244 76<251.344 431.004> 700 62<230.298 437.702>
LayerCount: 2
Fore
SplineSet
567 230 m 1
 538.148601069 178.371180859 485.307276719 150 418 150 c 0
 307.857056163 150 244 220.462958525 244 342 c 0
 244 459.814980604 310.28869531 531 420 531 c 0
 486.070721531 531 536.890173636 502.260723637 565 449 c 1
 498 424 l 1
 480.666666667 456.666666667 454 473 418 473 c 0
 355.624599169 473 320 425.379362335 320 342 c 0
 320 258.022608922 356.121922364 209 418 209 c 0
 457.028129068 209 485.6768755 224.532452885 501 254 c 1
 567 230 l 1
132 334 m 0
 132 176.331302459 258.331302459 50 416 50 c 0
 573.668697541 50 700 176.331302459 700 334 c 0
 700 491.668697541 573.668697541 618 416 618 c 0
 258.331302459 618 132 491.668697541 132 334 c 0
762 334 m 0
 762 142.800581292 607.199418708 -12 416 -12 c 0
 224.800581292 -12 70 142.800581292 70 334 c 0
 70 525.199418708 224.800581292 680 416 680 c 0
 607.199418708 680 762 525.199418708 762 334 c 0
EndSplineSet
EndChar

StartChar: questiondown
Encoding: 191 191 148
Width: 527
GlyphClass: 1
Flags: W
HStem: -175 70<107.858 275.224> 388 129<275.025 370.139>
VStem: -14 91<-75.0824 33.7266> 255 85<240.918 316> 259 128<404.601 500.273>
LayerCount: 2
Fore
SplineSet
178 -175 m 0xf0
 61.9090692876 -175 -14 -117.277478563 -14 -29 c 0
 -14 47.5493091037 31.855171738 102.454843685 138 153 c 0
 211.859890997 188.983023819 246.203203994 236.828835943 255 316 c 1
 340 316 l 1
 331.02885917 235.259732529 294.403051103 166.199129259 239.5 126.5 c 0
 179.430313215 83.0649957093 151.288509724 81.3290265393 105 40 c 0
 86.3333333333 23.3333333333 77 2.33333333335 77 -23 c 0
 77 -71.3241893809 119.7107842 -105 181 -105 c 0
 265 -105 319.333333333 -68.6666666668 344 4 c 1
 421 -20 l 1
 385.659658674 -119.710248745 298.979597028 -175 178 -175 c 0xf0
387 452 m 0xe8
 387 416.583065037 357.970324572 388 322 388 c 0
 286.596461024 388 259 416.034500088 259 452 c 0
 259 488.905066375 286.230474129 517 322 517 c 0
 358.351721852 517 387 488.351721852 387 452 c 0xe8
EndSplineSet
EndChar

StartChar: germandbls
Encoding: 223 223 149
Width: 605
GlyphClass: 1
Flags: W
HStem: -13 77<239 380.217> 0 21G<14 104.248> 329 77<305 404.622> 610 70<279.429 450.971>
VStem: 14 86<0 86> 483 87<460.962 581.06>
DStem2: 11.2368 -13 97.2368 -13 0.207912 0.978148<31.1708 602.979>
LayerCount: 2
Fore
SplineSet
570 534 m 0x7c
 570 452.688933708 517.782482116 388.114598615 439 372 c 1
 522.042015939 341.035180498 553.028591533 291.286091242 548 197 c 0
 543.035083934 105.149052757 490.48867466 38.4962248867 399 8 c 0
 357 -6.00000000005 312.666666667 -13 266 -13 c 2
 252.5 -13 l 2
 248.166666667 -13 243.666666667 -12.6666666667 239 -12 c 1
 233 67 l 1
 249 65 264.666666667 64 280 64 c 0xbc
 390.637198434 64 454 120.079720926 454 218 c 0
 454 291.066241831 406.244351198 326.171387638 303 329 c 2
 289 329 l 1
 305 406 l 1
 320 406 l 2
 420.273169946 410.178048748 483 454.818001424 483 522 c 0
 483 578.03000715 443.40080431 610 374 610 c 0
 270.580240114 610 219.598026085 564.746124626 196 452 c 2
 100 0 l 1
 14 0 l 1
 110 452 l 2
 146.748136924 617.366616158 220.369833721 680 378 680 c 0
 496.937381396 680 570 624.441967103 570 534 c 0x7c
EndSplineSet
EndChar

StartChar: AE
Encoding: 198 198 150
Width: 987
GlyphClass: 1
Flags: W
HStem: 0 81<549 891> 145 81<267 466> 303 80<613 862> 586 81<656 1015>
VStem: -52 112<0 112>
DStem2: -52 0 60 0 0.686079 0.727527<76.8408 274.267 383.28 383.28> 435.179 0 531.783 0 0.207912 0.978148<102.895 148.239 231.004 329.815 411.602 540.897>
AnchorPoint: "Anchor-1" 738 667 basechar 0
LayerCount: 2
Fore
SplineSet
267 226 m 1
 483 226 l 1
 548 529 l 1
 267 226 l 1
-52 0 m 1
 577 667 l 1
 1032 667 l 1
 1015 586 l 1
 656 586 l 1
 613 383 l 1
 879 383 l 1
 862 303 l 1
 596 303 l 1
 549 81 l 1
 908 81 l 1
 891 0 l 1
 435 0 l 1
 466 145 l 1
 194 145 l 1
 60 0 l 1
 -52 0 l 1
EndSplineSet
EndChar

StartChar: florin
Encoding: 279 402 151
Width: 330
GlyphClass: 1
Flags: W
HStem: -173 78<-58.1692 22.8954> 428 68<69 138 237 325> 635 71<275.292 368>
DStem2: 10.3291 -173 96.3049 -173 0.207912 0.978148<81.8257 614.411 701.508 838.553>
LayerCount: 2
Fore
SplineSet
-56 -90 m 1
 -35.7883480413 -94.0423303918 -29.2761947054 -95 -22 -95 c 0
 12.6892671859 -95 31.4294507717 -74.2101088345 42 -24 c 2
 138 428 l 1
 54 428 l 1
 69 496 l 1
 153 496 l 1
 165 555 l 2
 191.636174651 679.985127209 220.924442031 706 335 706 c 2
 384 706 l 1
 368 635 l 1
 328 635 l 2
 285.334351542 635 262.521947296 615.229249653 253 570 c 2
 237 496 l 1
 339 496 l 1
 325 428 l 1
 224 428 l 1
 125 -38 l 2
 105.52000611 -134.008541313 67.6838499026 -173 -6 -173 c 0
 -25.2969877101 -173 -45.8112309636 -170.51342506 -72 -165 c 1
 -56 -90 l 1
EndSplineSet
EndChar

StartChar: integral
Encoding: 280 8747 152
Width: 306
GlyphClass: 1
Flags: W
HStem: -173 112<-14.26 59.1645> 569 112<231.863 305.26>
VStem: -30 99<-126.761 -70.2232> 104 84<-97.1272 604.71> 221 100<578.215 634.761>
LayerCount: 2
Fore
SplineSet
188 44 m 0
 188 -102.128693877 144.56274786 -173 55 -173 c 0
 0.315330499141 -173 -30 -150.887641283 -30 -111 c 0
 -30 -83.3801691687 -7.6198308313 -61 20 -61 c 0
 47.7609745428 -61 69 -83.1059244554 69 -112 c 2
 69 -119.5 l 2
 69 -121.833333333 68.3333333333 -124.333333333 67 -127 c 1
 92.7249889531 -122.322729282 104 -93.0686465657 104 -31 c 0
 104 185.157190095 103 247.842809905 103 464 c 0
 103 609.157371 147.032579064 681 236 681 c 0
 290.684669501 681 321 658.887641283 321 619 c 0
 321 590.740272279 299.259727721 569 271 569 c 0
 243.349460568 569 221 591.349460568 221 619 c 0
 221 625 222 630.333333333 224 635 c 1
 198.285682777 630.324669597 187 600.737879612 187 538 c 0
 187 321.845349357 188 260.154650643 188 44 c 0
EndSplineSet
EndChar

StartChar: approxequal
Encoding: 281 8776 153
Width: 605
GlyphClass: 1
Flags: W
HStem: 97 73<308.392 444.546> 151 74<145.103 280.635> 283 73<310.557 444.638> 337 74<145.933 281.443>
VStem: 57 75<120.947 137.43 306.947 323.559> 458 74<184.631 201.081 370.631 387.081>
LayerCount: 2
Fore
SplineSet
532 199 m 1x8c
 516.874668432 135.748613441 465.20985051 97 396 97 c 0x8c
 321.259754875 97 270.740245125 151 196 151 c 0
 161.239333694 151 138.437160427 133.185802135 132 101 c 1
 57 123 l 1
 72.1985922592 186.557749448 123.831811138 225 194 225 c 0x4c
 271.2704247 225 317.7295753 170 395 170 c 0
 427.765776916 170 451.670247641 189.351238206 458 221 c 1
 532 199 l 1x8c
532 385 m 1
 516.874668432 321.748613441 465.20985051 283 396 283 c 0x2c
 321.259754875 283 270.740245125 337 196 337 c 0
 161.239333694 337 138.437160427 319.185802135 132 287 c 1
 57 309 l 1
 73.7492397899 373.205419194 125.253619515 411 196 411 c 0x1c
 273.269034 411 318.730966 356 396 356 c 0x2c
 428.41230676 356 451.617653881 375.088269406 458 407 c 1
 532 385 l 1
EndSplineSet
EndChar

StartChar: notequal
Encoding: 282 8800 154
Width: 658
GlyphClass: 1
Flags: W
HStem: 0 21G<97 211.05> 121 79<73 182 337 569> 307 80<73 312 468 569> 476 20G<430.872 544>
VStem: 97 100<0 100> 445 99<397 496>
DStem2: 97 0 197 0 0.574348 0.818611<57.4348 147.872 301.566 374.798 529.886 605.904>
LayerCount: 2
Fore
SplineSet
97 0 m 1
 182 121 l 1
 73 121 l 1
 73 200 l 1
 238 200 l 1
 312 307 l 1
 73 307 l 1
 73 387 l 1
 368 387 l 1
 445 496 l 1
 544 496 l 1
 468 387 l 1
 569 387 l 1
 569 307 l 1
 412 307 l 1
 337 200 l 1
 569 200 l 1
 569 121 l 1
 282 121 l 1
 197 0 l 1
 97 0 l 1
EndSplineSet
EndChar

StartChar: lessequal
Encoding: 283 8804 155
Width: 651
GlyphClass: 1
Flags: W
HStem: 0 80<63 536> 100 90<446 536> 414 91<445 536>
VStem: 63 105<214.5 389.5>
LayerCount: 2
Fore
SplineSet
63 0 m 1
 63 80 l 1
 536 80 l 1
 536 0 l 1
 63 0 l 1
536 100 m 1
 63 267 l 1
 63 337 l 1
 536 505 l 1
 536 414 l 1
 168 302 l 1
 536 190 l 1
 536 100 l 1
EndSplineSet
EndChar

StartChar: greaterequal
Encoding: 284 8805 156
Width: 686
GlyphClass: 1
Flags: W
HStem: 0 80<98 571> 100 90<98 188> 414 91<98 189>
VStem: 466 105<214.5 389.5>
LayerCount: 2
Fore
SplineSet
98 0 m 1
 98 80 l 1
 571 80 l 1
 571 0 l 1
 98 0 l 1
98 100 m 1
 98 190 l 1
 466 302 l 1
 98 414 l 1
 98 505 l 1
 571 337 l 1
 571 267 l 1
 98 100 l 1
EndSplineSet
EndChar

StartChar: lozenge
Encoding: 285 9674 157
Width: 561
GlyphClass: 1
Flags: W
VStem: 58 87<271.5 358.5> 426 87<271.5 358.5>
DStem2: 58 315 145 315 0.506632 0.862163<44.077 321.569> 145 315 58 315 0.506632 -0.862163<0 277.492> 286 703 286 554 0.504977 -0.863133<128.607 405.592> 286 76 286 -73 0.504977 0.863133<0 276.986>
LayerCount: 2
Fore
SplineSet
286 76 m 1
 426 315 l 1
 286 554 l 1
 145 315 l 1
 286 76 l 1
286 -73 m 1
 58 315 l 1
 286 703 l 1
 513 315 l 1
 286 -73 l 1
EndSplineSet
EndChar

StartChar: summation
Encoding: 286 8721 158
Width: 763
GlyphClass: 1
Flags: W
HStem: -161 81<224 604> 587 81<224 604>
DStem2: 224 587 123 587 0.594187 -0.804327<0 353.998> 123 -80 224 -80 0.593035 0.805177<59.8965 414.816>
LayerCount: 2
Fore
SplineSet
123 -161 m 1
 123 -80 l 1
 369 254 l 1
 123 587 l 1
 123 668 l 1
 604 668 l 1
 604 587 l 1
 224 587 l 1
 469 254 l 1
 224 -80 l 1
 604 -80 l 1
 604 -161 l 1
 123 -161 l 1
EndSplineSet
EndChar

StartChar: minus
Encoding: 287 8722 159
Width: 619
GlyphClass: 1
Flags: W
HStem: 209 79<42 538>
LayerCount: 2
Fore
SplineSet
42 209 m 1
 42 288 l 1
 538 288 l 1
 538 209 l 1
 42 209 l 1
EndSplineSet
EndChar

StartChar: uni2215
Encoding: 288 8725 160
Width: 444
GlyphClass: 1
Flags: W
HStem: 0 21G<-47 55.012> 648 20G<406.988 509>
VStem: -47 88<0 88> 421 88<580 668>
DStem2: -47 0 41 0 0.573791 0.819001<50.4936 815.627>
LayerCount: 2
Fore
SplineSet
-47 0 m 1
 421 668 l 1
 509 668 l 1
 41 0 l 1
 -47 0 l 1
EndSplineSet
EndChar

StartChar: uni2219
Encoding: 289 8729 161
Width: 237
GlyphClass: 1
Flags: W
HStem: 191 129<62.7271 158.176>
VStem: 46 129<208.087 303.266>
LayerCount: 2
Fore
SplineSet
175 256 m 0
 175 220.675524087 145.781022437 191 111 191 c 0
 74.3128697803 191 46 218.877287168 46 255 c 0
 46 291.351721852 74.6482781476 320 111 320 c 0
 146.038837261 320 175 291.038837261 175 256 c 0
EndSplineSet
EndChar

StartChar: radical
Encoding: 290 8730 162
Width: 513
GlyphClass: 1
Flags: W
HStem: -161 21G<257.157 367.639> 145 80<39 145> 649 20G<423.516 515>
VStem: 427 88<581 669>
DStem2: 201 225 145 145 0.365088 -0.930973<54.033 281.519> 304 -37 364 -161 0.17899 0.983851<0 716.615>
LayerCount: 2
Fore
SplineSet
265 -161 m 1
 145 145 l 1
 39 145 l 1
 39 225 l 1
 201 225 l 1
 304 -37 l 1
 427 669 l 1
 515 669 l 1
 364 -161 l 1
 265 -161 l 1
EndSplineSet
EndChar

StartChar: infinity
Encoding: 291 8734 163
Width: 780
GlyphClass: 1
Flags: W
HStem: 104 76<154.495 279.303 486.898 610.505> 330 76<153.871 280.294 484.867 611.129>
VStem: 49 81<204.643 306.695> 635 81<204.643 306.695>
LayerCount: 2
Fore
SplineSet
431 256 m 1
 477.431583358 200.28209997 509.722821468 180 552 180 c 0
 599.008815256 180 635 212.955783621 635 256 c 0
 635 300.191166552 600.357301669 330 549 330 c 0
 508.630492802 330 476.364609326 309.765462905 431 256 c 1
130 256 m 0
 130 212.955783621 165.991184744 180 213 180 c 0
 256.38923191 180 290.8591436 201.473059741 335 256 c 1
 289.357661562 310.094623334 257.34766395 330 216 330 c 0
 164.642698331 330 130 300.191166552 130 256 c 0
556 104 m 0
 495.640110523 104 443.190392127 132.49869092 383 198 c 1
 360.333333333 173.333333333 335 151.5 307 132.5 c 0
 279 113.5 246.333333333 104 209 104 c 0
 114.004223482 104 49 165.754012308 49 256 c 0
 49 344.543490472 117.011870544 406 215 406 c 0
 274.617220982 406 327.000710635 378.249222743 383 317 c 1
 404.333333333 340.333333333 428.5 361 455.5 379 c 0
 482.5 397 514 406 550 406 c 0
 647.988129456 406 716 344.543490472 716 256 c 0
 716 165.754012308 650.995776518 104 556 104 c 0
EndSplineSet
EndChar

StartChar: uni03A9
Encoding: 292 937 164
Width: 773
GlyphClass: 1
Flags: W
HStem: 0 173<259.779 311 426 477.221> 0 81<75 226 511 662> 606 74<273.299 463.089>
VStem: 75 73<289.48 480.239> 226 85<81 143.253> 426 85<81 143.109> 589 73<289.176 480.249>
LayerCount: 2
Fore
SplineSet
148 385 m 0xbe
 148 285.233666145 213.573628596 199.94771975 311 173 c 1
 311 0 l 1xbe
 75 0 l 1
 75 81 l 1
 226 81 l 1
 226 130 l 1
 132.135897797 183.236356474 75 279.724130899 75 385 c 0
 75 548.622133613 205.487168988 680 368 680 c 0
 530.625210122 680 662 548.178357095 662 385 c 0
 662 278.636600563 605.133717068 182.604136008 511 130 c 1
 511 81 l 1
 662 81 l 1
 662 0 l 1x7e
 426 0 l 1
 426 173 l 1
 523.426371404 199.947719751 589 285.233666145 589 385 c 0
 589 506.992013989 489.992013989 606 368 606 c 0
 247.001395604 606 148 506.548598052 148 385 c 0xbe
EndSplineSet
EndChar

StartChar: estimated
Encoding: 293 8494 165
Width: 628
GlyphClass: 1
Flags: W
HStem: -12 32<226.789 390.552> 248 31<156 460> 472 32<226.198 390.562>
VStem: 50 106<149.688 248 279 351.109> 460 106<279 347.821>
LayerCount: 2
Fore
SplineSet
308 472 m 0
 250.462630485 472 196.965866469 451.234808705 156 413 c 1
 156 279 l 1
 460 279 l 1
 460 413 l 1
 419.034133531 451.234808705 365.537369516 472 308 472 c 0
511 87 m 1
 462.227325935 24.2922762022 387.809830288 -12 308 -12 c 0
 160.960426089 -12 50 103.261217798 50 256 c 0
 50 389.591348051 169.021904044 504 308 504 c 0
 450.906394397 504 566 389.79859289 566 248 c 1
 156 248 l 1
 156 78 l 1
 197.690425026 40.4786174764 251.358525999 20 308 20 c 0
 373.069726169 20 434.407118617 47.7822306973 478 97 c 1
 511 87 l 1
EndSplineSet
EndChar

StartChar: partialdiff
Encoding: 294 8706 166
Width: 595
GlyphClass: 1
Flags: W
HStem: -12 73<214.816 361.963> 430 74<214.794 362.875> 598 82<140 306.635>
VStem: 51 89<146.727 345.031> 437 91<145.181 344.686>
LayerCount: 2
Fore
SplineSet
140 246 m 0
 140 136.507252701 200.813949473 61 289 61 c 0
 377.198812965 61 437 135.751483794 437 246 c 0
 437 355.586312991 377.145512623 430 289 430 c 0
 200.86648404 430 140 354.836019709 140 246 c 0
528 277 m 0
 528 93.1506878855 441.041472648 -12 289 -12 c 0
 146.896399113 -12 51 91.9549200464 51 246 c 0
 51 400.24438159 146.712547215 504 289 504 c 0
 343.617387558 504 394.429379025 483.213276218 421 450 c 1
 386.879485087 559.185647722 303.895701831 602.89240901 140 598 c 1
 140 680 l 1
 413.960184558 680 528 561.551428807 528 277 c 0
EndSplineSet
EndChar

StartChar: uni0394
Encoding: 295 916 167
Width: 759
GlyphClass: 1
Flags: W
HStem: 0 78<116 518> 660 20G<307.412 326.618>
DStem2: -9 0 116 78 0.4323 0.90173<124.372 589.991> 317 680 317 498 0.433377 -0.901213<164.021 629.639>
LayerCount: 2
Fore
SplineSet
116 78 m 1
 518 78 l 1
 317 498 l 1
 116 78 l 1
-9 0 m 1
 317 680 l 1
 644 0 l 1
 -9 0 l 1
EndSplineSet
EndChar

StartChar: product
Encoding: 296 8719 168
Width: 761
GlyphClass: 1
Flags: W
HStem: -161 21G<133 214 530 612> 587 81<214 530>
VStem: 133 81<-161 587> 530 82<-161 587>
LayerCount: 2
Fore
SplineSet
133 -161 m 1
 133 668 l 1
 612 668 l 1
 612 -161 l 1
 530 -161 l 1
 530 587 l 1
 214 587 l 1
 214 -161 l 1
 133 -161 l 1
EndSplineSet
EndChar

StartChar: pi
Encoding: 297 960 169
Width: 590
GlyphClass: 1
Flags: W
HStem: 0 75<430.49 488> 416 80<63 129 212 406 492 576>
VStem: 41 83<0 83> 338 90<44.338 194.633>
DStem2: 41 0 124 0 0.207912 0.978148<17.2567 425.206> 318.43 0 404.242 0 0.207912 0.978148<121.709 425.116>
LayerCount: 2
Fore
SplineSet
437 0 m 2
 366.230875388 0 338 19.6760646647 338 69 c 0
 338 82.4571093007 339.953584013 98.085781401 345 125 c 2
 406 416 l 1
 212 416 l 1
 124 0 l 1
 41 0 l 1
 129 416 l 1
 46 416 l 1
 63 496 l 1
 594 496 l 1
 576 416 l 1
 492 416 l 1
 434 140 l 2
 428 104 428 104 428 101 c 0
 428 82.15650065 440.1110011 75 472 75 c 2
 504 75 l 1
 488 0 l 1
 437 0 l 2
EndSplineSet
EndChar

StartChar: hungarumlaut
Encoding: 298 733 170
Width: 394
GlyphClass: 1
Flags: W
HStem: 572 136<249 271.821>
VStem: 103 329
LayerCount: 2
Fore
SplineSet
396 708 m 0
 416.877855247 708 432 692.037736094 432 670 c 0
 432 647.880657277 421.879550819 638.586367213 334 580 c 2
 322 572 l 1
 249 572 l 1
 264.5 589 l 2
 316.085740168 645.577908549 360.460309848 691.845232385 370 699 c 0
 378 705 386.666666667 708 396 708 c 0
250 708 m 0
 271.820821522 708 287 692.820821522 287 671 c 0
 287 647.919329602 277.126196063 638.750797375 189 580 c 2
 177 572 l 1
 103 572 l 1
 113.5 583 l 2
 114.606189772 584.158865475 212.305016275 689.254180229 224 699 c 0
 232 705 240.666666667 708 250 708 c 0
EndSplineSet
EndChar

StartChar: tilde
Encoding: 299 732 171
Width: 420
GlyphClass: 1
Flags: W
HStem: 575 63<280.954 385.933> 617 63<167.149 282.532>
LayerCount: 2
Fore
SplineSet
424 680 m 0x40
 441.201396867 680 454 666.774776763 454 649 c 0
 454 634.032103857 438.675800976 614.020502779 411.5 593.5 c 0
 395.166666667 581.166666667 373.333333333 575 346 575 c 0x80
 283.676073457 575 279.323926543 617 217 617 c 0
 187.666666667 617 167 603.666666667 155 577 c 1
 90 577 l 1
 115.052564558 643.389296077 160.549361666 680 218 680 c 0x40
 278.13082121 680 285.86917879 638 346 638 c 0x80
 383.18031619 638 386.81968381 680 424 680 c 0x40
EndSplineSet
EndChar

StartChar: endash
Encoding: 300 8211 172
Width: 497
GlyphClass: 1
Flags: W
HStem: 208 79<40 438>
LayerCount: 2
Fore
SplineSet
40 208 m 1
 40 287 l 1
 438 287 l 1
 438 208 l 1
 40 208 l 1
EndSplineSet
EndChar

StartChar: emdash
Encoding: 301 8212 173
Width: 817
GlyphClass: 1
Flags: W
HStem: 208 79<40 758>
LayerCount: 2
Fore
SplineSet
40 208 m 1
 40 287 l 1
 758 287 l 1
 758 208 l 1
 40 208 l 1
EndSplineSet
EndChar

StartChar: trademark
Encoding: 302 8482 174
Width: 928
GlyphClass: 1
Flags: W
HStem: 292 92<592 756> 608 60<133 251 318 436>
VStem: 251 67<292 608> 473 67<292 571> 808 67<292 571>
DStem2: 581 668 540 571 0.311204 -0.950343<79.4239 298.839> 674 384 710 292 0.311204 0.950343<0 219.415>
LayerCount: 2
Fore
SplineSet
251 292 m 1
 251 608 l 1
 133 608 l 1
 133 668 l 1
 436 668 l 1
 436 608 l 1
 318 608 l 1
 318 292 l 1
 251 292 l 1
473 292 m 1
 473 668 l 1
 581 668 l 1
 674 384 l 1
 767 668 l 1
 875 668 l 1
 875 292 l 1
 808 292 l 1
 808 571 l 1
 710 292 l 1
 638 292 l 1
 540 571 l 1
 540 292 l 1
 473 292 l 1
EndSplineSet
EndChar

StartChar: Euro
Encoding: 303 8364 175
Width: 697
GlyphClass: 1
Flags: W
HStem: -12 79<294.773 473.75> 240 51<43 117.787 208 332> 376 51<72 129 238 435> 499 21G<592.57 661.621> 600 79<365.734 541.78>
VStem: 116 92<160.173 240 291 374.656>
LayerCount: 2
Fore
SplineSet
631 139 m 1
 571.813154379 40.3552572972 479.237964324 -12 364 -12 c 0
 258.97788298 -12 183.916488749 32.4170635586 146 117 c 0
 128.666666667 155.666666667 118.666666667 196.666666667 116 240 c 1
 4 240 l 1
 43 291 l 1
 116 291 l 1
 118 319.000000002 122.333333333 347.333333335 129 376 c 1
 33 376 l 1
 72 427 l 1
 144 427 l 1
 199.144309066 586.070122307 317.888041674 679 466 679 c 0
 582.400787518 679 659.922493745 626.27127189 688 528 c 1
 603 499 l 1
 582.140060145 564.18731205 530.01664303 600 456 600 c 0
 360.989206268 600 281.39050933 536.832226742 238 427 c 1
 474 427 l 1
 435 376 l 1
 221 376 l 1
 213.781734635 348.329982771 209.975951511 325.223442373 207 291 c 1
 370 291 l 1
 332 240 l 1
 208 240 l 1
 218.934690477 133.386767854 283.019027075 67 375 67 c 0
 456.079836057 67 510.092265886 97.4379438816 556 169 c 1
 631 139 l 1
EndSplineSet
EndChar

StartChar: uni2113
Encoding: 304 8467 176
Width: 451
GlyphClass: 1
Flags: W
HStem: -12 73<179.897 292.748> 609 70<280.728 363.41>
VStem: 367 80<485.452 604.818>
DStem2: 39 227 98 188 0.839193 0.543834<0 28.3028 213.3 335.791> 55.4887 -12 142.353 -12 0.207912 0.978148<113.063 204.468 381.03 648.753>
LayerCount: 2
Fore
SplineSet
367 567 m 0
 367 595.351714246 353.676673431 609 326 609 c 0
 287.678344153 609 269.097243082 584.923080302 255 517 c 2
 218 343 l 1
 300.987118357 394.37297803 367 493.613820232 367 567 c 0
345 42 m 1
 305.594114931 8.65655878726 249.744900432 -12 199 -12 c 0
 119.594451625 -12 83 19.5469410557 83 88 c 0
 81.9471943404 108.003307533 82.9179468293 114.474990793 98 188 c 1
 20 138 l 1
 39 227 l 1
 117 278 l 1
 166 506 l 2
 178 561.333333333 195.666666667 604 219 634 c 0
 242.333333333 664 279.666666667 679 331 679 c 0
 404.098163476 679 447 637.577537149 447 567 c 0
 447 454.348334674 374.485064689 362.321348496 198 251 c 1
 177 151 l 2
 163.601166974 89.3653680782 178.729363282 61 225 61 c 0
 254.249764188 61 283.984811692 73.0798630485 321 100 c 1
 345 42 l 1
EndSplineSet
EndChar

StartChar: Lslash
Encoding: 305 321 177
Width: 572
GlyphClass: 1
Flags: W
HStem: 0 82<158 500> 484 20G<389.778 422.89> 648 20G<182.745 283>
VStem: 187 96<572 668>
DStem2: 18 287 3 214 0.883367 0.468681<0 64.3605 234.827 415.537> 45 0 140.57 0 0.207912 0.978148<103.702 272.038 346.562 351.225 424.978 682.926>
LayerCount: 2
Fore
SplineSet
45 0 m 1
 102 266 l 1
 3 214 l 1
 18 287 l 1
 117 339 l 1
 187 668 l 1
 283 668 l 1
 226 396 l 1
 427 504 l 1
 412 431 l 1
 210 324 l 1
 158 82 l 1
 517 82 l 1
 500 0 l 1
 45 0 l 1
EndSplineSet
EndChar

StartChar: lslash
Encoding: 306 322 178
Width: 273
GlyphClass: 1
Flags: W
HStem: 0 75<133.399 196> 648 20G<158.767 249>
VStem: 40 91<43.6002 191.539> 163 86<582 668>
DStem2: 18 303 79 272 0.884496 0.466547<0 39.4913 194.123 262.258> 20.4304 0 106.242 0 0.207912 0.978148<126.038 278.233 419.668 683.044>
LayerCount: 2
Fore
SplineSet
131 105 m 0
 131 82.859388972 142.265124193 75 174 75 c 2
 212 75 l 1
 196 0 l 1
 140 0 l 2
 68.2358937445 0 40 19.2004077462 40 68 c 0
 40 81.7234187517 42.1153933255 98.9487644022 47 125 c 2
 79 272 l 1
 3 232 l 1
 18 303 l 1
 94 342 l 1
 163 668 l 1
 249 668 l 1
 190 393 l 1
 291 447 l 1
 276 376 l 1
 175 323 l 1
 136 140 l 2
 132.258327785 121.291638924 131 112.483344428 131 105 c 0
EndSplineSet
EndChar

StartChar: oslash
Encoding: 248 248 179
Width: 548
GlyphClass: 1
Flags: W
HStem: -12 74<163.626 312.2> 430 74<211.612 368.899>
VStem: 27 89<150.084 315.083> 413 90<183.418 347.165>
DStem2: -10 26 25 -11 0.728741 0.68479<0.168716 80.6812 179.694 524.387 618.908 705.326>
AnchorPoint: "Anchor-1" 321 496 basechar 0
LayerCount: 2
Fore
SplineSet
238 62 m 0
 339.06353673 62 413 162.553590047 413 300 c 0
 413 318 411 334 407 348 c 1
 145 102 l 1
 165.666666667 75.3333333333 196.666666667 62 238 62 c 0
290 430 m 0
 186.453757593 430 116 335.251843238 116 196 c 0
 116 175.80404925 117.477450451 161.916015014 121 149 c 1
 384 395 l 1
 362.97322848 418.500509348 332.088882156 430 290 430 c 0
503 297 m 0
 503 124.509019159 382.836720999 -12 231 -12 c 0
 168.639776884 -12 118.487364589 6.51263541076 82 43 c 1
 25 -11 l 1
 -10 26 l 1
 52 84 l 1
 35.3333333333 115.333333333 27 153.333333333 27 198 c 0
 27 374.369048291 143.922034875 504 303 504 c 0
 358.033463837 504 407.429590447 485.300037783 443 451 c 1
 504 509 l 1
 539 472 l 1
 475 411 l 1
 493.829611761 377.6860715 503 340.349490812 503 297 c 0
EndSplineSet
EndChar

StartChar: Oslash
Encoding: 216 216 180
Width: 725
GlyphClass: 1
Flags: W
HStem: -12 79<238.492 421.536> 600 79<323.681 504.259>
VStem: 53 95<182.027 402.427> 594 95<264.874 496.11>
DStem2: 4 32 39 -4 0.728976 0.684539<0.870751 109.116 217.175 735.241 837.27 945.161>
AnchorPoint: "Anchor-1" 438 668 basechar 0
LayerCount: 2
Fore
SplineSet
187 134 m 1
 218.520344649 90.6595261067 266.898778629 67 324 67 c 0
 478.583690398 67 594 207.209442776 594 395 c 0
 594 434.333333334 587.666666667 468.666666668 575 498 c 1
 187 134 l 1
418 600 m 0
 264.130583863 600 148 457.632506449 148 269 c 0
 148 237.000000001 152.666666667 207.666666668 162 181 c 1
 547 542 l 1
 514.333333333 580.666666667 471.333333333 600 418 600 c 0
689 402 m 0
 689 163.028810122 529.191086411 -12 311 -12 c 0
 230.340722645 -12 163.273595628 16.4948415306 118 70 c 1
 39 -4 l 1
 4 32 l 1
 89 112 l 1
 64.9999999999 156 53 208.333333333 53 269 c 0
 53 505.921162847 212.570244985 679 431 679 c 0
 507.211070488 679 569.454857652 654.305454005 615 606 c 1
 693 679 l 1
 728 642 l 1
 647 566 l 1
 675 520 689 465.333333333 689 402 c 0
EndSplineSet
EndChar

StartChar: Thorn
Encoding: 222 222 181
Width: 583
GlyphClass: 1
Flags: W
HStem: 155 81<151 400.656> 438 81<211 436.912>
VStem: 13 86<-8 78> 155 86<573 659> 460 102<288.696 415.419>
DStem2: 13 -8 99 -8 0.207912 0.978148<17.8804 184.595 267.36 473.886 556.65 681.948>
LayerCount: 2
Fore
SplineSet
460 366 m 0
 460 417.806376998 423.258824816 438 329 438 c 2
 194 438 l 1
 151 236 l 1
 287 236 l 2
 406.163204872 236 460 276.455395183 460 366 c 0
338 519 m 2
 489.495414425 519 562 473.36095283 562 378 c 0
 562 293.97500861 521.442177303 219.388183454 459.5 189.5 c 0
 411.833333333 166.5 345.666666667 155 261 155 c 2
 134 155 l 1
 99 -8 l 1
 13 -8 l 1
 155 659 l 1
 241 659 l 1
 211 519 l 1
 338 519 l 2
EndSplineSet
EndChar

StartChar: ae
Encoding: 230 230 182
Width: 870
GlyphClass: 1
Flags: W
HStem: -12 68<116.298 257.987 504.798 651.505> 225 67<167.589 359 456 748.965> 432 72<202.683 360.162 543.43 700.332>
VStem: 6 94<72.2486 175.754> 749 88<292.232 383.656>
AnchorPoint: "Anchor-1" 458 496 basechar 0
LayerCount: 2
Fore
SplineSet
100 120 m 0
 100 80.1372666802 128.285859391 56 175 56 c 0
 267.529914709 57.3032382354 336.962232057 120.697962771 359 224 c 1
 170.636023699 224 100 195.636500137 100 120 c 0
749 310 m 2
 749 384.346294092 700.565085798 432 625 432 c 0
 542.984464824 432 474.504713819 375.271212186 456 292 c 1
 748 292 l 2
 748.666666667 295.333333331 749 298.499999998 749 301.5 c 2
 749 310 l 2
382 100 m 1
 336.460914702 29.1614228705 256.71065789 -12 165 -12 c 0
 65.0452199629 -12 6 36.2759660074 6 118 c 0
 6 243.83327532 105.932112698 292 367 292 c 1
 373.551423959 316.895411048 377 339.311155312 377 357 c 0
 377 410.348022077 348.23935909 435 286 435 c 0
 227.232902931 435 181.913154839 407.304598389 160 358 c 1
 84 382 l 1
 119.214322559 459.471509628 190.751897254 504 280 504 c 0
 365.017458355 504 420.659009653 479.8663151 446 432 c 1
 496 480 559.666666667 504 637 504 c 0
 759.110158106 504 837 424.162912059 837 299 c 0
 837 275 834 250.333333333 828 225 c 1
 443 225 l 1
 442.333333333 220.333333335 442 215.666666669 442 211 c 2
 442 198 l 2
 442 112.03982348 491.303943723 62 576 62 c 0
 626.315405599 62 668.126683148 78.6565252025 699 111 c 1
 777 87 l 1
 727.04020639 22.3461494455 653.490876264 -12 565 -12 c 0
 479.841604089 -12 414.465299373 28.0117274763 382 100 c 1
EndSplineSet
EndChar

StartChar: eth
Encoding: 240 240 183
Width: 569
GlyphClass: 1
Flags: W
HStem: -12 71<168.838 323.203> 370 75<188.532 347.611> 603 76<237 351.952>
VStem: 24 83<120.701 285.324>
DStem2: 273 509 301 473 0.771281 0.636494<0 109.342 205.333 265.77>
LayerCount: 2
Fore
SplineSet
107 196 m 0
 107 116.888941678 164.043847639 59 242 59 c 0
 336.431742206 59 400 131.01720345 400 238 c 0
 400 318.225293206 350.57868897 370 274 370 c 0
 175.401742822 370 107 298.731118257 107 196 c 0
357 579 m 1
 321.518301467 598.008052786 277.283584872 605.814179243 221 603 c 1
 237 679 l 1
 317.965517628 681.840895356 378.505174604 667.672039468 425 635 c 1
 478 679 l 1
 507 643 l 1
 460 605 l 1
 555.78696744 500.761241316 547.368177898 239.013421025 443.5 92 c 0
 395.016612501 23.3773592323 323.071309831 -12 232 -12 c 0
 116.574758064 -12 24 81.4648999683 24 198 c 0
 24 339.818484609 128.755679296 445 270 445 c 0
 346.492990518 445 415.460946591 401.223932074 437 339 c 1
 439.666666667 360.333333331 441 380.333333333 441 399 c 0
 441 465.539260005 425.358976684 515.790207254 394 550 c 1
 301 473 l 1
 273 509 l 1
 357 579 l 1
EndSplineSet
EndChar

StartChar: thorn
Encoding: 254 254 184
Width: 557
GlyphClass: 1
Flags: W
HStem: -161 21G<-26 64.3137> -12 72<192.965 327.414> 432 72<240.232 374.031> 648 20G<145.754 236>
VStem: -26 86<-161 -75> 150 86<582 668> 419 91<176.376 385.014>
DStem2: -26 -161 60 -161 0.207912 0.978148<17.8804 278.743 630.404 847.477>
LayerCount: 2
Fore
SplineSet
141 218 m 0
 141 118.402963067 185.726319817 60 262 60 c 0
 347.966141668 60 419 163.157450317 419 288 c 0
 419.666666667 337.999999999 409.5 374.5 388.5 397.5 c 0
 367.5 420.5 341 432 309 432 c 0
 216.909589501 432 141 335.305641946 141 218 c 0
510 291 m 0
 510 115.11272846 407.219080948 -12 265 -12 c 0
 225.666666667 -12 193 -1.49999999991 167 19.5 c 0
 141 40.4999999997 123.666666667 65.3333333329 115 94 c 1
 60 -161 l 1
 -26 -161 l 1
 150 668 l 1
 236 668 l 1
 188 438 l 1
 221.439993251 480.803191361 270.64534491 504 328 504 c 0
 441.153512373 504 510 423.426912832 510 291 c 0
EndSplineSet
EndChar

StartChar: multiply
Encoding: 215 215 185
Width: 593
GlyphClass: 1
Flags: W
HStem: 193 115<230.5 345.5>
DStem2: 134 462 77 404 0.707107 -0.707107<0.707107 217.789 299.813 516.188> 77 97 134 39 0.707107 0.707107<0 217.082 298.399 515.481>
LayerCount: 2
Fore
SplineSet
134 39 m 1
 77 97 l 1
 231 250 l 1
 77 404 l 1
 134 462 l 1
 288 308 l 1
 442 462 l 1
 499 404 l 1
 346 250 l 1
 499 97 l 1
 442 39 l 1
 288 193 l 1
 134 39 l 1
EndSplineSet
EndChar

StartChar: divide
Encoding: 247 247 186
Width: 619
GlyphClass: 1
Flags: W
HStem: 14 129<251.861 347.493> 208 81<52 548> 354 129<251.727 347.624>
VStem: 235 129<30.7271 126.399 370.376 466.273>
CounterMasks: 1 e0
LayerCount: 2
Fore
SplineSet
364 79 m 0
 364 42.3763386784 336.060220378 14 300 14 c 0
 263.648278148 14 235 42.6482781476 235 79 c 0
 235 114.416934963 264.029675428 143 300 143 c 0
 335.686524397 143 364 114.686524397 364 79 c 0
52 208 m 1
 52 289 l 1
 548 289 l 1
 548 208 l 1
 52 208 l 1
364 418 m 0
 364 381.673333091 336.326666909 354 300 354 c 0
 263.376338678 354 235 381.939779622 235 418 c 0
 235 454.351721852 263.648278148 483 300 483 c 0
 336.060220378 483 364 454.623661322 364 418 c 0
EndSplineSet
EndChar

StartChar: OE
Encoding: 307 338 187
Width: 1070
GlyphClass: 1
Flags: W
HStem: -12 80<240.66 421.268> 0 82<631 974> 304 80<696 944> 587 81<739 1098> 601 79<323.484 503.515>
VStem: 53 95<165.058 403.033>
LayerCount: 2
Fore
SplineSet
148 269 m 0xac
 148 147.130759511 217.288625244 68 324 68 c 0
 477.804100582 68 594 210.0172104 594 398 c 0
 594 520.733038634 524.408939899 601 418 601 c 0
 263.745444811 601 148 458.675971565 148 269 c 0xac
551 80 m 1
 485.840570448 18.0190792076 407.529929037 -12 311 -12 c 0
 153.857102381 -12 53 97.8482394145 53 269 c 0
 53 507.236082197 211.892362359 680 431 680 c 0xac
 529.064594826 680 608.3330258 635.882275974 652 557 c 1
 676 668 l 1
 1115 668 l 1
 1098 587 l 1
 739 587 l 1
 696 384 l 1
 961 384 l 1
 944 304 l 1
 678 304 l 1
 631 82 l 1
 991 82 l 1
 974 0 l 1
 534 0 l 1x74
 551 80 l 1
EndSplineSet
EndChar

StartChar: oe
Encoding: 308 339 188
Width: 910
GlyphClass: 1
Flags: W
HStem: -12 74<536.216 703.598> 226 67<497 790> 430 74<212.777 368.646 579.871 744.757>
VStem: 26 88<108.729 312.613> 790 87<293.882 385.075>
LayerCount: 2
Fore
SplineSet
114 199 m 0
 114 -31.9401568647 392.141262967 38.7657870881 411 274.5 c 0
 411.666666667 282.833333328 412 290.666666663 412 298 c 0
 412 348 400.5 382.5 377.5 401.5 c 0
 354.5 420.5 326 430 292 430 c 0
 187.598013437 430 114 334.487971326 114 199 c 0
790 312 m 2
 790 386.565667051 742.293950403 432 664 432 c 0
 582.44894767 432 514.485494473 375.4316168 497 293 c 1
 789 293 l 2
 789.666666667 296.333333331 790 299.666666665 790 303 c 2
 790 312 l 2
424 86 m 1
 375.842894138 21.7905255171 309.641048227 -12 232 -12 c 0
 103.421373954 -12 26 66.1730377784 26 196 c 0
 26 298.222902841 65.9160552232 389.881992613 134 444 c 0
 182.446725735 482.508935841 241.905336574 504 300 504 c 0
 334.666666667 504 366.333333333 497 395 483 c 0
 423.666666667 469 447.666666667 443.333333333 467 406 c 1
 513.346857716 468.237208932 588.886630686 504 674 504 c 0
 798.861404658 504 877 426.246323847 877 302 c 0
 877 277.333333333 874 252 868 226 c 1
 484 226 l 1
 483.333333333 221.333333335 483 216.833333335 483 212.5 c 2
 483 200 l 2
 483 112.173378966 531.355502916 62 616 62 c 0
 667.654146134 62 709.671458162 78.7386039787 739 111 c 1
 817 87 l 1
 766.667682855 22.5117186569 694.506816572 -12 610 -12 c 0
 521.251166285 -12 464.60133373 17.8477612386 424 86 c 1
EndSplineSet
EndChar

StartChar: Aring
Encoding: 197 197 192
Width: 627
GlyphClass: 2
Flags: W
HStem: 0 21G<-52 67.3699 459.123 565> 146 80<184 430> 779 58<362.161 446.087>
VStem: 295 57<686.669 768.812> 456 57<686.495 769.048> 462 103<0 103>
DStem2: -52 0 56 0 0.506117 0.862465<54.6606 222.588 314.361 713.341>
AnchorPoint: "Anchor-2" 513 10 basechar 0
AnchorPoint: "Anchor-1" 427 837 basechar 0
AnchorPoint: "Anchor-0" 261 0 basechar 0
LayerCount: 2
Fore
SplineSet
513 728 m 0xf8
 513 689.646658253 493.529096173 654.13008239 461.529416443 634.113301064 c 1
 565 0 l 1
 462 0 l 1xf4
 441 146 l 1
 139 146 l 1
 56 0 l 1
 -52 0 l 1
 329.289960047 649.749217631 l 1
 307.193691948 670.888694259 295 698.715088153 295 728 c 0
 295 788.027450719 344.871128167 837 406 837 c 0
 466.048030313 837 513 789.170423403 513 728 c 0xf8
184 226 m 1
 430 226 l 1
 381 573 l 1
 184 226 l 1
352 728 m 0
 352 699.342977221 374.781074814 677 404 677 c 0
 433.218925186 677 456 699.342977222 456 728 c 0xf8
 456 756.657022779 433.218925186 779 404 779 c 0
 374.781074814 779 352 756.657022778 352 728 c 0
EndSplineSet
EndChar

StartChar: Ccedilla
Encoding: 199 199 203
Width: 661
GlyphClass: 2
Flags: W
HStem: -181 41<179.82 297.244> -82 39<251.923 303.848> -12 79<305.694 426.325> 498 21G<555.568 625.333> 600 80<319.833 501.023>
VStem: 53 96<165.518 399.154> 304 63<-131.908 -83.1099>
AnchorPoint: "Anchor-1" 420 668 basechar 0
AnchorPoint: "Anchor-0" 257 -181 basechar 0
LayerCount: 2
Fore
SplineSet
367 -96 m 0
 367 -144.256378643 318.15259749 -181 254 -181 c 0
 229.333333333 -181 200.333333333 -175 167 -163 c 1
 190 -126 l 1
 213.131001202 -135.524529907 231.35255801 -140 247 -140 c 0
 278.219164859 -140 304 -123.717367279 304 -104 c 0
 304 -89.9168158905 291.405065629 -82 269 -82 c 0
 250.630075379 -82 252.369924621 -87 234 -87 c 0
 222 -87 216 -81.3333333333 216 -70 c 0
 216 -66.0000000004 217.666666667 -61.6666666672 221 -57 c 2
 261.320635338 -8.37805738663 l 1
 131.310507111 10.3769035548 53 112.39153719 53 263 c 0
 53 497.109083738 214.400137133 680 421 680 c 0
 542.292349467 680 624.208455752 626.789537798 655 528 c 1
 566 498 l 1
 545.136764857 563.19760982 489.211564094 600 411 600 c 0
 265.509388319 600 149 454.14091844 149 272 c 0
 149 148.695184451 219.1383047 67 325 67 c 0
 410.161407057 67 467.469663924 98.2044958858 516 171 c 1
 595 140 l 1
 533.590469441 40.6994825009 436.512475361 -12 315 -12 c 0
 311.866835386 -12 308.764916119 -11.967334408 305.6942422 -11.9020032241 c 2
 278 -45 l 1
 288.229862753 -43.5385910353 294.692955176 -43 302 -43 c 0
 341.55560449 -43 367 -63.7469686469 367 -96 c 0
EndSplineSet
EndChar

StartChar: ccedilla
Encoding: 231 231 204
Width: 495
GlyphClass: 2
Flags: W
HStem: -181 41<79.82 197.244> -82 39<151.923 203.848> -12 74<205.968 318.998> 430 74<214.925 366.356>
VStem: 26 92<111.065 310.484> 204 63<-131.908 -83.1099>
AnchorPoint: "Anchor-1" 301 496 basechar 0
AnchorPoint: "Anchor-0" 195 0 basechar 0
LayerCount: 2
Fore
SplineSet
267 -96 m 0
 267 -144.256378643 218.15259749 -181 154 -181 c 0
 129.333333333 -181 100.333333333 -175 67 -163 c 1
 90 -126 l 1
 113.131001202 -135.524529907 131.35255801 -140 147 -140 c 0
 178.219164859 -140 204 -123.717367279 204 -104 c 0
 204 -89.9168158905 191.405065629 -82 169 -82 c 0
 150.630075379 -82 152.369924621 -87 134 -87 c 0
 122 -87 116 -81.3333333333 116 -70 c 0
 116 -66.0000000005 117.666666667 -61.6666666672 121 -57 c 2
 163.584278968 -5.64836947988 l 1
 76.4219674822 15.0002882108 26 87.4345789129 26 192 c 0
 26 371.772983536 141.274834866 504 298 504 c 0
 386.705960902 504 448.88232273 466.694182903 483 393 c 1
 400 364 l 1
 386.624366962 404.126899113 345.070598871 430 294 430 c 0
 190.952835984 430 118 333.420393271 118 197 c 0
 118 108.633845025 160.488614356 62 241 62 c 0
 291.915601796 62 333.205541237 83.6439198679 365 127 c 1
 436 99 l 1
 392.117609194 28.0137795783 314.973926043 -12 222 -12 c 0
 216.549062004 -12 211.205050655 -11.8582899864 205.967965953 -11.5748699592 c 1
 178 -45 l 1
 188.229862753 -43.5385910353 194.692955176 -43 202 -43 c 0
 241.55560449 -43 267 -63.7469686469 267 -96 c 0
EndSplineSet
EndChar

StartChar: Eth
Encoding: 208 208 249
Width: 710
GlyphClass: 1
Flags: W
HStem: 0 79<163 390.383> 303 80<39 114 228 351> 588 80<271 484.833>
DStem2: 50 0 146.208 0 0.207912 0.978148<100.768 309.685 411.639 621.099>
LayerCount: 2
Fore
SplineSet
163 79 m 1
 249 79 l 2
 435.403600983 79 545.239338301 162.651985698 572 325 c 0
 603.554907171 510.38507963 539.810333787 588 356 588 c 2
 271 588 l 1
 228 383 l 1
 368 383 l 1
 351 303 l 1
 211 303 l 1
 163 79 l 1
50 0 m 1
 114 303 l 1
 22 303 l 1
 39 383 l 1
 131 383 l 1
 192 668 l 1
 376 668 l 2
 611.110564527 668 705.979687835 554.222254177 667 319 c 0
 632.709124966 115.159798413 476.75604373 0 235 0 c 2
 50 0 l 1
EndSplineSet
EndChar

StartChar: one.tf
Encoding: 317 -1 251
Width: 639
GlyphClass: 1
Flags: W
HStem: 8 77<53 232 317 459> 513 67<159 302.74> 657 20G<367.51 442>
VStem: 384 58<645.231 677>
DStem2: 215.633 8 300.633 8 0.207912 0.978148<96.3927 516.079>
LayerCount: 2
Fore
SplineSet
159 580 m 1
 284.487296708 580 351.019208646 608.68264648 384 677 c 1
 442 677 l 1
 317 85 l 1
 475 85 l 1
 459 8 l 1
 37 8 l 1
 53 85 l 1
 232 85 l 1
 322 513 l 1
 144 513 l 1
 159 580 l 1
EndSplineSet
Substitution2: "'pnum' Proportional Numbers lookup 13 subtable" one
Substitution2: "'aalt' Access All Alternates lookup 0 subtable" one
EndChar

StartChar: Aogonek
Encoding: 328 260 262
Width: 627
GlyphClass: 2
Flags: W
HStem: -173 57<458.425 531.099> 0 21G<-52 67.3699> 146 80<184 430> 648 20G<328.263 459.263>
VStem: 380 77<-112.443 -51.1568>
DStem2: -52 0 56 0 0.506117 0.862465<54.6606 222.588>
AnchorPoint: "Anchor-2" 513 10 basechar 0
AnchorPoint: "Anchor-1" 387 668 basechar 0
AnchorPoint: "Anchor-0" 261 0 basechar 0
LayerCount: 2
Fore
SplineSet
184 226 m 1
 430 226 l 1
 381 573 l 1
 184 226 l 1
457 -89 m 0
 457 -105.012197079 473.685182213 -116 498 -116 c 0
 511.333333333 -116 526 -113 542 -107 c 1
 531 -161 l 1
 505 -169 482.666666667 -173 464 -173 c 0
 412.896092824 -173 380 -146.761449772 380 -106 c 0
 380 -60.4110998963 421.639199853 -18.7719000428 486 0 c 1
 462 0 l 1
 441 146 l 1
 139 146 l 1
 56 0 l 1
 -52 0 l 1
 340 668 l 1
 456 668 l 1
 565 0 l 1
 495.831747227 -25.0183041947 457 -57.0185403359 457 -89 c 0
EndSplineSet
EndChar

StartChar: aogonek
Encoding: 329 261 263
Width: 521
GlyphClass: 2
Flags: W
HStem: -173 57<301.425 374.099> -12 69<117.816 256.344> 436 68<205.891 355.459>
VStem: 5 94<76.5144 182.013> 223 77<-112.443 -51.1568> 377 85<309.325 413.947>
AnchorPoint: "Anchor-2" 408 0 basechar 0
AnchorPoint: "Anchor-1" 311 496 basechar 0
AnchorPoint: "Anchor-0" 208 0 basechar 0
LayerCount: 2
Fore
SplineSet
99 125 m 0
 99 83.2248938621 130.624136716 57 181 57 c 0
 272.158565871 57 341.574161618 122.125867919 359 224 c 2
 362 241 l 1
 152.481858594 220.805480346 99 197.216523704 99 125 c 0
300 -89 m 0
 300 -105.012197079 316.685182213 -116 341 -116 c 0
 354.333333333 -116 369 -113 385 -107 c 1
 374 -161 l 1
 348 -169 325.666666667 -173 307 -173 c 0
 255.896092824 -173 223 -146.761449772 223 -106 c 0
 223 -60.4110998963 264.639199853 -18.7719000428 329 0 c 1
 325 63 l 1
 277.832894856 10.11566999 227.409167279 -12 154 -12 c 0
 65.2887117306 -12 5 40.196267203 5 117 c 0
 5 219.675216117 96.8905544244 278.562824938 289 299 c 0
 320.333333333 302.333333333 347.333333333 305.333333333 370 308 c 1
 375.200649375 332.269697081 377 344.865151458 377 357 c 0
 377 409.666666667 346.333333333 436 285 436 c 0
 225.961611349 436 181.684109944 409.154585762 158 359 c 1
 83 382 l 1
 119.6679603 460.977145261 189.491937663 504 281 504 c 0
 400.698329647 504 462 455.568293588 462 361 c 0
 462 283.605637724 412.953738721 173.380855247 408 0 c 1
 338.831747227 -25.0183041947 300 -57.0185403359 300 -89 c 0
EndSplineSet
EndChar

StartChar: Eogonek
Encoding: 334 280 268
Width: 565
GlyphClass: 2
Flags: W
HStem: -173 57<331.425 404.099> 0 81<127 359 389.462 469> 304 80<192 439> 587 81<235 594>
VStem: 253 77<-112.443 -51.1568>
DStem2: -22.7723 -173 73.0106 -173 0.207912 0.978148<279.589 507.696 589.482 796.986>
AnchorPoint: "Anchor-2" 438 0 basechar 0
AnchorPoint: "Anchor-1" 381 668 basechar 0
AnchorPoint: "Anchor-0" 230 0 basechar 0
LayerCount: 2
Fore
SplineSet
330 -89 m 0
 330 -105.012197079 346.685182213 -116 371 -116 c 0
 384.333333333 -116 399 -113 415 -107 c 1
 404 -161 l 1
 378 -169 355.666666667 -173 337 -173 c 0
 285.896092824 -173 253 -146.761449772 253 -106 c 0
 253 -60.4110998963 294.639199853 -18.7719000428 359 0 c 1
 14 0 l 1
 156 668 l 1
 611 668 l 1
 594 587 l 1
 235 587 l 1
 192 384 l 1
 457 384 l 1
 439 304 l 1
 175 304 l 1
 127 81 l 1
 486 81 l 1
 469 0 l 1
 438 0 l 1
 368.831747227 -25.0183041947 330 -57.0185403359 330 -89 c 0
EndSplineSet
EndChar

StartChar: eogonek
Encoding: 335 281 269
Width: 542
GlyphClass: 2
Flags: W
HStem: -163 57<230.425 303.099> 225 68<128 421.965> 432 72<214.764 372.899>
VStem: 27 88<117.05 224.058> 152 77<-102.443 -41.1851> 422 87<293.224 383.825>
AnchorPoint: "Anchor-2" 337 10 basechar 0
AnchorPoint: "Anchor-1" 321 496 basechar 0
AnchorPoint: "Anchor-0" 218 0 basechar 0
LayerCount: 2
Fore
SplineSet
422 310 m 2
 422 384.733871604 373.571589758 432 297 432 c 0
 214.875622117 432 146.367318626 375.652933815 128 293 c 1
 421 293 l 2
 421.666666667 296.333333331 422 299.333333331 422 302 c 2
 422 310 l 2
229 -79 m 0
 229 -95.0121970795 245.685182213 -106 270 -106 c 0
 283.333333333 -106 298 -103 314 -97 c 1
 303 -151 l 1
 277 -159 254.666666667 -163 236 -163 c 0
 184.896092824 -163 152 -136.761449772 152 -96 c 0
 152 -63.8635695997 172.88984241 -32.9533373076 209.629827414 -10.7264341515 c 1
 95.8556824624 -0.166418887109 27 78.905313033 27 199 c 0
 27 379.903715978 141.738203588 504 309 504 c 0
 432.071232112 504 509 425.532656755 509 300 c 0
 509 276 506 251 500 225 c 1
 116 225 l 1
 115.333333333 220.333333335 115 215.666666669 115 211 c 2
 115 197 l 2
 115 134.9168748 138.902350151 93.0877620357 185 74.5 c 0
 205.666666667 66.1666666667 226.666666667 62 248 62 c 0
 298.981810752 62 339.717779807 78.2281502739 371 111 c 1
 449 87 l 1
 411.498935296 38.4692103842 356.97835706 4.70562252328 297.801210301 -6.63461991197 c 1
 251.628839641 -29.6691056401 229 -53.4702070218 229 -79 c 0
EndSplineSet
EndChar

StartChar: Iogonek
Encoding: 342 302 276
Width: 414
GlyphClass: 2
Flags: W
HStem: -173 57<89.4249 162.099> 0 75<20 113 209 285> 593 75<146 223 318 412>
VStem: 11 77<-112.443 -51.1568>
DStem2: 60.286 -173 156.286 -173 0.207912 0.978148<273.5 783.091>
AnchorPoint: "Anchor-2" 196 0 basechar 0
AnchorPoint: "Anchor-1" 287 668 basechar 0
AnchorPoint: "Anchor-0" 150 0 basechar 0
LayerCount: 2
Fore
SplineSet
88 -89 m 0
 88 -105.012197079 104.685182213 -116 129 -116 c 0
 142.333333333 -116 157 -113 173 -107 c 1
 162 -161 l 1
 136 -169 113.666666667 -173 95 -173 c 0
 43.8960928237 -173 11 -146.761449772 11 -106 c 0
 11 -60.4110998961 52.6391998533 -18.7719000427 117 0 c 1
 4 0 l 1
 20 75 l 1
 113 75 l 1
 223 593 l 1
 130 593 l 1
 146 668 l 1
 427 668 l 1
 412 593 l 1
 318 593 l 1
 209 75 l 1
 301 75 l 1
 285 0 l 1
 196 0 l 1
 126.831747227 -25.0183041947 88 -57.0185403359 88 -89 c 0
EndSplineSet
EndChar

StartChar: iogonek
Encoding: 343 303 277
Width: 270
GlyphClass: 2
Flags: W
HStem: -173 57<25.4249 98.0995> 428 68<71 137> 591 125<182.301 276.583>
VStem: -53 77<-112.443 -51.1568> 167 125<606.301 700.583>
DStem2: 9.22771 -173 95.2277 -173 0.207912 0.978148<180.168 614.432>
AnchorPoint: "Anchor-2" 132 0 basechar 0
AnchorPoint: "Anchor-1" 203 691 basechar 0
AnchorPoint: "Anchor-0" 71 0 basechar 0
LayerCount: 2
Fore
SplineSet
292 653 m 0
 292 618.918069704 263.631638849 591 229 591 c 0
 195.298271178 591 167 619.298271178 167 653 c 0
 167 687.631638849 194.918069704 716 229 716 c 0
 264.015263795 716 292 688.015263795 292 653 c 0
24 -89 m 0
 24 -105.012197079 40.685182213 -116 65 -116 c 0
 78.3333333333 -116 93 -113 109 -107 c 1
 98 -161 l 1
 72 -169 49.6666666667 -173 31 -173 c 0
 -20.1039071763 -173 -53 -146.761449772 -53 -106 c 0
 -53 -60.4110998961 -11.3608001467 -18.7719000427 53 0 c 1
 46 0 l 1
 137 428 l 1
 57 428 l 1
 71 496 l 1
 237 496 l 1
 132 0 l 1
 62.8317472279 -25.0183041942 24 -57.0185403357 24 -89 c 0
EndSplineSet
EndChar

StartChar: uni0326
Encoding: 348 806 282
Width: 0
GlyphClass: 4
Flags: W
HStem: -241 36<-41 0.761231>
VStem: 37 67<-175.463 -80.6522>
AnchorPoint: "Anchor-3" 1 -251 basemark 0
AnchorPoint: "Anchor-3" 73 0 mark 0
AnchorPoint: "Anchor-0" 73 0 mark 0
LayerCount: 2
Fore
SplineSet
65 -46 m 1
 90.0732086674 -62.2975856338 104 -87.2943905897 104 -116 c 0
 104 -185.519319976 39.6424111718 -241 -41 -241 c 1
 -66 -205 l 1
 -10.7002194039 -209.423982448 37 -171.912159421 37 -124 c 0
 37 -100.666666667 26.3333333332 -84.3333333332 5 -75 c 1
 65 -46 l 1
EndSplineSet
EndChar

StartChar: Uogonek
Encoding: 357 370 291
Width: 693
GlyphClass: 2
Flags: W
HStem: -173 57<245.425 318.099> 648 20G<152.722 253 596.707 697>
VStem: 61 98<108.056 318.938> 157 96<572 668> 167 77<-112.443 -51.4044> 601 96<572 668>
DStem2: -22.2881 -173 74.4123 -173 0.207912 0.978148<389.951 859.898> 421.412 -173 517.712 -173 0.207912 0.978148<324.432 859.961>
AnchorPoint: "Anchor-2" 352 0 basechar 0
AnchorPoint: "Anchor-1" 415 668 basechar 0
AnchorPoint: "Anchor-0" 294 0 basechar 0
LayerCount: 2
Fore
SplineSet
244 -89 m 0xec
 244 -105.012197079 260.685182213 -116 285 -116 c 0
 298.333333333 -116 313 -113 329 -107 c 1
 318 -161 l 1
 292 -169 269.666666667 -173 251 -173 c 0
 199.896092824 -173 167 -146.761449772 167 -106 c 0
 167 -68.0741663397 196.440707835 -31.7913513977 244.647003259 -10.3076047696 c 1
 120.199983298 0.420001929737 61 60.1552925294 61 175 c 0xec
 61 203.357376956 65.257409476 237.7441458 74 280 c 2
 157 668 l 1
 253 668 l 1xd4
 169 272 l 2
 162.333333333 238.666666664 159 209.999999999 159 186 c 0
 159 104.239394814 198.757265944 69 291 69 c 0
 421.650947255 69 484.020680972 125.271359754 516 272 c 2
 601 668 l 1
 697 668 l 1
 614 280 l 2
 573.084595331 85.1647396711 490.359095203 1.7729588381 325.819442827 -10.5015965694 c 1
 271.856365502 -34.5190906654 244 -61.2447703051 244 -89 c 0xec
EndSplineSet
EndChar

StartChar: uogonek
Encoding: 358 371 292
Width: 540
GlyphClass: 2
Flags: W
HStem: -173 57<301.425 374.099> -11 73<142.874 269.931> 476 20G<106.768 197 423.692 513>
VStem: 40 86<78.3147 263.312> 111 86<410 496> 223 77<-112.443 -50.5767> 428 85<411 496>
DStem2: -30.9213 -173 54.6536 -173 0.207912 0.978148<336.691 683.888> 285.064 -173 371.228 -173 0.207912 0.978148<299.017 684.099>
AnchorPoint: "Anchor-2" 408 0 basechar 0
AnchorPoint: "Anchor-1" 308 496 basechar 0
AnchorPoint: "Anchor-0" 217 0 basechar 0
LayerCount: 2
Fore
SplineSet
300 -89 m 0xf6
 300 -105.012197079 316.685182213 -116 341 -116 c 0
 354.333333333 -116 369 -113 385 -107 c 1
 374 -161 l 1
 348 -169 325.666666667 -173 307 -173 c 0
 255.896092824 -173 223 -146.761449772 223 -106 c 0
 223 -56.8130058738 263.398436741 -20.4195071302 342.83260958 1.95288823117 c 1
 337 70 l 1
 292.936874558 12.1671478573 246.030550501 -11 173 -11 c 0
 124.333333333 -11 90.0000000001 2.33333333324 70 29 c 0
 50 55.6666666667 40 88.6666666667 40 128 c 0xf6
 40 152 43 177 49 203 c 2
 111 496 l 1
 197 496 l 1xee
 135 205 l 2
 129.037819193 178.170186368 126 155.21777469 126 137 c 0
 126 86.1931737281 150.838325028 62 203 62 c 0
 289.511557333 62 347.397546823 121.598592729 372 236 c 2
 428 496 l 1
 513 496 l 1
 408 0 l 1
 338.831747227 -25.0183041947 300 -57.0185403359 300 -89 c 0xf6
EndSplineSet
EndChar

StartChar: Hbar
Encoding: 367 294 301
Width: 710
GlyphClass: 1
Flags: W
HStem: 0 21G<23 123.276 469 569.246> 304 80<201 533> 504 79<72 130 243 576 689 745> 648 20G<160.765 261 606.765 707>
VStem: 23 96<0 96> 469 96<0 96>
DStem2: 23 0 119 0 0.207912 0.978148<19.9595 330.831 412.617 515.233 616.001 682.926> 469 0 565 0 0.207912 0.978148<19.9595 310.663 392.657 515.233 616.001 682.926>
LayerCount: 2
Fore
SplineSet
201 384 m 1
 551 384 l 1
 576 504 l 1
 226 504 l 1
 201 384 l 1
23 0 m 1
 130 504 l 1
 55 504 l 1
 72 583 l 1
 147 583 l 1
 165 668 l 1
 261 668 l 1
 243 583 l 1
 593 583 l 1
 611 668 l 1
 707 668 l 1
 689 583 l 1
 762 583 l 1
 745 504 l 1
 672 504 l 1
 565 0 l 1
 469 0 l 1
 533 304 l 1
 184 304 l 1
 119 0 l 1
 23 0 l 1
EndSplineSet
EndChar

StartChar: hbar
Encoding: 368 295 302
Width: 580
GlyphClass: 1
Flags: W
HStem: 0 21G<39 129.202 365 454.306> 430 74<282.421 415.778> 548 67<88 155 256 403> 648 20G<176.849 267>
VStem: 39 86<0 86> 365 85<0 85> 433 88<230.688 413.235>
DStem2: 39 0 125 0 0.207912 0.978148<17.8804 398.749 454.469 560.143 646.678 682.926> 365 0 450 0 0.207912 0.978148<17.6725 357.586>
LayerCount: 2
Fore
SplineSet
433 352 m 0xfa
 433 407.375564059 408.925279704 430 350 430 c 0
 262.635960235 430 203.340929979 370.011460618 179 257 c 2
 125 0 l 1
 39 0 l 1
 155 548 l 1
 74 548 l 1
 88 615 l 1
 170 615 l 1
 181 668 l 1
 267 668 l 1
 256 615 l 1
 417 615 l 1
 403 548 l 1
 242 548 l 1
 216 427 l 1
 232.666666667 448.333333333 254.166666668 466.5 280.5 481.5 c 0
 306.833333333 496.5 342.333333333 504 387 504 c 0
 475.099669749 504 521 456.729510637 521 366 c 0xfa
 521 343.333333333 518 317.333333333 512 288 c 2
 450 0 l 1
 365 0 l 1xfc
 424 280 l 2
 430 309.333333333 433 333.333333333 433 352 c 0xfa
EndSplineSet
EndChar

StartChar: dcroat
Encoding: 384 273 318
Width: 602
GlyphClass: 1
Flags: W
HStem: -12 72<164.703 297.551> 0 21G<359.361 442.333> 432 72<213.129 348.573> 548 67<308 456 556 623> 648 20G<476.849 567>
VStem: 27 90<109.959 314.605> 398 44<0 281>
DStem2: 336.852 -12 421.968 -12 0.207912 0.978148<419.16 572.535 658.862 695.11>
LayerCount: 2
Fore
SplineSet
280 432 m 0xbe
 187.266206878 432 117 331.558121456 117 199 c 0
 117 152.333333333 127.833333333 117.5 149.5 94.5 c 0
 171.166666667 71.5 196.666666667 60 226 60 c 0
 324.302887909 60 398 154.692219606 398 281 c 0
 398 376.816886095 354.876771915 432 280 432 c 0xbe
356 61 m 1
 316.878041785 10.9238934853 269.460125123 -12 205 -12 c 0xbe
 96.5955910746 -12 27 70.1071580093 27 198 c 0
 27 372.599514831 131.776857455 504 271 504 c 0
 344.779334211 504 403.728099988 463.159678612 424 398 c 1
 456 548 l 1
 294 548 l 1
 308 615 l 1
 470 615 l 1
 481 668 l 1
 567 668 l 1
 564 653.5 l 2
 562.000000046 643.833333558 559.33333341 631.000000372 556 615 c 1
 637 615 l 1
 623 548 l 1
 541 548 l 1
 540.111979516 543.658566525 462.494193889 177.378294186 451.5 114 c 0
 445.833333334 81.333333337 442.666666667 43.3333333382 442 0 c 1
 361 0 l 1x7e
 356 61 l 1
EndSplineSet
EndChar

StartChar: Scedilla
Encoding: 389 350 323
Width: 609
GlyphClass: 2
Flags: W
HStem: -181 41<161.82 279.244> -82 39<233.923 285.848> -11.99 78.99<287.621 383.387> 601 79<231.218 414.883>
VStem: 87 95<431.746 557.573> 286 63<-131.908 -83.1099> 446 98<122.949 255.398>
AnchorPoint: "Anchor-1" 359 668 basechar 0
AnchorPoint: "Anchor-0" 239 -181 basechar 0
LayerCount: 2
Fore
SplineSet
349 -96 m 0
 349 -144.256378643 300.15259749 -181 236 -181 c 0
 211.333333333 -181 182.333333333 -175 149 -163 c 1
 172 -126 l 1
 195.131001202 -135.524529907 213.35255801 -140 229 -140 c 0
 260.219164859 -140 286 -123.717367279 286 -104 c 0
 286 -89.9168158905 273.405065629 -82 251 -82 c 0
 232.630075379 -82 234.369924621 -87 216 -87 c 0
 204 -87 198 -81.3333333333 198 -70 c 0
 198 -66.0000000004 199.666666667 -61.6666666672 203 -57 c 2
 242.622741793 -9.21963489647 l 1
 140.550580396 4.33113494604 66.4989517602 60.3187686815 36 147 c 1
 127 172 l 1
 149.794915931 107.214449461 213.372045555 67 293 67 c 0
 381.674532154 67 446 116.190063647 446 184 c 0
 446 387.6776298 87 291.3223702 87 495 c 0
 87 604.210970857 184.091891389 680 324 680 c 0
 432.996846481 680 526.84410735 630.502499541 561 555 c 1
 469 529 l 1
 446.681104319 572.397852713 387.490549517 601 320 601 c 0
 236.162400978 601 182 560.57443985 182 498 c 0
 182 306.740902684 544 388.259097316 544 197 c 0
 544 78.3724776056 434.527793045 -10.8647881828 287.620635416 -11.9899723076 c 1
 260 -45 l 1
 270.229862753 -43.5385910353 276.692955176 -43 284 -43 c 0
 323.55560449 -43 349 -63.7469686469 349 -96 c 0
EndSplineSet
Substitution2: "'locl' Localized Forms in Latin lookup 8 subtable" uni0218
Substitution2: "'aalt' Access All Alternates lookup 0 subtable" uni0218
EndChar

StartChar: scedilla
Encoding: 390 351 324
Width: 479
GlyphClass: 2
Flags: W
HStem: -181 41<91.82 209.244> -82 39<163.923 215.848> -11.9697 67.9697<217.638 289.37> 435 69<157.486 316.91>
VStem: 49 85<312.497 412.085> 216 63<-131.908 -83.1099> 325 88<87.2591 195.032>
AnchorPoint: "Anchor-1" 260 496 basechar 0
AnchorPoint: "Anchor-0" 169 -181 basechar 0
LayerCount: 2
Fore
SplineSet
279 -96 m 0
 279 -144.256378643 230.15259749 -181 166 -181 c 0
 141.333333333 -181 112.333333333 -175 79 -163 c 1
 102 -126 l 1
 125.131001202 -135.524529907 143.35255801 -140 159 -140 c 0
 190.219164859 -140 216 -123.717367279 216 -104 c 0
 216 -89.9168158905 203.405065629 -82 181 -82 c 0
 162.630075379 -82 164.369924621 -87 146 -87 c 0
 134 -87 128 -81.3333333333 128 -70 c 0
 128 -66.0000000004 129.666666667 -61.6666666672 133 -57 c 2
 172.263950366 -9.65229514637 l 1
 89.8935767986 0.317581906507 38.7156259121 39.0020409189 10 113 c 1
 96 142 l 1
 105.438164739 90.0900939378 153.005737675 56 216 56 c 0
 279.075725388 56 325 90.1272132441 325 137 c 0
 325 285.649908516 49 216.350091484 49 365 c 0
 49 446.7352311 127.687560143 504 240 504 c 0
 332.156789209 504 409.595842507 462.645112899 431 402 c 1
 351 374 l 1
 338.932790665 410.201628005 290.962169428 435 233 435 c 0
 173.478823708 435 134 409.079560192 134 370 c 0
 134 222.970042483 413 290.029957517 413 143 c 0
 413 49.9447668306 336.91732645 -10.4072263628 217.637556656 -11.9697493629 c 1
 190 -45 l 1
 200.229862753 -43.5385910353 206.692955176 -43 214 -43 c 0
 253.55560449 -43 279 -63.7469686469 279 -96 c 0
EndSplineSet
Substitution2: "'locl' Localized Forms in Latin lookup 8 subtable" uni0219
Substitution2: "'aalt' Access All Alternates lookup 0 subtable" uni0219
EndChar

StartChar: uni0162
Encoding: 395 354 329
Width: 558
GlyphClass: 2
Flags: W
HStem: -181 41<102.82 220.244> -82 39<174.923 226.848> 0 21G<238.653 270.191> 587 81<90 293 389 611>
VStem: 227 63<-131.908 -83.1099>
DStem2: 130.527 -181 227.527 -181 0.207912 0.978148<205.211 784.997>
AnchorPoint: "Anchor-1" 356 668 basechar 0
AnchorPoint: "Anchor-0" 146 -251 basechar 0
LayerCount: 2
Fore
SplineSet
290 -96 m 0
 290 -144.256378643 241.15259749 -181 177 -181 c 0
 152.333333333 -181 123.333333333 -175 90 -163 c 1
 113 -126 l 1
 136.131001202 -135.524529907 154.35255801 -140 170 -140 c 0
 201.219164859 -140 227 -123.717367279 227 -104 c 0
 227 -89.9168158905 214.405065629 -82 192 -82 c 0
 173.630075379 -82 175.369924621 -87 157 -87 c 0
 145 -87 139 -81.3333333333 139 -70 c 0
 139 -66.0000000004 140.666666667 -61.6666666672 144 -57 c 2
 191.268292683 -3.5527136788e-15 l 1
 169 0 l 1
 293 587 l 1
 73 587 l 1
 90 668 l 1
 628 668 l 1
 611 587 l 1
 389 587 l 1
 266 0 l 1
 238.653061224 2.22044604925e-16 l 1
 201 -45 l 1
 211.229862753 -43.5385910353 217.692955176 -43 225 -43 c 0
 264.55560449 -43 290 -63.7469686469 290 -96 c 0
EndSplineSet
Substitution2: "'locl' Localized Forms in Latin lookup 8 subtable" uni021A
Substitution2: "'aalt' Access All Alternates lookup 0 subtable" uni021A
EndChar

StartChar: acutecomb.case
Encoding: 398 -1 332
Width: 0
GlyphClass: 4
Flags: W
HStem: 744 120
VStem: 135 198
AnchorPoint: "Anchor-4" 251 864 basemark 0
AnchorPoint: "Anchor-4" 185 668 mark 0
AnchorPoint: "Anchor-1" 185 668 mark 0
LayerCount: 2
Fore
SplineSet
297 864 m 0
 317.192664612 864 333 848.192664612 333 828 c 0
 333 804.728204662 321.057518767 794.321185302 263 767 c 0
 251.666666693 761.666666679 241.666666687 756.833333343 233 752.5 c 2
 216 744 l 1
 135 744 l 1
 136.404381714 745.053286286 248.887089037 839.205063598 271 855 c 0
 280.333333333 861 289 864 297 864 c 0
EndSplineSet
EndChar

StartChar: caron.alt
Encoding: 401 -1 335
Width: 206
GlyphClass: 1
Flags: W
HStem: 495 183
VStem: 155 74<603.5 672.517>
LayerCount: 2
Fore
SplineSet
197 678 m 0
 216.404700463 678 229 666.191906684 229 648 c 0
 229 642.666666667 225 633 217 619 c 2
 145 495 l 1
 96 495 l 1
 96.6124794156 496.531198539 148.739420029 637.730956052 155 649 c 0
 161.17419594 665.464522471 179.329025464 678 197 678 c 0
EndSplineSet
EndChar

StartChar: uni2074
Encoding: 411 8308 345
Width: 397
GlyphClass: 1
Flags: W
HStem: 489 57<169 269 351 404>
VStem: 251 70<403 473>
DStem2: 88 543 169 546 0.708606 0.705604<59.5139 264.571> 251 403 321 403 0.207912 0.978148<14.5538 87.8631 160.666 295.575>
LayerCount: 2
Fore
SplineSet
169 546 m 1
 281 546 l 1
 313 692 l 1
 169 546 l 1
251 403 m 1
 269 489 l 1
 76 489 l 1
 88 543 l 1
 324 778 l 1
 401 778 l 1
 351 546 l 1
 416 546 l 1
 404 489 l 1
 339 489 l 1
 321 403 l 1
 251 403 l 1
EndSplineSet
EndChar

StartChar: gravecomb.case
Encoding: 414 -1 348
Width: 0
GlyphClass: 4
Flags: W
HStem: 744 120<219.604 239.599>
VStem: 168 153
AnchorPoint: "Anchor-4" 261 864 basemark 0
AnchorPoint: "Anchor-4" 239 668 mark 0
AnchorPoint: "Anchor-1" 239 668 mark 0
LayerCount: 2
Fore
SplineSet
168 828 m 0
 168 848.192664612 183.807335388 864 204 864 c 0
 216 864 226.666666667 858.666666667 236 848 c 0
 314 752.666666667 314 752.666666667 321 744 c 1
 248 744 l 1
 178.637525095 795.001819783 168 806.171221133 168 828 c 0
EndSplineSet
EndChar

StartChar: uni030B
Encoding: 415 779 349
Width: 4
GlyphClass: 4
Flags: W
HStem: 572 136<217 239.821>
VStem: 71 329
AnchorPoint: "Anchor-4" 254 708 basemark 0
AnchorPoint: "Anchor-4" 189 496 mark 0
AnchorPoint: "Anchor-1" 189 496 mark 0
LayerCount: 2
Fore
SplineSet
364 708 m 0
 384.877855247 708 400 692.037736094 400 670 c 0
 400 647.880657277 389.879550819 638.586367213 302 580 c 2
 290 572 l 1
 217 572 l 1
 232.5 589 l 2
 284.085740168 645.577908549 328.460309848 691.845232385 338 699 c 0
 346 705 354.666666667 708 364 708 c 0
218 708 m 0
 239.820821522 708 255 692.820821522 255 671 c 0
 255 647.919329602 245.126196063 638.750797375 157 580 c 2
 145 572 l 1
 71 572 l 1
 81.5 583 l 2
 82.6061897716 584.158865475 180.305016275 689.254180229 192 699 c 0
 200 705 208.666666667 708 218 708 c 0
EndSplineSet
Substitution2: "'case' Case-Sensitive Forms lookup 15 subtable" uni030B.case
Substitution2: "Single Substitution lookup 7 subtable" uni030B.case
Substitution2: "Single Substitution lookup 6 subtable" uni030B.case
Substitution2: "Single Substitution lookup 4 subtable" uni030B.case
Substitution2: "Single Substitution lookup 3 subtable" uni030B.case
Substitution2: "'aalt' Access All Alternates lookup 0 subtable" uni030B.case
EndChar

StartChar: dotlessi
Encoding: 417 305 351
Width: 248
GlyphClass: 2
Flags: W
HStem: 0 21G<46 136.234> 428 68<71 137>
VStem: 46 86<0 86>
DStem2: 46 0 132 0 0.207912 0.978148<17.8804 437.567>
AnchorPoint: "Anchor-2" 132 0 basechar 0
AnchorPoint: "Anchor-1" 167 496 basechar 0
AnchorPoint: "Anchor-0" 71 0 basechar 0
LayerCount: 2
Fore
SplineSet
46 0 m 1
 137 428 l 1
 57 428 l 1
 71 496 l 1
 237 496 l 1
 132 0 l 1
 46 0 l 1
EndSplineSet
EndChar

StartChar: uni00B5
Encoding: 181 181 356
Width: 554
GlyphClass: 2
Flags: W
HStem: -162 21G<-28 62.0404> -11 73<142.945 268.342> 476 20G<106.775 197 423.692 513>
VStem: -28 86<-162 -76> 111 86<410 496> 428 85<411 496>
DStem2: -28 -162 58 -162 0.207912 0.978148<17.8804 159.613 325.324 672.521> 287.402 -162 372.634 -162 0.207912 0.978148<287.772 672.853>
AnchorPoint: "Anchor-2" 435 10 basechar 0
LayerCount: 2
Fore
SplineSet
173 -11 m 0
 130.199826352 -11 100.148553599 0.43254941699 81 24 c 1
 81.6666666667 8.66666666745 82 -6.49999999924 82 -21.5 c 0
 82 -36.5000000002 80.6666666667 -50.3333333334 78 -63 c 2
 58 -162 l 1
 -28 -162 l 1
 111 496 l 1
 197 496 l 1
 135 205 l 2
 129.037819193 178.170186368 126 155.21777469 126 137 c 0
 126 86.1931737281 150.838325028 62 203 62 c 0
 289.511557333 62 347.397546823 121.598592729 372 236 c 2
 428 496 l 1
 513 496 l 1
 433 122 l 2
 425.300570786 86.0693303369 432.130583122 75 462 75 c 0
 478.670199594 75 479.579572414 77.9399389163 494 80 c 1
 478 7 l 1
 448.070717403 1.01414348057 439.233181358 0 417 0 c 0
 372.228187241 0 344.806648632 26.6902975796 342 73 c 1
 299.726669252 17.6073597108 242.171386025 -11 173 -11 c 0
EndSplineSet
EndChar

StartChar: uni0328.case
Encoding: 423 -1 358
Width: 0
GlyphClass: 4
Flags: W
HStem: -173 57<34.4249 107.099> -20 20G<29.8196 141>
VStem: -44 77<-112.443 -51.1568>
AnchorPoint: "Anchor-2" 141 0 mark 0
LayerCount: 2
Fore
SplineSet
33 -89 m 0
 33 -105.012197079 49.685182213 -116 74 -116 c 0
 87.3333333333 -116 102 -113 118 -107 c 1
 107 -161 l 1
 81 -169 58.6666666667 -173 40 -173 c 0
 -11.1039071763 -173 -44 -146.761449772 -44 -106 c 0
 -44 -60.4110998961 -2.36080014666 -18.7719000427 62 0 c 1
 141 0 l 1
 71.8317472275 -25.0183041947 33 -57.0185403359 33 -89 c 0
EndSplineSet
EndChar

StartChar: uni0163
Encoding: 427 355 363
Width: 324
GlyphClass: 2
Flags: W
HStem: -181 41<-6.18 111.244> -82 39<65.9233 117.848> 0 75<151.675 222> 428 68<63 132 232 313>
VStem: 59 92<53.1357 189.18> 118 63<-131.908 -83.1099> 173 86<534 620>
DStem2: 1.83213 -181 87.7308 -181 0.207912 0.978148<310.236 622.755 710.061 819.084>
AnchorPoint: "Anchor-1" 215 496 basechar 0
AnchorPoint: "Anchor-0" 37 -251 basechar 0
LayerCount: 2
Fore
SplineSet
181 -96 m 0xf4
 181 -144.256378643 132.15259749 -181 68 -181 c 0
 43.3333333333 -181 14.3333333333 -175 -19 -163 c 1
 4 -126 l 1
 27.1310012018 -135.524529907 45.3525580102 -140 61 -140 c 0
 92.2191648591 -140 118 -123.717367279 118 -104 c 0xf4
 118 -89.9168158905 105.405065629 -82 83 -82 c 0
 64.6300753788 -82 66.3699246212 -87 48 -87 c 0
 36 -87 30 -81.3333333333 30 -70 c 0
 30 -66.0000000001 31.6666666666 -61.6666666668 35 -57 c 2
 90.8978837741 10.4062716099 l 1
 69.9322967185 19.8751632125 59 39.2714164419 59 67 c 0
 59 81.6666666666 62.3333333333 104.333333333 69 135 c 2
 132 428 l 1
 49 428 l 1
 63 496 l 1
 146 496 l 1
 173 620 l 1
 259 620 l 1
 232 496 l 1
 327 496 l 1
 313 428 l 1
 218 428 l 1
 160 159 l 2
 154 132 151 113.666666667 151 104 c 0xfa
 151 82.2820917381 161.797584301 75 194 75 c 2
 238 75 l 1
 222 0 l 1
 160 0 l 2
 149.305700084 0 139.54208548 0.420720757214 130.709156187 1.26216227168 c 1
 92 -45 l 1
 102.229862753 -43.5385910353 108.692955176 -43 116 -43 c 0
 155.55560449 -43 181 -63.7469686469 181 -96 c 0xf4
EndSplineSet
Substitution2: "'locl' Localized Forms in Latin lookup 8 subtable" uni021B
Substitution2: "'aalt' Access All Alternates lookup 0 subtable" uni021B
EndChar

StartChar: tildecomb
Encoding: 429 771 365
Width: 4
GlyphClass: 4
Flags: W
HStem: 575 63<282.954 387.933> 617 63<169.149 284.532>
AnchorPoint: "Anchor-4" 289 680 basemark 0
AnchorPoint: "Anchor-4" 250 496 mark 0
AnchorPoint: "Anchor-1" 250 496 mark 0
LayerCount: 2
Fore
SplineSet
426 680 m 0x40
 443.201396867 680 456 666.774776763 456 649 c 0
 456 634.032103857 440.675800976 614.020502779 413.5 593.5 c 0
 397.166666667 581.166666667 375.333333333 575 348 575 c 0x80
 285.676073457 575 281.323926543 617 219 617 c 0
 189.666666667 617 169 603.666666667 157 577 c 1
 92 577 l 1
 117.052564558 643.389296077 162.549361666 680 220 680 c 0x40
 280.13082121 680 287.86917879 638 348 638 c 0x80
 385.18031619 638 388.81968381 680 426 680 c 0x40
EndSplineSet
Substitution2: "'case' Case-Sensitive Forms lookup 15 subtable" tildecomb.case
Substitution2: "Single Substitution lookup 7 subtable" tildecomb.case
Substitution2: "Single Substitution lookup 6 subtable" tildecomb.case
Substitution2: "Single Substitution lookup 4 subtable" tildecomb.case
Substitution2: "Single Substitution lookup 3 subtable" tildecomb.case
Substitution2: "'aalt' Access All Alternates lookup 0 subtable" tildecomb.case
EndChar

StartChar: zero.alt1
Encoding: 431 -1 367
Width: 648
Flags: W
HStem: -12.0107 75.0107<225.888 389.761> 605 75<287.549 446.245>
VStem: 67.833 90.0244<177.912 416.65> 514 91<251.591 497.364>
DStem2: 168 171 207 97 0.58687 0.809681<0 465.638>
LayerCount: 2
Fore
SplineSet
304 63 m 0
 400.067463718 63 455.900719187 120.002538306 495 258 c 0
 498.333333334 269.333333335 501 282.333333335 503 297 c 2
 509 335 l 2
 512.333333333 359.66666667 514 384.333333336 514 409 c 0
 516.15773333 426.261866632 509.775982375 476.784061688 502 504 c 1
 207 97 l 1
 229.666666667 74.3333333332 262 63 304 63 c 0
168 171 m 1
 460 575 l 1
 437.333333333 595 407 605 369 605 c 0
 329.666666667 605 297.333333333 595.333333333 272 576 c 0
 205.372844989 526.029633741 157.857421875 397.959303396 157.857421875 268.346679688 c 0
 157.857421875 265.163085948 157.904947917 262.047526051 158 259 c 0
 158 224.999999999 161.333333333 195.666666666 168 171 c 1
383.76953125 680.010742188 m 0
 527.487565227 680.010742188 605 587.509399363 605 416 c 0
 605 262.507360754 558.589998507 129.217836465 480 57 c 0
 430 11.0000000001 368.333333333 -12 295 -12 c 2
 292 -12 l 2
 291.044270828 -12.0071614583 290.09179687 -12.0107421875 289.142578125 -12.0107421875 c 0
 143.074469959 -12.0107421875 68 78.2957724717 68 254 c 0
 67.888671875 257.888671875 67.8330078125 261.8515625 67.8330078125 265.888671875 c 0
 67.8330078125 515.507592783 191.036870443 680 378 680 c 2
 381 680 l 2
 381.925781207 680.007161459 382.84895829 680.010742188 383.76953125 680.010742188 c 0
EndSplineSet
Substitution2: "'zero' Slashed Zero lookup 0-1" zero
Substitution2: "'aalt' Access All Alternates lookup 0 subtable" zero
Substitution2: "'tnum' Tabular Numbers lookup 14 subtable" zero
EndChar

StartChar: copyleft
Encoding: 432 127279 368
Width: 814
Flags: W
HStem: -12 62<312.298 519.702> 150 59<349.642 472.532> 473 58<354.969 473.805> 618 62<312.298 519.702>
VStem: 70 62<230.298 437.702> 512 76<251.344 431.004> 700 62<230.298 437.702>
LayerCount: 2
Fore
SplineSet
588 342 m 0
 588 220.462958525 524.142943836 150 414 150 c 0
 346.692723282 150 293.851398932 178.371180859 265 230 c 1
 331 254 l 1
 346.3231245 224.532452886 374.971870933 209 414 209 c 0
 475.878077636 209 512 258.022608922 512 342 c 0
 512 425.379362336 476.375400831 473 414 473 c 0
 378 473 351.333333333 456.666666667 334 424 c 1
 267 449 l 1
 295.109826365 502.260723638 345.929278469 531 412 531 c 0
 521.711304689 531 588 459.814980604 588 342 c 0
132 334 m 0
 132 176.331302459 258.331302459 50 416 50 c 0
 573.668697541 50 700 176.331302459 700 334 c 0
 700 491.668697541 573.668697541 618 416 618 c 0
 258.331302459 618 132 491.668697541 132 334 c 0
762 334 m 0
 762 142.800581292 607.199418708 -12 416 -12 c 0
 224.800581292 -12 70 142.800581292 70 334 c 0
 70 525.199418708 224.800581292 680 416 680 c 0
 607.199418708 680 762 525.199418708 762 334 c 0
EndSplineSet
EndChar

StartChar: f_i
Encoding: 433 64257 369
Width: 527
Flags: W
HStem: 0 21G<37 127.252 303 393.234> 428 68<59 128 228 394> 591 125<439.301 533.583> 635 71<265.503 359>
VStem: 37 86<0 86> 303 86<0 86> 424 125<606.301 700.583>
DStem2: 37 0 123 0 0.207912 0.978148<17.8804 437.567 524.872 658.721> 303 0 389 0 0.207912 0.978148<17.8804 437.567>
LayerCount: 2
Fore
SplineSet
549 653 m 0xee
 549 618.918069704 520.631638849 591 486 591 c 0
 452.298271178 591 424 619.298271178 424 653 c 0
 424 687.631638849 451.918069704 716 486 716 c 0
 521.015263795 716 549 688.015263795 549 653 c 0xee
303 0 m 1
 394 428 l 1
 214 428 l 1
 123 0 l 1
 37 0 l 1
 128 428 l 1
 44 428 l 1
 59 496 l 1
 142 496 l 1
 154 549 l 2
 182.76978294 677.156305821 213.818090686 706 323 706 c 2
 374 706 l 1
 359 635 l 1
 335 635 l 2xde
 275.011682383 635 255.743387691 619.920465024 243 563 c 2
 228 496 l 1
 494 496 l 1
 389 0 l 1
 303 0 l 1
EndSplineSet
LCarets2: 1 302
Ligature2: "'liga' Standard Ligatures lookup 0-1" f i
EndChar

StartChar: f_f
Encoding: 434 64256 370
Width: 586
Flags: W
HStem: 0 21G<37 127.252 303 393.252> 428 68<59 128 228 394 494 581> 635 71<265.503 359 531.503 625>
VStem: 37 86<0 86> 303 86<0 86>
DStem2: 37 0 123 0 0.207912 0.978148<17.8804 437.567 524.872 658.721> 303 0 389 0 0.207912 0.978148<17.8804 437.567 524.872 658.721>
LayerCount: 2
Fore
SplineSet
303 0 m 1
 394 428 l 1
 214 428 l 1
 123 0 l 1
 37 0 l 1
 128 428 l 1
 44 428 l 1
 59 496 l 1
 142 496 l 1
 154 549 l 2
 182.76978294 677.156305821 213.818090686 706 323 706 c 2
 374 706 l 1
 359 635 l 1
 335 635 l 2
 274.973324358 635 255.751536132 619.956861388 243 563 c 2
 228 496 l 1
 408 496 l 1
 420 549 l 2
 448.76978294 677.156305821 479.818090686 706 589 706 c 2
 640 706 l 1
 625 635 l 1
 601 635 l 2
 540.973324358 635 521.751536132 619.956861388 509 563 c 2
 494 496 l 1
 596 496 l 1
 581 428 l 1
 480 428 l 1
 389 0 l 1
 303 0 l 1
EndSplineSet
LCarets2: 1 302
Ligature2: "'liga' Standard Ligatures lookup 0-1" f f
EndChar

StartChar: f_f_i
Encoding: 435 64259 371
Width: 793
Flags: W
HStem: 0 21G<37 127.252 303 393.252 569 659.234> 428 68<59 128 228 394 494 660> 591 125<705.301 799.583> 635 71<265.503 359 531.503 625>
VStem: 37 86<0 86> 303 86<0 86> 569 86<0 86> 690 125<606.301 700.583>
DStem2: 37 0 123 0 0.207912 0.978148<17.8804 437.567 524.872 658.721> 303 0 389 0 0.207912 0.978148<17.8804 437.567 524.872 658.721> 569 0 655 0 0.207912 0.978148<17.8804 437.567>
LayerCount: 2
Fore
SplineSet
815 653 m 0xef
 815 618.918069704 786.631638849 591 752 591 c 0
 718.298271178 591 690 619.298271178 690 653 c 0
 690 687.631638849 717.918069704 716 752 716 c 0
 787.015263795 716 815 688.015263795 815 653 c 0xef
569 0 m 1
 660 428 l 1
 480 428 l 1
 389 0 l 1
 303 0 l 1
 394 428 l 1
 214 428 l 1
 123 0 l 1
 37 0 l 1
 128 428 l 1
 44 428 l 1
 59 496 l 1
 142 496 l 1
 154 549 l 2
 182.76978294 677.156305821 213.818090686 706 323 706 c 2
 374 706 l 1
 359 635 l 1
 335 635 l 2
 275.011682383 635 255.743387691 619.920465024 243 563 c 2
 228 496 l 1
 408 496 l 1
 420 549 l 2
 448.76978294 677.156305821 479.818090686 706 589 706 c 2
 640 706 l 1
 625 635 l 1
 601 635 l 2xdf
 540.973324358 635 521.751536132 619.956861388 509 563 c 2
 494 496 l 1
 760 496 l 1
 655 0 l 1
 569 0 l 1
EndSplineSet
LCarets2: 2 304 568
Ligature2: "'liga' Standard Ligatures lookup 0-1" f f i
EndChar

StartChar: f_f_l
Encoding: 437 64260 373
Width: 845
Flags: W
HStem: 0 75<705.394 768> 428 68<59 128 228 394 494 581> 635 71<265.503 359 531.503 625> 648 20G<730.764 821>
VStem: 37 86<0 86> 303 86<0 86> 613 91<42.6868 191.188> 735 86<582 668>
DStem2: 37 0 123 0 0.207912 0.978148<17.8804 437.567 524.872 658.721> 303 0 389 0 0.207912 0.978148<17.8804 437.567 524.872 658.721> 593.43 0 679.242 0 0.207912 0.978148<124.761 682.837>
LayerCount: 2
Fore
SplineSet
303 0 m 1xef
 394 428 l 1
 214 428 l 1
 123 0 l 1
 37 0 l 1
 128 428 l 1
 44 428 l 1
 59 496 l 1
 142 496 l 1
 154 549 l 2
 182.76978294 677.156305821 213.818090686 706 323 706 c 2
 374 706 l 1
 359 635 l 1
 335 635 l 2
 275.011682383 635 255.743387691 619.920465024 243 563 c 2
 228 496 l 1
 408 496 l 1
 420 549 l 2
 448.76978294 677.156305821 479.818090686 706 589 706 c 2
 640 706 l 1
 625 635 l 1
 601 635 l 2
 541.011682383 635 521.743387691 619.920465024 509 563 c 2
 494 496 l 1
 596 496 l 1
 581 428 l 1
 480 428 l 1
 389 0 l 1
 303 0 l 1xef
704 104 m 0
 704 82.8711002841 715.670941801 75 747 75 c 2
 784 75 l 1
 768 0 l 1
 712 0 l 2
 640.148928806 0 613 18.3735174746 613 67 c 0
 613 83.6321614599 615.333333333 102.965494794 620 125 c 2
 735 668 l 1
 821 668 l 1xdf
 709 140 l 2
 704 105 704 105 704 104 c 0
EndSplineSet
LCarets2: 2 302 592
Ligature2: "'liga' Standard Ligatures lookup 0-1" f f l
EndChar

StartChar: dong
Encoding: 438 8363 374
Width: 602
Flags: W
HStem: -129 67<-13 476> -12 72<164.703 297.551> 0 21G<359.361 442.333> 432 72<213.129 348.573> 548 67<308 456 556 623> 648 20G<476.849 567>
VStem: 27 90<109.959 314.605> 398 44<0 281>
DStem2: 336.852 -12 421.968 -12 0.207912 0.978148<419.16 572.535 658.862 695.11>
LayerCount: 2
Fore
SplineSet
-27 -129 m 1x9f
 -13 -62 l 1
 490 -62 l 1
 476 -129 l 1
 -27 -129 l 1x9f
EndSplineSet
Refer: 318 273 N 1 0 0 1 0 0 2
EndChar

StartChar: uni0237
Encoding: 474 567 410
Width: 258
HStem: -161 75<-138 -3.57346> 476 20G<128.735 219>
VStem: 133 86<410 496>
DStem2: -6.98484 -161 79.0779 -161 0.207912 0.978148<88.979 671.747>
AnchorPoint: "Anchor-1" 176 496 basechar 0
LayerCount: 2
Fore
SplineSet
-85 -161 m 0
 -105.980357007 -161 -128.282143019 -160.35357142 -154 -159 c 1
 -138 -86 l 1
 -106 -86 l 2
 -5.63949133228 -86 13.3851331804 -72.1511924503 30 13 c 2
 133 496 l 1
 219 496 l 1
 115 8 l 2
 86.0442982068 -133.882938787 53.9531015051 -161 -85 -161 c 0
EndSplineSet
EndChar

StartChar: uni2010
Encoding: 489 8208 425
Width: 332
Flags: W
HStem: 208 81<49 283>
VStem: 31 270
LayerCount: 2
Fore
SplineSet
31 208 m 1
 49 289 l 1
 301 289 l 1
 283 208 l 1
 31 208 l 1
EndSplineSet
EndChar

StartChar: Ldot
Encoding: 496 319 432
Width: 541
HStem: 0 81<127 469> 250 128<316.278 413.46> 648 20G<151.749 252>
VStem: 156 96<572 668> 300 129<265.272 361.692>
DStem2: 14 0 109.783 0 0.207912 0.978148<102.724 682.926>
LayerCount: 2
Fore
SplineSet
429 314 m 0
 429 277.291961432 401.28160167 250 364 250 c 0
 327.661211959 250 300 277.661211959 300 314 c 0
 300 349.879306222 328.120693778 378 364 378 c 0
 400.820252856 378 429 350.253787427 429 314 c 0
EndSplineSet
Refer: 26 76 N 1 0 0 1 0 0 3
EndChar

StartChar: ldot
Encoding: 497 320 433
Width: 370
Flags: W
HStem: 0 75<119.394 182> 250 129<247.734 343.139> 648 20G<144.764 235>
VStem: 27 91<42.6868 191.188> 149 86<582 668> 231 129<266.861 362.266>
DStem2: 7.43043 0 93.2421 0 0.207912 0.978148<125.045 682.837>
LayerCount: 2
Fore
SplineSet
360 315 m 0xf4
 360 278.648278148 331.351721852 250 295 250 c 0
 259.583065037 250 231 279.029675428 231 315 c 0
 231 350.038837261 259.961162739 379 295 379 c 0
 330.970324572 379 360 350.416934963 360 315 c 0xf4
EndSplineSet
Refer: 52 108 N 1 0 0 1 0 0 2
EndChar

